SplineFontDB: 3.0
FontName: Amatic-Bold
FullName: Amatic Bold
FamilyName: Amatic
Weight: Bold
Copyright: Digitized data Copyright (c) 2011-2013, vernon adams.
Version: 2.000
ItalicAngle: 0
UnderlinePosition: 0
UnderlineWidth: 0
Ascent: 1536
Descent: 512
UFOAscent: 1536
UFODescent: -512
LayerCount: 2
Layer: 0 0 "Back"  1
Layer: 1 0 "Fore"  0
OS2Version: 0
OS2_WeightWidthSlopeOnly: 0
OS2_UseTypoMetrics: 0
CreationTime: 1392059260
ModificationTime: 1392059902
PfmFamily: 0
TTFWeight: 700
TTFWidth: 3
LineGap: 0
VLineGap: 0
OS2TypoAscent: 2384
OS2TypoAOffset: 0
OS2TypoDescent: -505
OS2TypoDOffset: 0
OS2TypoLinegap: 0
OS2WinAscent: 2384
OS2WinAOffset: 0
OS2WinDescent: 505
OS2WinDOffset: 0
HheadAscent: 0
HheadAOffset: 1
HheadDescent: 0
HheadDOffset: 1
OS2Vendor: 'NeWT'
Lookup: 258 0 0 "'kern' Horizontal Kerning in Latin lookup 0"  {"'kern' Horizontal Kerning in Latin lookup 0 subtable"  } ['kern' ('latn' <'dflt' > ) ]
MarkAttachClasses: 1
DEI: 91125
LangName: 1033 "" "" "" "" "" "Version 2.000" "" "Amatic is a trademark of Vernon Adams and may be registered in certain jurisdictions." "newtypography" "Vernon Adams" "" "newtypography.co.uk" "newtypography.co.uk" "Copyright (c) 2013, vernon adams.+AAoACgAA-This Font Software is licensed under the SIL Open Font License, Version 1.1.+AAoA-This license is copied below, and is also available with a FAQ at:+AAoA-http://scripts.sil.org/OFL+AAoA" "http://scripts.sil.org/OFL" "" "Amatic" "Regular" 
PickledData: "(dp1
S'com.typemytype.robofont.segmentType'
p2
S'curve'
p3
sS'com.typemytype.robofont.sort'
p4
(NI01
NS'alphabetical'
p5
NI01
NI01
NS'category'
p6
NI01
NI01
NS'unicode'
p7
NI01
NI01
NS'script'
p8
NI01
NI01
NS'suffix'
p9
NI01
NI01
NS'decompositionBase'
p10
NI01
tp11
sS'com.hodefoting.kernagic.1.0'
p12
S'gap=0.180000 snap=18.000000^'
p13
sS'public.glyphOrder'
p14
(S'A'
S'Agrave'
p15
S'Aacute'
p16
S'Acircumflex'
p17
S'Atilde'
p18
S'Adieresis'
p19
S'Aring'
p20
S'Amacron'
p21
S'Abreve'
p22
S'Aogonek'
p23
S'uni0200'
p24
S'uni0202'

StartChar: A
Encoding: 33 65 0
Width: 846
VWidth: 0
Flags: W
PickledData: "(dp1
S'lstem'
p2
I0
sS'com.fontlab.hintData'
p3
(dp4
S'vhints'
p5
((dp6
S'position'
p7
I562
sS'width'
p8
I90
s(dp9
g7
I564
sg8
I131
stp10
sS'hhints'
p11
((dp12
g7
I1
sg8
I21
stp13
ss."
HStem: 1 21<607 650.5>
VStem: 562 90 564 131<54 177 47 321>
LayerCount: 2
Fore
SplineSet
572 1525 m 257
 572 1370 652 897 652 710 c 256
 652 521 695 284 695 70 c 256
 695 24 674 1 627 1 c 256
 587 1 564 13 564 54 c 258
 564 321 l 257
 520 351 381 369 325 373 c 257
 274 286 282 117 224 23 c 257
 192 23 143 26 134 64 c 257
 205 167 353 1543 506 1543 c 256
 528 1543 554 1539 572 1525 c 257
494 1236 m 256
 494 1243 494 1249 495 1254 c 257
 447 1204 342 549 338 464 c 257
 397 448 459 441 520 441 c 256
 533 441 550 444 562 447 c 257
 552 576 494 1110 494 1236 c 256
EndSplineSet
EndChar

StartChar: B
Encoding: 34 66 10
Width: 774
VWidth: 0
Flags: W
PickledData: "(dp1
S'lstem'
p2
I0
sS'com.fontlab.hintData'
p3
(dp4
S'vhints'
p5
((dp6
S'position'
p7
I182
sS'width'
p8
I111
s(dp9
g7
I186
sg8
I124
s(dp10
g7
I469
sg8
I100
s(dp11
g7
I529
sg8
I106
stp12
sS'hhints'
p13
((dp14
g7
I-17
sg8
I21
s(dp15
g7
I1421
sg8
I116
stp16
ss."
HStem: -17 21<263.5 282 282 290> 1421 116<307.5 359 222 363>
VStem: 182 111<1279 1382 1279 1411> 186 124<90 118> 469 100<1173 1246 1246 1283.5> 529 106<328 455.5 328 543>
LayerCount: 2
Fore
SplineSet
322 1421 m 256
 293 1421 293 1376 293 1357 c 256
 293 1201 300 1044 301 888 c 257
 394 909 438 1095 469 1173 c 257
 469 1246 l 258
 469 1321 404 1421 322 1421 c 256
529 369 m 256
 529 717 373 769 373 769 c 257
 300 769 l 257
 308 543 310 316 310 90 c 257
 451 112 529 232 529 369 c 256
635 374 m 256
 635 282 546 -17 290 -17 c 258
 282 -17 l 258
 245 -17 186 -15 186 34 c 256
 186 202 196 370 196 538 c 256
 196 815 182 1093 182 1370 c 258
 182 1382 l 258
 182 1440 185 1537 259 1537 c 256
 459 1537 569 1392 569 1201 c 256
 569 1075 492 924 403 859 c 257
 585 737 635 537 635 374 c 256
EndSplineSet
EndChar

StartChar: C
Encoding: 35 67 11
Width: 918
VWidth: 0
Flags: W
PickledData: "(dp1
S'lstem'
p2
I0
sS'com.fontlab.hintData'
p3
(dp4
S'vhints'
p5
((dp6
S'position'
p7
I184
sS'width'
p8
I109
stp9
sS'hhints'
p10
((dp11
g7
I-33
sg8
I126
s(dp12
g7
I1443
sg8
I122
stp13
ss."
HStem: -33 126<402 542> 1443 122<495 523 495 495>
VStem: 184 109<1116.5 1376.5>
LayerCount: 2
Fore
SplineSet
680 166 m 256
 699 166 721 154 740 135 c 257
 740 4 595 -33 489 -33 c 256
 202 -33 174 425 174 792 c 256
 174 882 176 966 176 1037 c 256
 176 1100 178 1164 190 1226 c 257
 186 1248 184 1270 184 1290 c 256
 184 1463 333 1565 510 1565 c 256
 565 1565 653 1531 653 1465 c 256
 653 1434 624 1419 596 1419 c 256
 576 1419 534 1426 523 1444 c 257
 523 1443 l 257
 495 1443 l 257
 495 1448 l 257
 298 1448 293 1294 293 1140 c 256
 293 1093 299 1046 299 999 c 256
 299 951 281 904 281 856 c 258
 281 807 l 258
 281 549 288 93 516 93 c 256
 583 93 627 166 680 166 c 256
EndSplineSet
EndChar

StartChar: D
Encoding: 36 68 17
Width: 882
VWidth: 0
Flags: W
PickledData: "(dp1
S'lstem'
p2
I0
sS'com.fontlab.hintData'
p3
(dp4
S'vhints'
p5
((dp6
S'position'
p7
I142
sS'width'
p8
I126
s(dp9
g7
I219
sg8
I98
s(dp10
g7
I594
sg8
I105
stp11
sS'hhints'
p12
((dp13
g7
I-5
sg8
I21
s(dp14
g7
I1429
sg8
I123
stp15
ss."
HStem: -5 21<253 399.5> 1429 123<299 330 330 409>
VStem: 142 126<1427 1514.5> 219 98<275 310 114 419.5> 594 105<734.5 773 773 868>
LayerCount: 2
Fore
SplineSet
317 310 m 258
 317 114 l 257
 534 254 594 615 594 854 c 256
 594 1061 550 1429 268 1429 c 257
 268 1427 l 257
 269 1054 317 683 317 310 c 258
274 -5 m 256
 232 -5 174 14 174 65 c 257
 219 112 219 244 219 306 c 256
 219 533 181 758 181 982 c 256
 181 1055 187 1131 187 1206 c 256
 187 1308 142 1400 142 1481 c 256
 142 1548 241 1552 299 1552 c 258
 330 1552 l 258
 693 1552 699 1023 699 868 c 258
 699 773 l 257
 688 754 699 733 699 711 c 256
 699 503 525 -5 274 -5 c 256
EndSplineSet
EndChar

StartChar: Dcroat
Encoding: 207 272 19
Width: 918
VWidth: 0
Flags: W
PickledData: "(dp1
S'lstem'
p2
I0
sS'com.fontlab.hintData'
p3
(dp4
S'vhints'
p5
((dp6
S'position'
p7
I185
sS'width'
p8
I126
s(dp9
g7
I224
sg8
I113
s(dp10
g7
I262
sg8
I98
s(dp11
g7
I637
sg8
I105
stp12
sS'hhints'
p13
((dp14
g7
I-5
sg8
I21
s(dp15
g7
I746
sg8
I101
s(dp16
g7
I1429
sg8
I123
stp17
ss."
HStem: -5 21<296 442.5> 746 101<337 469> 1429 123<342 373 373 452>
VStem: 185 126<1427 1514.5> 224 113<847 1018.5> 262 98<275 310 114 379.5> 637 105<734.5 773 773 868>
LayerCount: 2
Fore
SplineSet
520 791 m 256
 520 754 484 746 454 746 c 256
 438 746 395 743 344 742 c 257
 353 598 360 454 360 310 c 258
 360 114 l 257
 577 254 637 615 637 854 c 256
 637 1061 593 1429 311 1429 c 257
 311 1427 l 257
 312 1233 324 1040 337 847 c 257
 348 847 l 258
 435 847 520 831 520 791 c 256
317 -5 m 256
 275 -5 217 14 217 65 c 257
 262 112 262 244 262 306 c 256
 262 453 246 599 235 744 c 257
 152 748 78 761 78 798 c 256
 78 839 139 842 168 842 c 256
 178 842 200 842 228 843 c 257
 225 889 224 936 224 982 c 256
 224 1055 230 1131 230 1206 c 256
 230 1308 185 1400 185 1481 c 256
 185 1548 284 1552 342 1552 c 258
 373 1552 l 258
 736 1552 742 1023 742 868 c 258
 742 773 l 257
 731 754 742 733 742 711 c 256
 742 503 568 -5 317 -5 c 256
EndSplineSet
EndChar

StartChar: E
Encoding: 37 69 20
Width: 738
VWidth: 0
Flags: W
PickledData: "(dp1
S'lstem'
p2
I0
sS'com.fontlab.hintData'
p3
(dp4
S'vhints'
p5
((dp6
S'position'
p7
I182
sS'width'
p8
I123
s(dp9
g7
I210
sg8
I110
stp10
sS'hhints'
p11
((dp12
g7
I-12
sg8
I117
s(dp13
g7
I750
sg8
I120
s(dp14
g7
I1423
sg8
I128
stp15
ss."
HStem: -12 117<288 320 320 320 320 376> 750 120<406.5 422 390.5 430> 1423 128<376 403 359.5 407>
VStem: 182 123<1367.5 1461 1367.5 1461> 210 110<105 737 105 1245>
LayerCount: 2
Fore
SplineSet
551 50 m 257
 520 -11 435 -12 376 -12 c 258
 312 -12 l 258
 264 -12 210 -10 210 55 c 258
 210 1245 l 258
 210 1316 182 1383 182 1454 c 258
 182 1461 l 257
 197 1486 211 1513 233 1533 c 257
 284 1533 334 1551 385 1551 c 256
 421 1551 479 1527 479 1484 c 256
 479 1432 428 1423 386 1423 c 256
 366 1423 347 1425 327 1425 c 256
 320 1425 312 1425 305 1424 c 257
 305 1311 321 1199 321 1086 c 256
 321 1008 312 930 311 852 c 257
 343 858 374 870 407 870 c 256
 437 870 467 844 467 813 c 256
 467 782 447 750 413 750 c 256
 400 750 381 752 362 752 c 256
 341 752 330 749 320 737 c 257
 320 105 l 257
 355 107 399 111 434 111 c 256
 470 111 551 108 551 57 c 258
 551 50 l 257
EndSplineSet
EndChar

StartChar: Eng
Encoding: 265 330 28
Width: 972
VWidth: 0
Flags: W
PickledData: "(dp1
S'lstem'
p2
I0
sS'com.fontlab.hintData'
p3
(dp4
S'vhints'
p5
((dp6
S'position'
p7
I182
sS'width'
p8
I104
s(dp9
g7
I198
sg8
I117
s(dp10
g7
I663
sg8
I122
s(dp11
g7
I663
sg8
I97
stp12
sS'hhints'
p13
((dp14
g7
I-2
sg8
I21
s(dp15
g7
I1544
sg8
I20
stp16
ss."
HStem: -2 21<231 259.5> 1544 20<222.5 303>
VStem: 182 104<812 1073 1073 1135.5> 198 117<29 47.5> 663 122<1504 1516 1504 1545 1504 1545> 663 97<939 1444>
LayerCount: 2
Fore
SplineSet
657 -113 m 256
 657 -65 658 -17 658 32 c 257
 565 234 389 887 286 1298 c 257
 286 626 l 258
 286 431 315 237 315 42 c 256
 315 16 276 -2 243 -2 c 256
 219 -2 198 7 198 30 c 256
 198 65 208 109 208 177 c 256
 208 371 182 688 182 812 c 258
 182 1073 l 258
 182 1198 196 1324 196 1449 c 258
 196 1462 l 258
 196 1508 204 1564 241 1564 c 256
 365 1564 654 228 655 225 c 257
 655 463 663 701 663 939 c 258
 663 1545 l 257
 671 1580 697 1596 730 1596 c 256
 775 1596 785 1553 785 1516 c 258
 785 1504 l 257
 776 1485 760 1465 760 1444 c 258
 760 42 l 258
 760 -271 735 -236 549 -388 c 257
 509 -388 475 -369 475 -325 c 256
 475 -226 657 -240 657 -113 c 256
EndSplineSet
EndChar

StartChar: currency
Encoding: -1 164 30
Width: 1008
VWidth: 0
Flags: W
PickledData: "(dp1
S'lstem'
p2
I0
sS'com.fontlab.hintData'
p3
(dp4
S'vhints'
p5
((dp6
S'position'
p7
I180
sS'width'
p8
I110
s(dp9
g7
I721
sg8
I119
stp10
sS'hhints'
p11
((dp12
g7
I205
sg8
I100
s(dp13
g7
I1181
sg8
I104
stp14
ss."
HStem: 205 100<455.5 501.5> 1181 104<472 480.5 420 507>
VStem: 180 110<556 599.5 556 629.5> 721 119<709.5 809.5>
LayerCount: 2
Fore
SplineSet
722 251 m 257
 722 248 l 257
 697 293 l 257
 632 235 545 205 458 205 c 256
 389 205 324 243 276 290 c 257
 259 253 239 201 190 201 c 256
 146 201 126 236 126 276 c 256
 126 315 191 360 212 392 c 257
 183 446 180 507 180 567 c 256
 180 692 184 977 252 1078 c 257
 229 1119 155 1160 155 1209 c 256
 155 1235 178 1255 203 1255 c 256
 255 1255 284 1209 311 1172 c 257
 338 1202 399 1285 441 1285 c 256
 520 1285 597 1259 663 1216 c 257
 697 1260 724 1351 792 1351 c 258
 802 1351 l 257
 845 1304 l 257
 841 1241 750 1165 750 1141 c 256
 750 1019 840 902 840 772 c 256
 840 643 773 525 773 396 c 256
 773 335 850 308 850 247 c 256
 850 219 828 195 800 195 c 256
 765 195 726 212 722 251 c 257
290 696 m 257
 293 696 l 257
 294 687 295 678 295 669 c 256
 295 641 290 614 290 585 c 256
 290 527 297 462 344 421 c 257
 344 332 417 305 494 305 c 256
 684 305 721 640 721 779 c 256
 721 840 696 1027 660 1071 c 257
 631 1077 611 1103 608 1132 c 257
 578 1165 529 1181 485 1181 c 256
 459 1181 394 1121 378 1100 c 257
 393 1086 l 257
 393 1055 387 1009 346 1009 c 256
 321 1009 290 774 290 696 c 257
EndSplineSet
EndChar

StartChar: F
Encoding: 38 70 31
Width: 702
VWidth: 0
Flags: W
PickledData: "(dp1
S'lstem'
p2
I0
sS'com.fontlab.hintData'
p3
(dp4
S'vhints'
p5
((dp6
S'position'
p7
I236
sS'width'
p8
I128
stp9
sS'hhints'
p10
((dp11
g7
I-2
sg8
I21
s(dp12
g7
I1442
sg8
I112
stp13
ss."
HStem: -2 21<267.5 316> 1442 112<338 362.5>
VStem: 236 128<38.5 206>
LayerCount: 2
Fore
SplineSet
360 81 m 257
 363 72 364 64 364 56 c 256
 364 21 337 -2 295 -2 c 256
 240 -2 236 90 236 129 c 256
 236 283 206 1390 174 1440 c 257
 174 1550 289 1554 372 1554 c 256
 424 1554 459 1544 459 1484 c 256
 459 1453 429 1440 402 1440 c 256
 393 1440 373 1442 352 1442 c 256
 324 1442 295 1438 295 1419 c 256
 295 1235 324 1053 326 869 c 257
 364 876 401 891 440 891 c 256
 472 891 496 858 496 828 c 256
 496 762 371 764 326 761 c 257
 326 538 365 317 365 94 c 256
 365 90 361 85 360 81 c 257
EndSplineSet
EndChar

StartChar: G
Encoding: 39 71 32
Width: 914
VWidth: 0
Flags: W
PickledData: "(dp1
S'lstem'
p2
I0
sS'com.fontlab.hintData'
p3
(dp4
S'vhints'
p5
((dp6
S'position'
p7
I175
sS'width'
p8
I108
s(dp9
g7
I685
sg8
I118
stp10
sS'hhints'
p11
((dp12
g7
I-54
sg8
I105
s(dp13
g7
I363
sg8
I126
s(dp14
g7
I1495
sg8
I96
stp15
ss."
HStem: -54 105<415.5 562> 363 126<549.5 705.5> 1495 96<393 507>
VStem: 175 108<587.5 643.5 508.5 732> 685 118<2 4 4 4>
LayerCount: 2
Fore
SplineSet
685 2 m 257
 685 4 l 257
 636 -18 590 -54 534 -54 c 256
 184 -54 175 464 175 711 c 256
 175 753 174 805 174 862 c 256
 174 1158 200 1591 525 1591 c 256
 563 1591 610 1580 610 1533 c 256
 610 1503 584 1485 556 1485 c 256
 536 1485 517 1495 497 1495 c 256
 289 1495 284 927 284 744 c 256
 284 709 283 670 283 617 c 256
 283 400 301 51 530 51 c 256
 596 51 644 84 681 137 c 257
 680 190 672 329 648 371 c 257
 626 369 596 363 568 363 c 256
 531 363 498 374 498 421 c 256
 498 477 635 489 675 489 c 256
 736 489 762 434 762 380 c 256
 762 257 803 138 803 15 c 256
 803 -14 784 -41 753 -41 c 256
 724 -41 696 -26 685 2 c 257
EndSplineSet
EndChar

StartChar: Gbreve
Encoding: -1 286 33
Width: 936
VWidth: 0
Flags: W
PickledData: "(dp1
S'lstem'
p2
I0
sS'com.fontlab.hintData'
p3
(dp4
S'vhints'
p5
((dp6
S'position'
p7
I383
sS'width'
p8
I117
s(dp9
g7
I607
sg8
I151
stp10
sS'hhints'
p11
((dp12
g7
I-22
sg8
I21
stp13
ss."
HStem: -22 21<777 801.5>
VStem: 383 117 607 151
LayerCount: 2
Fore
SplineSet
837 49 m 257
 835 19 820 -22 783 -22 c 256
 771 -22 755 -22 743 -18 c 256
 711 -8 423 612 383 698 c 257
 386 798 569 1125 607 1255 c 256
 618 1293 645 1447 706 1447 c 256
 708 1447 710 1446 713 1446 c 257
 758 1411 l 257
 731 1193 500 869 500 702 c 256
 500 679 774 135 811 69 c 257
 837 49 l 257
523 1440 m 257
 416 1193 343 929 229 687 c 257
 262 526 586 65 586 -13 c 256
 586 -45 548 -59 522 -59 c 256
 477 -59 118 607 118 697 c 256
 118 749 341 1261 379 1361 c 257
 383 1398 415 1456 440 1483 c 257
 440 1485 l 257
 446 1486 453 1489 459 1489 c 256
 488 1489 521 1473 523 1440 c 257
EndSplineSet
EndChar

StartChar: H
Encoding: 40 72 37
Width: 810
VWidth: 0
Flags: W
PickledData: "(dp1
S'lstem'
p2
I0
sS'com.fontlab.hintData'
p3
(dp4
S'vhints'
p5
((dp6
S'position'
p7
I174
sS'width'
p8
I127
s(dp9
g7
I174
sg8
I112
s(dp10
g7
I481
sg8
I100
s(dp11
g7
I508
sg8
I112
stp12
sS'hhints'
p13
((dp14
g7
I-31
sg8
I21
s(dp15
g7
I769
sg8
I55
s(dp16
g7
I1530
sg8
I20
stp17
ss."
HStem: -31 21<540.5 578.5> 769 55 1530 20<481 530>
VStem: 174 127 174 112 481 100<1168 1550> 508 112<26.5 157.5>
LayerCount: 2
Fore
SplineSet
174 1510 m 256
 174 1537 189 1547 209 1547 c 256
 236 1547 270 1529 281 1514 c 257
 276 1462 274 1411 274 1360 c 256
 274 1220 288 1079 288 939 c 256
 288 914 286 888 286 862 c 256
 286 844 287 827 290 809 c 257
 357 811 422 822 489 824 c 257
 488 1048 481 1272 481 1496 c 258
 481 1550 l 257
 579 1550 581 1469 581 1393 c 256
 581 943 620 491 620 43 c 256
 620 10 597 -31 560 -31 c 256
 521 -31 508 4 508 37 c 256
 508 278 503 519 490 759 c 257
 468 763 445 769 422 769 c 256
 381 769 339 769 301 753 c 257
 302 521 335 291 335 59 c 256
 335 34 319 5 291 5 c 256
 176 5 174 1319 174 1510 c 256
EndSplineSet
EndChar

StartChar: I
Encoding: 41 73 40
Width: 702
VWidth: 0
Flags: W
PickledData: "(dp1
S'lstem'
p2
I0
sS'com.fontlab.hintData'
p3
(dp4
S'vhints'
p5
((dp6
S'position'
p7
I247
sS'width'
p8
I93
s(dp9
g7
I285
sg8
I105
stp10
sS'hhints'
p11
((dp12
g7
I3
sg8
I110
s(dp13
g7
I1442
sg8
I111
stp14
ss."
HStem: 3 110<196 357.5> 1442 111<408 418.5 377 430>
VStem: 247 93<947 1419> 285 105<138 203 124 316>
LayerCount: 2
Fore
SplineSet
466 8 m 257
 446 8 388 3 327 3 c 256
 241 3 150 13 150 64 c 256
 150 101 180 113 212 113 c 256
 229 113 243 110 255 110 c 256
 274 110 285 118 285 158 c 256
 285 474 247 789 247 1105 c 256
 247 1175 251 1244 251 1314 c 256
 251 1352 250 1390 246 1428 c 257
 231 1423 213 1419 198 1419 c 256
 171 1419 150 1430 150 1468 c 256
 150 1540 351 1553 403 1553 c 256
 434 1553 463 1529 463 1497 c 256
 463 1470 445 1442 415 1442 c 256
 401 1442 389 1443 379 1443 c 256
 355 1443 340 1437 340 1401 c 256
 340 1001 390 603 390 203 c 258
 390 124 l 257
 404 126 418 127 432 127 c 256
 477 127 517 113 517 55 c 258
 517 43 l 257
 466 8 l 257
EndSplineSet
EndChar

StartChar: J
Encoding: 42 74 51
Width: 720
VWidth: 0
Flags: W
PickledData: "(dp1
S'lstem'
p2
I55
sS'com.fontlab.hintData'
p3
(dp4
S'vhints'
p5
((dp6
S'position'
p7
I394
sS'width'
p8
I110
stp9
sS'hhints'
p10
((dp11
g7
I1445
sg8
I108
stp12
ss."
HStem: 1445 108<444 470 470 471 443 470>
VStem: 394 110<287.5 680.5>
LayerCount: 2
Fore
SplineSet
340 1445 m 257
 311 1439 281 1429 251 1429 c 256
 223 1429 199 1453 199 1481 c 256
 199 1553 395 1553 444 1553 c 258
 470 1553 l 258
 512 1553 562 1548 562 1497 c 256
 562 1453 512 1444 477 1444 c 256
 475 1444 473 1445 471 1445 c 258
 443 1445 l 257
 443 1429 l 258
 443 1323 467 1218 467 1112 c 256
 467 846 504 581 504 315 c 256
 504 260 503 207 503 152 c 256
 503 0 440 -147 305 -194 c 257
 265 -194 231 -175 231 -131 c 256
 231 -94 281 -61 311 -48 c 257
 339 -12 393 102 393 241 c 256
 393 334 394 429 394 525 c 256
 394 836 388 1155 340 1445 c 257
EndSplineSet
EndChar

StartChar: Jcircumflex
Encoding: -1 308 52
Width: 1098
VWidth: 0
Flags: W
PickledData: "(dp1
S'lstem'
p2
I0
sS'com.fontlab.hintData'
p3
(dp4
S'vhints'
p5
((dp6
S'position'
p7
I809
sS'width'
p8
I93
stp9
sS'hhints'
p10
((dp11
g7
I711
sg8
I124
s(dp12
g7
I733
sg8
I115
stp13
ss."
HStem: 711 124<155 375.5> 733 115<636.5 870>
VStem: 809 93<564 720>
LayerCount: 2
Fore
SplineSet
169 711 m 256
 141 711 118 735 118 763 c 256
 118 822 229 835 336 835 c 256
 415 835 491 828 519 828 c 256
 631 828 742 848 854 848 c 256
 886 848 921 824 921 790 c 256
 921 766 914 741 902 720 c 257
 902 658 907 596 926 537 c 257
 922 509 904 475 872 475 c 256
 818 475 809 536 809 592 c 256
 809 618 811 643 811 659 c 256
 811 682 810 705 806 727 c 257
 781 728 755 733 730 733 c 256
 543 733 356 711 169 711 c 256
EndSplineSet
EndChar

StartChar: K
Encoding: 43 75 53
Width: 864
VWidth: 0
Flags: W
PickledData: "(dp1
S'lstem'
p2
I0
sS'com.fontlab.hintData'
p3
(dp4
S'vhints'
p5
((dp6
S'position'
p7
I174
sS'width'
p8
I130
s(dp9
g7
I201
sg8
I90
s(dp10
g7
I611
sg8
I113
stp11
sS'hhints'
p12
((dp13
g7
I-27
sg8
I20
stp14
ss."
HStem: -27 20<205 268>
VStem: 174 130<90 102 102 200> 201 90<586.5 707> 611 113
LayerCount: 2
Fore
SplineSet
174 1476 m 256
 174 1509 197 1541 232 1541 c 256
 306 1541 308 1426 308 1375 c 256
 308 1235 302 1094 299 954 c 257
 338 1045 536 1596 606 1596 c 256
 636 1596 664 1574 664 1542 c 256
 664 1497 453 1108 427 991 c 257
 427 955 l 257
 463 864 724 48 724 11 c 256
 724 -23 691 -48 659 -48 c 256
 643 -48 627 -41 611 -40 c 257
 556 272 493 590 361 880 c 257
 307 776 291 769 291 650 c 256
 291 523 304 397 304 270 c 258
 304 102 l 258
 304 78 302 -7 234 -7 c 256
 176 -7 174 67 174 108 c 256
 174 292 201 476 201 660 c 256
 201 754 204 905 204 1049 c 256
 204 1238 174 1347 174 1476 c 256
EndSplineSet
EndChar

StartChar: L
Encoding: 44 76 55
Width: 622
VWidth: 0
Flags: W
PickledData: "(dp1
S'lstem'
p2
I0
sS'com.fontlab.hintData'
p3
(dp4
S'vhints'
p5
((dp6
S'position'
p7
I182
sS'width'
p8
I112
s(dp9
g7
I210
sg8
I315
s(dp10
g7
I223
sg8
I102
stp11
sS'hhints'
p12
((dp13
g7
I-23
sg8
I21
s(dp14
g7
I-4
sg8
I119
s(dp15
g7
I1551
sg8
I20
stp16
ss."
HStem: -23 21<262 289.5> -4 119<468 481 325 488.5> 1551 20<219.5 248.5>
VStem: 182 112<1389 1529 1389 1542.5> 210 315<39.5 57.5> 223 102<116.5 167 115 365>
LayerCount: 2
Fore
SplineSet
325 115 m 257
 481 115 l 257
 503 100 525 83 525 54 c 256
 525 25 504 -4 473 -4 c 256
 463 -4 451 1 442 3 c 257
 429 0 416 -1 403 -1 c 256
 381 -1 359 2 337 2 c 257
 323 -15 300 -23 279 -23 c 256
 245 -23 210 7 210 42 c 256
 210 73 223 101 223 132 c 256
 223 598 182 1063 182 1529 c 256
 182 1556 207 1571 232 1571 c 256
 265 1571 294 1546 294 1512 c 256
 294 1266 315 1019 315 775 c 256
 315 758 318 742 318 725 c 256
 318 720 318 715 317 710 c 258
 317 701 l 257
 325 523 325 345 325 167 c 258
 325 115 l 257
EndSplineSet
EndChar

StartChar: Lslash
Encoding: 256 321 60
Width: 756
VWidth: 0
Flags: W
PickledData: "(dp1
S'lstem'
p2
I0
sS'com.fontlab.hintData'
p3
(dp4
S'vhints'
p5
((dp6
S'position'
p7
I230
sS'width'
p8
I112
s(dp9
g7
I253
sg8
I113
s(dp10
g7
I271
sg8
I102
stp11
sS'hhints'
p12
((dp13
g7
I2
sg8
I113
s(dp14
g7
I754
sg8
I119
s(dp15
g7
I1551
sg8
I20
stp16
ss."
HStem: 2 113<376.5 396> 754 119 1551 20<267.5 296.5>
VStem: 230 112<1419.5 1529 1410.5 1542.5> 253 113 271 102<116.5 167 115 238>
LayerCount: 2
Fore
SplineSet
576 897 m 256
 576 842 471 813 363 797 c 257
 363 795 l 258
 363 773 366 752 366 730 c 256
 366 723 366 717 365 710 c 257
 365 701 l 257
 373 523 373 345 373 167 c 258
 373 115 l 257
 529 115 l 257
 551 100 573 83 573 54 c 256
 573 25 552 -4 521 -4 c 256
 511 -4 499 1 490 3 c 257
 477 0 464 -1 451 -1 c 256
 429 -1 407 2 385 2 c 256
 368 2 342 5 317 5 c 256
 288 5 258 22 258 42 c 256
 258 73 271 101 271 132 c 256
 271 344 262 556 253 768 c 257
 229 757 210 754 201 754 c 256
 168 754 134 774 134 803 c 256
 134 838 187 860 248 873 c 257
 239 1092 230 1310 230 1529 c 256
 230 1556 255 1571 280 1571 c 256
 313 1571 342 1546 342 1512 c 256
 342 1309 357 1106 362 904 c 257
 442 939 510 949 538 949 c 256
 556 949 576 929 576 897 c 256
EndSplineSet
EndChar

StartChar: M
Encoding: 45 77 61
Width: 1044
VWidth: 0
Flags: W
PickledData: "(dp1
S'lstem'
p2
I0
sS'com.fontlab.hintData'
p3
(dp4
S'vhints'
p5
((dp6
S'position'
p7
I182
sS'width'
p8
I121
s(dp9
g7
I185
sg8
I101
s(dp10
g7
I441
sg8
I164
s(dp11
g7
I707
sg8
I121
s(dp12
g7
I739
sg8
I126
stp13
sS'hhints'
p14
((dp15
g7
I-54
sg8
I21
s(dp16
g7
I1534
sg8
I20
stp17
ss."
HStem: -54 21<772 802> 1534 20<245 245>
VStem: 182 121<100 187.5> 185 101 441 164<401 414 401 536.5> 707 121<1517 1529 1529 1529> 739 126<32.5 170.5>
LayerCount: 2
Fore
SplineSet
707 1517 m 257
 707 1529 l 257
 713 1565 745 1587 780 1587 c 256
 806 1587 828 1560 828 1535 c 256
 828 1045 865 557 865 67 c 256
 865 -2 820 -54 784 -54 c 256
 760 -54 739 -30 739 27 c 256
 739 314 731 602 731 889 c 258
 731 993 l 257
 696 801 631 605 605 414 c 257
 605 401 l 257
 594 347 592 222 514 222 c 256
 441 222 441 364 441 413 c 256
 441 660 344 931 290 1172 c 257
 288 1090 286 1007 286 925 c 256
 286 644 303 364 303 83 c 256
 303 54 292 27 272 6 c 257
 194 6 182 68 182 132 c 256
 182 243 192 353 192 464 c 256
 192 729 185 993 185 1257 c 256
 185 1346 186 1434 188 1522 c 257
 245 1554 l 257
 354 1546 498 674 529 528 c 257
 597 850 688 1188 707 1517 c 257
EndSplineSet
EndChar

StartChar: N
Encoding: 46 78 62
Width: 972
VWidth: 0
Flags: W
PickledData: "(dp1
S'lstem'
p2
I0
sS'com.fontlab.hintData'
p3
(dp4
S'vhints'
p5
((dp6
S'position'
p7
I182
sS'width'
p8
I104
s(dp9
g7
I198
sg8
I117
s(dp10
g7
I663
sg8
I122
s(dp11
g7
I663
sg8
I97
stp12
sS'hhints'
p13
((dp14
g7
I-9
sg8
I7
s(dp15
g7
I1544
sg8
I20
stp16
ss."
HStem: -9 7 1544 20<222.5 303>
VStem: 182 104<812 1073 1073 1135.5> 198 117<29 47.5> 663 122<1504 1516 1504 1545 1504 1545> 663 97
LayerCount: 2
Fore
SplineSet
655 225 m 257
 655 463 663 701 663 939 c 258
 663 1545 l 257
 671 1580 697 1596 730 1596 c 256
 775 1596 785 1553 785 1516 c 258
 785 1504 l 257
 776 1485 773 1465 773 1444 c 256
 773 1193 760 939 760 687 c 258
 760 61 l 258
 760 25 737 -30 701 -30 c 256
 636 -30 409 808 286 1298 c 257
 286 626 l 258
 286 431 315 237 315 42 c 256
 315 16 276 -2 243 -2 c 256
 219 -2 198 7 198 30 c 256
 198 65 208 109 208 177 c 256
 208 371 182 688 182 812 c 258
 182 1073 l 258
 182 1198 196 1324 196 1449 c 258
 196 1462 l 258
 196 1508 204 1564 241 1564 c 256
 365 1564 654 228 655 225 c 257
EndSplineSet
EndChar

StartChar: O
Encoding: 47 79 67
Width: 900
VWidth: 0
Flags: W
PickledData: "(dp1
S'lstem'
p2
I0
sS'com.fontlab.hintData'
p3
(dp4
S'vhints'
p5
((dp6
S'position'
p7
I186
sS'width'
p8
I95
s(dp9
g7
I621
sg8
I93
stp10
sS'hhints'
p11
((dp12
g7
I-57
sg8
I112
s(dp13
g7
I1477
sg8
I108
stp14
ss."
HStem: -57 112<408.5 547> 1477 108<349 515.5>
VStem: 186 95 621 93<607 618 618 725>
LayerCount: 2
Fore
SplineSet
405 1585 m 256
 698 1585 714 1071 714 736 c 258
 714 618 l 258
 714 531 697 446 696 359 c 257
 696 350 l 257
 686 306 683 261 683 215 c 256
 683 113 607 -57 487 -57 c 256
 215 -57 189 609 189 799 c 256
 189 863 186 948 186 1038 c 256
 186 1290 211 1585 405 1585 c 256
415 1477 m 256
 283 1477 281 979 281 861 c 258
 281 852 l 258
 281 720 326 55 491 55 c 256
 609 55 621 561 621 653 c 256
 621 797 616 1477 415 1477 c 256
EndSplineSet
EndChar

StartChar: P
Encoding: 48 80 78
Width: 738
VWidth: 0
Flags: W
PickledData: "(dp1
S'lstem'
p2
I0
sS'com.fontlab.hintData'
p3
(dp4
S'vhints'
p5
((dp6
S'position'
p7
I209
sS'width'
p8
I117
s(dp9
g7
I461
sg8
I105
stp10
sS'hhints'
p11
((dp12
g7
I-11
sg8
I21
s(dp13
g7
I1546
sg8
I20
stp14
ss."
HStem: -11 21<240 283.5> 1546 20<229 350.5>
VStem: 209 117<52 159> 461 105<1158 1159 1159 1246.5>
LayerCount: 2
Fore
SplineSet
219 789 m 256
 219 1059 207 1327 166 1520 c 257
 184 1546 213 1566 245 1566 c 256
 456 1566 566 1365 566 1175 c 256
 566 983 484 805 310 712 c 257
 311 499 326 287 326 74 c 256
 326 30 309 -11 258 -11 c 256
 222 -11 209 29 209 58 c 256
 209 260 219 526 219 789 c 256
461 1158 m 258
 461 1159 l 258
 461 1334 418 1362 281 1459 c 257
 282 1243 304 1027 305 811 c 257
 409 909 461 1014 461 1158 c 258
EndSplineSet
EndChar

StartChar: Q
Encoding: 49 81 79
Width: 918
VWidth: 0
Flags: W
PickledData: "(dp1
S'lstem'
p2
I0
sS'com.fontlab.hintData'
p3
(dp4
S'vhints'
p5
((dp6
S'position'
p7
I182
sS'width'
p8
I101
s(dp9
g7
I607
sg8
I112
stp10
sS'hhints'
p11
((dp12
g7
I-282
sg8
I113
s(dp13
g7
I1474
sg8
I102
stp14
ss."
HStem: -282 113<680 688 688 705.5> 1474 102<345.5 497.5>
VStem: 182 101<587.5 629.5> 607 112<468 567 567 659 468 793>
LayerCount: 2
Fore
SplineSet
399 1474 m 256
 292 1474 283 775 283 653 c 256
 283 522 297 95 474 80 c 257
 474 82 l 257
 484 99 510 108 530 108 c 257
 530 107 l 257
 590 162 607 252 607 327 c 258
 607 793 l 257
 607 878 l 258
 607 1109 596 1474 399 1474 c 256
719 659 m 258
 719 567 l 258
 719 369 712 236 593 70 c 257
 603 27 624 -169 680 -169 c 258
 688 -169 l 258
 724 -169 776 -171 776 -219 c 256
 776 -270 726 -282 685 -282 c 256
 654 -282 626 -268 600 -253 c 257
 600 -252 l 257
 502 -207 505 -69 486 20 c 257
 402 20 l 257
 208 149 182 359 182 574 c 256
 182 685 192 797 192 908 c 256
 192 943 190 994 190 1052 c 256
 190 1265 212 1576 416 1576 c 256
 694 1576 721 1186 721 868 c 256
 721 792 719 721 719 659 c 258
EndSplineSet
EndChar

StartChar: R
Encoding: 50 82 80
Width: 756
VWidth: 0
Flags: W
PickledData: "(dp1
S'lstem'
p2
I0
sS'com.fontlab.hintData'
p3
(dp4
S'vhints'
p5
((dp6
S'position'
p7
I198
sS'width'
p8
I101
s(dp9
g7
I397
sg8
I113
s(dp10
g7
I502
sg8
I124
stp11
sS'hhints'
p12
((dp13
g7
I-13
sg8
I21
s(dp14
g7
I1537
sg8
I20
stp15
ss."
HStem: -13 21<226.5 267.5> 1537 20<227.5 340.5>
VStem: 198 101 397 113<1228.5 1271> 502 124<34 71 41 71>
LayerCount: 2
Fore
SplineSet
299 859 m 257
 299 52 l 258
 299 17 293 -13 242 -13 c 256
 211 -13 190 12 190 44 c 258
 190 60 l 258
 190 460 198 861 198 1261 c 258
 198 1513 l 258
 198 1541 203 1557 252 1557 c 256
 429 1557 510 1370 510 1217 c 256
 510 1097 458 985 415 876 c 257
 418 648 555 299 626 76 c 257
 626 71 l 258
 626 35 627 -21 576 -21 c 256
 542 -21 519 8 502 34 c 257
 502 41 l 257
 486 299 365 598 299 859 c 257
395 1207 m 258
 396 1214 397 1223 397 1234 c 256
 397 1308 364 1451 303 1463 c 257
 302 1324 292 1184 292 1045 c 256
 292 1014 292 982 294 951 c 257
 319 975 342 1002 363 1030 c 257
 395 1207 l 258
EndSplineSet
EndChar

StartChar: S
Encoding: 51 83 83
Width: 774
VWidth: 0
Flags: W
PickledData: "(dp1
S'lstem'
p2
I0
sS'com.fontlab.hintData'
p3
(dp4
S'vhints'
p5
((dp6
S'position'
p7
I183
sS'width'
p8
I117
s(dp9
g7
I476
sg8
I121
stp10
sS'hhints'
p11
((dp12
g7
I-45
sg8
I93
s(dp13
g7
I1456
sg8
I118
stp14
ss."
HStem: -45 93<301 373.5 301 413> 1456 118<334 497>
VStem: 183 117<1114.5 1325 1114.5 1341.5> 476 121<311.5 522.5>
LayerCount: 2
Fore
SplineSet
300 1290 m 256
 300 939 597 751 597 342 c 256
 597 179 509 -45 317 -45 c 256
 277 -45 158 -31 158 24 c 256
 158 52 172 79 204 79 c 256
 248 79 285 48 317 48 c 256
 430 48 476 268 476 355 c 256
 476 690 183 940 183 1275 c 256
 183 1408 257 1574 411 1574 c 256
 459 1574 513 1545 532 1500 c 257
 497 1456 l 257
 469 1456 440 1460 417 1476 c 257
 335 1468 300 1360 300 1290 c 256
EndSplineSet
EndChar

StartChar: Scedilla
Encoding: -1 350 86
Width: 864
VWidth: 0
Flags: W
PickledData: "(dp1
S'lstem'
p2
I0
sS'com.fontlab.hintData'
p3
(dp4
S'vhints'
p5
((dp6
S'position'
p7
I598
sS'width'
p8
I125
stp9
sS'hhints'
p10
((dp11
g7
I66
sg8
I94
s(dp12
g7
I1353
sg8
I20
s(dp13
g7
I1353
sg8
I20
stp14
ss."
HStem: 66 94<175 260.5> 1353 20<400 469 469 535> 1353 20<400 469 469 535>
VStem: 598 125<297 309 309 311 297 362.5>
LayerCount: 2
Fore
SplineSet
674 160 m 258
 709 160 724 144 724 124 c 256
 724 103 702 78 668 78 c 256
 638 78 607 78 579 76 c 257
 452 76 324 66 197 66 c 256
 153 66 118 89 118 110 c 256
 118 138 140 160 168 160 c 258
 674 160 l 258
555 645 m 257
 533 755 517 967 484 1184 c 257
 445 1019 390 777 374 678 c 257
 409 655 511 648 555 645 c 257
723 311 m 258
 723 309 l 258
 723 285 712 260 689 251 c 257
 640 251 598 260 598 319 c 256
 598 406 568 572 568 572 c 257
 366 602 l 257
 322 444 341 259 251 259 c 256
 221 259 186 281 186 314 c 256
 186 554 321 859 356 1100 c 257
 365 1169 363 1317 400 1373 c 257
 469 1373 l 258
 601 1373 723 431 723 311 c 258
EndSplineSet
EndChar

StartChar: T
Encoding: 52 84 89
Width: 720
VWidth: 0
Flags: W
PickledData: "(dp1
S'lstem'
p2
I109
sS'com.fontlab.hintData'
p3
(dp4
S'vhints'
p5
((dp6
S'position'
p7
I339
sS'width'
p8
I102
s(dp9
g7
I351
sg8
I125
s(dp10
g7
I367
sg8
I92
stp11
sS'hhints'
p12
((dp13
g7
I-14
sg8
I21
s(dp14
g7
I1438
sg8
I112
stp15
ss."
HStem: -14 21<391.5 443.5> 1438 112<512.5 537 492.5 541>
VStem: 339 102<947.5 969 845 1073.5> 351 125<68.5 143.5> 367 92<392.5 522.5>
LayerCount: 2
Fore
SplineSet
441 925 m 256
 441 765 459 615 459 454 c 256
 459 331 476 209 476 86 c 256
 476 46 470 -14 417 -14 c 256
 366 -14 351 48 351 89 c 256
 351 198 367 307 367 416 c 256
 367 629 339 841 339 1054 c 256
 339 1093 342 1163 342 1233 c 256
 342 1311 338 1389 323 1424 c 257
 286 1422 249 1413 212 1413 c 256
 180 1413 145 1433 145 1469 c 256
 145 1539 464 1550 521 1550 c 256
 553 1550 587 1526 587 1492 c 256
 587 1457 557 1438 525 1438 c 256
 500 1438 476 1442 452 1442 c 256
 445 1442 438 1442 431 1441 c 257
 441 1357 445 1273 445 1189 c 256
 445 1102 441 1013 441 925 c 256
EndSplineSet
EndChar

StartChar: Tbar
Encoding: 293 358 90
Width: 720
VWidth: 0
Flags: W
PickledData: "(dp1
S'lstem'
p2
I0
sS'com.fontlab.hintData'
p3
(dp4
S'vhints'
p5
((dp6
S'position'
p7
I339
sS'width'
p8
I102
s(dp9
g7
I351
sg8
I125
s(dp10
g7
I367
sg8
I92
stp11
sS'hhints'
p12
((dp13
g7
I-14
sg8
I21
s(dp14
g7
I656
sg8
I142
s(dp15
g7
I1438
sg8
I112
stp16
ss."
HStem: -14 21<391.5 443.5> 656 142 1438 112<512.5 537 492.5 541>
VStem: 339 102<947.5 969 845 1073.5> 351 125<68.5 143.5> 367 92<392.5 522.5>
LayerCount: 2
Fore
SplineSet
616 739 m 256
 616 666 299 656 241 656 c 256
 208 656 174 680 174 715 c 256
 174 787 491 798 548 798 c 256
 581 798 616 775 616 739 c 256
441 925 m 256
 441 765 459 615 459 454 c 256
 459 331 476 209 476 86 c 256
 476 46 470 -14 417 -14 c 256
 366 -14 351 48 351 89 c 256
 351 198 367 307 367 416 c 256
 367 629 339 841 339 1054 c 256
 339 1093 342 1163 342 1233 c 256
 342 1311 338 1389 323 1424 c 257
 286 1422 249 1413 212 1413 c 256
 180 1413 145 1433 145 1469 c 256
 145 1539 464 1550 521 1550 c 256
 553 1550 587 1526 587 1492 c 256
 587 1457 557 1438 525 1438 c 256
 500 1438 476 1442 452 1442 c 256
 445 1442 438 1442 431 1441 c 257
 441 1357 445 1273 445 1189 c 256
 445 1102 441 1013 441 925 c 256
EndSplineSet
EndChar

StartChar: U
Encoding: 53 85 94
Width: 936
VWidth: 0
Flags: W
PickledData: "(dp1
S'lstem'
p2
I0
sS'com.fontlab.hintData'
p3
(dp4
S'vhints'
p5
((dp6
S'position'
p7
I171
sS'width'
p8
I120
s(dp9
g7
I595
sg8
I127
s(dp10
g7
I640
sg8
I104
stp11
sS'hhints'
p12
((dp13
g7
I-37
sg8
I72
stp14
ss."
HStem: -37 72<484.5 597 484.5 633>
VStem: 171 120<861 1418.5> 595 127<1463 1497 1463 1507> 640 104<219 475.5 212.5 619>
LayerCount: 2
Fore
SplineSet
173 1435 m 257
 163 1446 158 1462 158 1477 c 256
 158 1509 184 1540 217 1540 c 256
 285 1540 291 1443 291 1394 c 256
 291 1157 310 919 310 682 c 257
 328 641 339 492 339 444 c 256
 339 335 414 35 555 35 c 256
 639 35 640 160 640 219 c 258
 640 619 l 258
 640 748 614 876 614 1005 c 258
 614 1019 l 258
 614 1059 610 1098 610 1138 c 256
 610 1255 595 1372 595 1489 c 256
 595 1525 640 1545 672 1545 c 257
 722 1497 l 257
 722 1463 l 257
 721 1421 707 1380 707 1338 c 256
 707 989 744 663 744 288 c 256
 744 137 724 -37 542 -37 c 256
 203 -37 171 607 171 1115 c 256
 171 1232 173 1342 173 1435 c 257
EndSplineSet
EndChar

StartChar: V
Encoding: 54 86 105
Width: 810
VWidth: 0
Flags: W
PickledData: "(dp1
S'lstem'
p2
I0
sS'com.fontlab.hintData'
p3
(dp4
S'hhints'
p5
((dp6
S'position'
p7
I-34
sS'width'
p8
I21
s(dp9
g7
I1543
sg8
I20
stp10
ss."
HStem: -34 21<436 476.5> 1543 20<170 219>
LayerCount: 2
Fore
SplineSet
183 1563 m 256
 255 1563 398 490 429 339 c 257
 474 733 554 1130 554 1528 c 257
 573 1552 598 1569 629 1569 c 257
 672 1546 l 257
 651 1356 508 -34 445 -34 c 256
 427 -34 409 -26 397 -12 c 257
 307 359 200 1167 126 1523 c 257
 134 1549 157 1563 183 1563 c 256
EndSplineSet
EndChar

StartChar: W
Encoding: 55 87 106
Width: 1026
VWidth: 0
Flags: W
PickledData: "(dp1
S'lstem'
p2
I0
sS'com.fontlab.hintData'
p3
(dp4
S'vhints'
p5
((dp6
S'position'
p7
I270
sS'width'
p8
I134
s(dp9
g7
I409
sg8
I127
s(dp10
g7
I788
sg8
I116
stp11
sS'hhints'
p12
((dp13
g7
I-29
sg8
I22
stp14
ss."
HStem: -29 22
VStem: 270 134<101.5 173 13 188.5> 409 127<1297 1325 1325 1328 1297 1339> 788 116<1330.5 1489 1250 1533.5>
LayerCount: 2
Fore
SplineSet
749 43 m 256
 749 5 731 -28 688 -28 c 256
 599 -28 501 788 482 893 c 257
 442 606 404 318 404 28 c 256
 404 -2 374 -29 345 -29 c 256
 273 -29 270 76 270 127 c 256
 270 250 110 1413 78 1491 c 257
 92 1517 118 1540 149 1540 c 256
 259 1540 310 645 331 503 c 257
 353 694 409 1115 409 1286 c 258
 409 1325 l 258
 409 1353 434 1388 463 1388 c 256
 502 1388 536 1374 536 1328 c 258
 536 1297 l 257
 537 1011 639 740 685 461 c 257
 720 809 788 1155 788 1506 c 256
 788 1561 799 1592 862 1592 c 256
 892 1592 925 1569 925 1536 c 256
 925 1519 916 1501 904 1489 c 257
 904 1011 749 523 749 43 c 256
EndSplineSet
EndChar

StartChar: X
Encoding: 56 88 111
Width: 756
VWidth: 0
Flags: W
PickledData: "(dp1
S'lstem'
p2
I0
sS'com.fontlab.hintData'
p3
(dp4
S'vhints'
p5
((dp6
S'position'
p7
I323
sS'width'
p8
I116
stp9
sS'hhints'
p10
((dp11
g7
I-13
sg8
I21
s(dp12
g7
I1530
sg8
I20
stp13
ss."
HStem: -13 21<194.5 213.5> 1530 20<528.5 555>
VStem: 323 116<797 843.5>
LayerCount: 2
Fore
SplineSet
389 987 m 257
 433 1194 458 1329 478 1415 c 256
 501 1518 515 1550 542 1550 c 256
 568 1550 592 1536 592 1505 c 256
 592 1481 584 1439 572 1386 c 256
 531 1204 439 899 439 796 c 256
 439 765 529 323 545 248 c 256
 559 182 579 134 579 80 c 256
 579 50 573 26 543 26 c 256
 512 26 490 40 483 75 c 256
 451 238 414 481 380 628 c 257
 321 367 283 195 256 97 c 256
 236 21 221 -13 206 -13 c 256
 183 -13 150 2 150 26 c 256
 150 28 150 31 151 33 c 256
 203 237 251 430 283 578 c 256
 308 690 323 775 323 819 c 256
 323 868 319 900 280 1078 c 256
 262 1159 237 1271 202 1428 c 256
 199 1442 197 1455 197 1465 c 256
 197 1508 222 1520 243 1520 c 256
 293 1520 302 1428 360 1134 c 256
 368 1089 378 1041 389 987 c 257
EndSplineSet
EndChar

StartChar: Y
Encoding: 57 89 112
Width: 702
VWidth: 0
Flags: W
PickledData: "(dp1
S'lstem'
p2
I0
sS'com.fontlab.hintData'
p3
(dp4
S'vhints'
p5
((dp6
S'position'
p7
I158
sS'width'
p8
I393
s(dp9
g7
I316
sg8
I131
s(dp10
g7
I345
sg8
I120
stp11
sS'hhints'
p12
((dp13
g7
I-25
sg8
I21
s(dp14
g7
I1529
sg8
I20
stp15
ss."
HStem: -25 21<383.5 414> 1529 20<199.5 246.5>
VStem: 158 393<1402 1523.5> 316 131<716 726 726 757 635.5 900.5> 345 120<16.5 35 35 81 81 87 16.5 91>
LayerCount: 2
Fore
SplineSet
373 1006 m 257
 389 1088 399 1539 497 1539 c 256
 511 1539 551 1539 551 1517 c 256
 551 1287 453 1062 453 828 c 256
 453 804 446 781 447 757 c 257
 447 726 l 258
 447 545 458 364 458 183 c 256
 458 151 465 119 465 87 c 258
 465 81 l 257
 465 35 l 258
 465 -2 431 -25 397 -25 c 256
 370 -25 345 -3 345 25 c 256
 345 157 355 289 355 421 c 256
 355 541 316 656 316 776 c 256
 316 1025 158 1267 158 1513 c 256
 158 1534 189 1549 210 1549 c 256
 283 1549 348 1093 373 1006 c 257
EndSplineSet
EndChar

StartChar: Z
Encoding: 58 90 117
Width: 702
VWidth: 0
Flags: W
PickledData: "(dp1
S'lstem'
p2
I0
sS'com.fontlab.hintData'
p3
(dp4
S'vhints'
p5
((dp6
S'position'
p7
I166
sS'width'
p8
I354
stp9
sS'hhints'
p10
((dp11
g7
I-19
sg8
I104
s(dp12
g7
I1441
sg8
I102
s(dp13
g7
I1530
sg8
I34
stp14
ss."
HStem: -19 104 1441 102<267.5 303 261 318.5> 1530 34
VStem: 166 354
LayerCount: 2
Fore
SplineSet
293 85 m 257
 316 86 359 93 401 93 c 256
 456 93 509 81 509 30 c 258
 509 21 l 257
 477 -11 l 257
 393 -11 308 -19 224 -19 c 256
 193 -19 176 5 166 31 c 257
 269 197 399 1235 413 1451 c 257
 388 1449 341 1441 296 1441 c 256
 239 1441 185 1453 185 1506 c 258
 185 1515 l 257
 213 1549 l 257
 213 1550 l 257
 232 1545 251 1543 271 1543 c 256
 335 1543 400 1564 464 1564 c 256
 496 1564 520 1536 520 1505 c 256
 520 1051 398 494 293 85 c 257
EndSplineSet
EndChar

StartChar: acute
Encoding: -1 180 119
Width: 702
VWidth: 0
Flags: W
PickledData: "(dp1
S'lstem'
p2
I0
sS'com.fontlab.hintData'
p3
(dp4
S'vhints'
p5
((dp6
S'position'
p7
I198
sS'width'
p8
I363
stp9
sS'hhints'
p10
((dp11
g7
I1291
sg8
I286
stp12
ss."
HStem: 1291 286<222.5 511>
VStem: 198 363<1310.5 1517>
LayerCount: 2
Fore
SplineSet
209 1339 m 256
 293 1417 429 1528 477 1573 c 257
 483 1575 488 1577 494 1577 c 256
 528 1577 561 1534 561 1500 c 256
 561 1487 556 1475 546 1468 c 256
 486 1424 324 1335 248 1295 c 256
 242 1292 237 1291 231 1291 c 256
 214 1291 198 1303 198 1318 c 256
 198 1325 201 1332 209 1339 c 256
EndSplineSet
EndChar

StartChar: a
Encoding: 65 97 121
Width: 810
VWidth: 0
Flags: W
PickledData: "(dp1
S'lstem'
p2
I0
sS'com.fontlab.hintData'
p3
(dp4
S'vhints'
p5
((dp6
S'position'
p7
I497
sS'width'
p8
I113
s(dp9
g7
I546
sg8
I125
stp10
sS'hhints'
p11
((dp12
g7
I-11
sg8
I21
s(dp13
g7
I1353
sg8
I20
s(dp14
g7
I1353
sg8
I20
stp15
ss."
HStem: -11 21<184 244> 1353 20<388 457 457 473> 1353 20<388 457 457 473>
VStem: 497 113<438 554.5 396 565.5> 546 125<27 39 39 41 27 92.5>
LayerCount: 2
Fore
SplineSet
503 375 m 257
 498 400 497 425 497 451 c 256
 497 680 462 907 442 1134 c 257
 399 897 340 551 322 408 c 257
 357 385 459 378 503 375 c 257
516 302 m 257
 314 332 l 257
 270 174 289 -11 199 -11 c 256
 169 -11 134 11 134 44 c 256
 134 49 138 57 139 62 c 256
 226 397 299 759 344 1100 c 256
 353 1169 351 1317 388 1373 c 257
 457 1373 l 258
 489 1373 527 1359 527 1321 c 256
 527 1016 610 693 610 416 c 256
 610 376 632 330 632 290 c 256
 632 239 671 99 671 41 c 258
 671 39 l 258
 671 15 660 -10 637 -19 c 257
 588 -19 546 -10 546 49 c 256
 546 136 516 302 516 302 c 257
EndSplineSet
EndChar

StartChar: acute
Encoding: 115 180 125
Width: 702
VWidth: 0
Flags: W
PickledData: "(dp1
S'lstem'
p2
I0
sS'com.fontlab.hintData'
p3
(dp4
S'vhints'
p5
((dp6
S'position'
p7
I198
sS'width'
p8
I363
stp9
sS'hhints'
p10
((dp11
g7
I1291
sg8
I286
stp12
ss."
HStem: 1291 286<222.5 511>
VStem: 198 363<1310.5 1517>
LayerCount: 2
Fore
SplineSet
209 1339 m 256
 293 1417 429 1528 477 1573 c 257
 483 1575 488 1577 494 1577 c 256
 528 1577 561 1534 561 1500 c 256
 561 1487 556 1475 546 1468 c 256
 486 1424 324 1335 248 1295 c 256
 242 1292 237 1291 231 1291 c 256
 214 1291 198 1303 198 1318 c 256
 198 1325 201 1332 209 1339 c 256
EndSplineSet
EndChar

StartChar: afii00208
Encoding: 65537 8213 128
Width: 4096
VWidth: 0
Flags: W
PickledData: "(dp1
S'lstem'
p2
I0
sS'com.fontlab.hintData'
p3
(dp4
S'hhints'
p5
((dp6
S'position'
p7
I656
sS'width'
p8
I142
stp9
ss."
HStem: 656 142<174 3920 174 3920>
LayerCount: 2
Fore
SplineSet
174 656 m 257
 174 798 l 257
 3920 798 l 257
 3920 656 l 257
 174 656 l 257
EndSplineSet
EndChar

StartChar: ampersand
Encoding: 6 38 131
Width: 990
VWidth: 0
Flags: W
PickledData: "(dp1
S'lstem'
p2
I0
sS'com.fontlab.hintData'
p3
(dp4
S'vhints'
p5
((dp6
S'position'
p7
I102
sS'width'
p8
I95
s(dp9
g7
I270
sg8
I93
s(dp10
g7
I516
sg8
I92
s(dp11
g7
I659
sg8
I92
stp12
sS'hhints'
p13
((dp14
g7
I18
sg8
I85
s(dp15
g7
I19
sg8
I93
s(dp16
g7
I613
sg8
I83
s(dp17
g7
I1450
sg8
I94
stp18
ss."
HStem: 18 85<327 423.5 327 429> 19 93<777 811 772 838.5> 613 83 1450 94<406 440.5>
VStem: 102 95<325.5 458.5 325.5 477> 270 93<1245 1291 1291 1396 1396 1400> 516 92<1274 1312.5> 659 92<600 609 609 609>
LayerCount: 2
Fore
SplineSet
363 1291 m 258
 363 1199 366 1108 366 1016 c 258
 366 993 l 257
 424 1065 516 1213 516 1291 c 256
 516 1334 466 1450 415 1450 c 256
 397 1450 379 1436 363 1400 c 257
 363 1291 l 258
857 722 m 257
 885 716 915 701 915 668 c 256
 915 621 846 612 808 612 c 256
 806 612 804 613 802 613 c 258
 751 613 l 257
 751 516 750 285 667 175 c 257
 701 140 747 112 797 112 c 256
 825 112 852 118 880 118 c 257
 918 87 l 257
 918 26 863 19 814 19 c 256
 740 19 675 53 616 96 c 257
 544 47 473 18 385 18 c 256
 219 18 102 202 102 354 c 256
 102 600 175 733 284 945 c 257
 283 1039 270 1132 270 1226 c 258
 270 1396 l 258
 270 1502 329 1544 398 1544 c 256
 494 1544 608 1463 608 1360 c 256
 608 1188 546 1065 442 944 c 257
 427 917 390 876 390 846 c 256
 390 734 519 318 595 238 c 257
 645 352 659 477 659 600 c 258
 659 609 l 257
 636 609 634 624 625 644 c 257
 625 696 l 257
 681 696 806 705 857 722 c 257
305 789 m 257
 230 671 197 528 197 389 c 256
 197 262 251 103 403 103 c 256
 444 103 524 128 553 158 c 257
 422 347 345 546 305 789 c 257
EndSplineSet
EndChar

StartChar: asciicircum
Encoding: 62 94 134
Width: 594
VWidth: 0
Flags: W
PickledData: "(dp1
S'lstem'
p2
I0
sS'com.fontlab.hintData'
p3
(dp4
S'vhints'
p5
((dp6
S'position'
p7
I254
sS'width'
p8
I137
stp9
sS'hhints'
p10
((dp11
g7
I1515
sg8
I141
stp12
ss."
HStem: 1515 141<308.5 337 295.5 346>
VStem: 254 137<1564.5 1593.5>
LayerCount: 2
Fore
SplineSet
254 1575 m 256
 254 1612 274 1656 317 1656 c 256
 357 1656 391 1623 391 1583 c 256
 391 1546 365 1515 327 1515 c 256
 290 1515 254 1534 254 1575 c 256
EndSplineSet
EndChar

StartChar: asciitilde
Encoding: 94 126 135
Width: 972
VWidth: 0
Flags: W
PickledData: "(dp1
S'lstem'
p2
I0
sS'com.fontlab.hintData'
p3
(dp4
S'vhints'
p5
((dp6
S'position'
p7
I158
sS'width'
p8
I647
stp9
sS'hhints'
p10
((dp11
g7
I1038
sg8
I103
s(dp12
g7
I1125
sg8
I99
stp13
ss."
HStem: 1038 103<607 678.5 607 708.5> 1125 99
VStem: 158 647<1134.5 1136>
LayerCount: 2
Fore
SplineSet
738 1223 m 256
 785 1223 805 1194 805 1170 c 256
 805 1099 744 1038 673 1038 c 256
 389 1038 365 1121 285 1125 c 257
 237 1107 286 1065 232 1046 c 257
 195 1046 158 1063 158 1105 c 256
 158 1167 211 1224 306 1224 c 256
 404 1224 565 1141 649 1141 c 256
 708 1141 678 1223 738 1223 c 256
EndSplineSet
EndChar

StartChar: asterisk
Encoding: 10 42 136
Width: 954
VWidth: 0
Flags: W
PickledData: "(dp1
S'lstem'
p2
I0
sS'com.fontlab.hintData'
p3
(dp4
S'vhints'
p5
((dp6
S'position'
p7
I531
sS'width'
p8
I130
stp9
sS'hhints'
p10
((dp11
g7
I1096
sg8
I100
s(dp12
g7
I1547
sg8
I20
stp13
ss."
HStem: 1096 100<115 131 131 147 147 358 115 372> 1547 20
VStem: 531 130<737.5 821>
LayerCount: 2
Fore
SplineSet
516 1194 m 257
 547 1190 577 1189 608 1189 c 256
 635 1189 692 1199 743 1199 c 256
 798 1199 847 1187 847 1137 c 256
 847 1096 811 1085 776 1085 c 256
 687 1085 598 1094 509 1094 c 257
 539 1015 661 819 661 752 c 256
 661 723 638 700 609 700 c 256
 552 700 533 776 531 821 c 257
 444 1011 l 257
 404 910 367 782 310 690 c 257
 261 690 l 257
 217 736 l 257
 216 745 l 257
 221 817 343 1012 372 1096 c 257
 147 1096 l 257
 131 1096 l 258
 94 1096 69 1099 69 1150 c 256
 69 1175 89 1196 115 1196 c 258
 358 1196 l 257
 331 1250 222 1455 222 1501 c 256
 222 1531 251 1547 278 1547 c 256
 334 1547 404 1307 429 1258 c 257
 449 1317 510 1567 582 1567 c 256
 611 1567 639 1542 639 1512 c 256
 639 1444 546 1268 516 1194 c 257
EndSplineSet
EndChar

StartChar: at
Encoding: 32 64 137
Width: 1260
VWidth: 0
Flags: W
PickledData: "(dp1
S'lstem'
p2
I0
sS'com.fontlab.hintData'
p3
(dp4
S'vhints'
p5
((dp6
S'position'
p7
I150
sS'width'
p8
I121
s(dp9
g7
I393
sg8
I107
s(dp10
g7
I773
sg8
I150
s(dp11
g7
I1005
sg8
I115
stp12
sS'hhints'
p13
((dp14
g7
I-120
sg8
I89
s(dp15
g7
I306
sg8
I104
s(dp16
g7
I1246
sg8
I105
s(dp17
g7
I1612
sg8
I107
stp18
ss."
HStem: -120 89<424 717 424 722> 306 104<591 667.5> 1246 105<585 686.5> 1612 107<445 775.5>
VStem: 150 121<820.5 930 930 1050 809 1109> 393 107<756 930 721 949> 773 150<556 759> 1005 115<749.5 934>
LayerCount: 2
Fore
SplineSet
565 -120 m 256
 152 -120 150 685 150 956 c 256
 150 1262 158 1719 613 1719 c 256
 1041 1719 1120 1150 1120 767 c 256
 1120 645 1116 406 944 406 c 256
 905 406 869 459 841 519 c 257
 797 398 713 306 622 306 c 256
 395 306 393 661 393 851 c 256
 393 1047 397 1351 626 1351 c 256
 894 1351 894 818 923 565 c 257
 923 556 l 257
 952 510 l 257
 1000 536 1005 723 1005 776 c 256
 1005 1092 948 1612 603 1612 c 256
 287 1612 271 1300 271 1050 c 258
 271 930 l 258
 271 688 279 -31 569 -31 c 256
 865 -31 929 150 1011 150 c 256
 1023 150 1029 142 1029 130 c 256
 1029 72 879 -120 565 -120 c 256
626 1246 m 256
 544 1246 500 1035 500 825 c 256
 500 617 544 410 638 410 c 256
 700 410 773 550 773 605 c 258
 773 759 l 258
 773 875 747 1246 626 1246 c 256
EndSplineSet
EndChar

StartChar: b
Encoding: 66 98 138
Width: 702
VWidth: 0
Flags: W
PickledData: "(dp1
S'lstem'
p2
I0
sS'com.fontlab.hintData'
p3
(dp4
S'vhints'
p5
((dp6
S'position'
p7
I182
sS'width'
p8
I116
s(dp9
g7
I200
sg8
I111
s(dp10
g7
I419
sg8
I117
s(dp11
g7
I438
sg8
I110
stp12
sS'hhints'
p13
((dp14
g7
I-20
sg8
I21
s(dp15
g7
I1363
sg8
I20
stp16
ss."
HStem: -20 21<215 356> 1363 20<238 364.5>
VStem: 182 116<65 208.5> 200 111 419 117<975.5 1044> 438 110<263.5 354>
LayerCount: 2
Fore
SplineSet
311 1068 m 258
 311 763 l 257
 413 766 419 939 419 1012 c 256
 419 1076 420 1278 335 1288 c 257
 316 1247 311 1128 311 1068 c 258
305 333 m 256
 305 278 298 231 298 186 c 256
 298 183 300 179 300 176 c 258
 300 84 l 257
 399 107 438 217 438 308 c 256
 438 400 429 619 314 643 c 257
 307 540 305 436 305 333 c 256
453 705 m 257
 542 620 548 475 548 360 c 256
 548 167 466 -20 246 -20 c 256
 184 -20 182 42 182 88 c 256
 182 234 202 378 202 524 c 256
 202 740 211 957 211 1173 c 256
 211 1208 202 1244 200 1279 c 257
 200 1290 l 258
 200 1338 209 1383 267 1383 c 256
 462 1383 536 1212 536 1028 c 256
 536 883 514 791 453 705 c 257
EndSplineSet
EndChar

StartChar: backslash
Encoding: 60 92 139
Width: 756
VWidth: 0
Flags: W
PickledData: "(dp1
S'lstem'
p2
I0
sS'com.fontlab.hintData'
p3
(dp4
S'vhints'
p5
((dp6
S'position'
p7
I142
sS'width'
p8
I441
stp9
sS'hhints'
p10
((dp11
g7
I1535
sg8
I20
stp12
ss."
HStem: 1535 20<183 256.5>
VStem: 142 441
LayerCount: 2
Fore
SplineSet
583 31 m 256
 583 6 558 -17 537 -30 c 257
 537 -31 l 257
 415 -31 221 1145 184 1312 c 256
 170 1376 142 1439 142 1505 c 256
 142 1535 169 1555 197 1555 c 256
 316 1555 583 127 583 31 c 256
EndSplineSet
EndChar

StartChar: bar
Encoding: 92 124 140
Width: 576
VWidth: 0
Flags: W
PickledData: "(dp1
S'lstem'
p2
I0
sS'com.fontlab.hintData'
p3
(dp4
S'vhints'
p5
((dp6
S'position'
p7
I236
sS'width'
p8
I103
stp9
sS'hhints'
p10
((dp11
g7
I1564
sg8
I20
stp12
ss."
HStem: 1564 20<269 306>
VStem: 236 103<98 347>
LayerCount: 2
Fore
SplineSet
236 114 m 256
 236 580 222 1045 222 1510 c 256
 222 1556 245 1584 293 1584 c 256
 319 1584 335 1556 335 1533 c 256
 335 1148 339 763 339 379 c 258
 339 -29 l 258
 339 -57 315 -80 287 -80 c 256
 235 -80 236 82 236 114 c 256
EndSplineSet
EndChar

StartChar: braceleft
Encoding: 91 123 141
Width: 774
VWidth: 0
Flags: W
PickledData: "(dp1
S'lstem'
p2
I0
sS'com.fontlab.hintData'
p3
(dp4
S'vhints'
p5
((dp6
S'position'
p7
I249
sS'width'
p8
I96
stp9
sS'hhints'
p10
((dp11
g7
I-48
sg8
I87
s(dp12
g7
I1408
sg8
I87
stp13
ss."
HStem: -48 87<396 458 396 471> 1408 87<388 454.5>
VStem: 249 96<198 621 621 622>
LayerCount: 2
Fore
SplineSet
452 -48 m 256
 287 -48 249 52 249 198 c 258
 249 621 l 258
 249 785 110 673 110 766 c 256
 110 866 249 754 249 916 c 256
 249 958 239 1054 239 1130 c 256
 239 1173 242 1209 252 1226 c 257
 249 1244 247 1262 247 1280 c 256
 247 1399 315 1495 452 1495 c 256
 486 1495 595 1482 595 1435 c 256
 595 1404 565 1389 538 1389 c 256
 503 1389 472 1408 437 1408 c 256
 339 1408 339 1222 339 1157 c 256
 339 1106 347 1024 347 947 c 256
 347 875 340 806 311 768 c 257
 343 728 345 672 345 622 c 258
 345 182 l 258
 345 118 355 39 437 39 c 256
 479 39 516 62 558 62 c 256
 570 62 575 25 575 16 c 256
 575 -36 490 -48 452 -48 c 256
EndSplineSet
EndChar

StartChar: braceright
Encoding: 93 125 142
Width: 774
VWidth: 0
Flags: W
PickledData: "(dp1
S'lstem'
p2
I0
sS'com.fontlab.hintData'
p3
(dp4
S'vhints'
p5
((dp6
S'position'
p7
I428
sS'width'
p8
I100
stp9
sS'hhints'
p10
((dp11
g7
I-48
sg8
I87
s(dp12
g7
I1408
sg8
I87
stp13
ss."
HStem: -48 87<322.5 388.5 322.5 393.5> 1408 87<319 381>
VStem: 428 100<559.5 574.5>
LayerCount: 2
Fore
SplineSet
325 1495 m 256
 488 1495 526 1394 527 1249 c 258
 528 876 l 258
 528 712 657 821 657 731 c 256
 657 630 528 745 528 581 c 256
 528 538 536 421 536 330 c 256
 536 279 534 236 525 221 c 257
 528 202 529 184 529 166 c 256
 529 47 462 -48 325 -48 c 256
 291 -48 182 -35 182 12 c 256
 182 43 212 58 239 58 c 256
 274 58 305 39 340 39 c 256
 437 39 438 224 438 289 c 256
 438 346 428 443 428 534 c 256
 428 615 436 691 466 729 c 257
 434 770 429 825 429 875 c 256
 429 915 439 1021 439 1127 c 256
 439 1267 422 1408 340 1408 c 256
 298 1408 261 1385 219 1385 c 256
 207 1385 202 1422 202 1431 c 256
 202 1483 287 1495 325 1495 c 256
EndSplineSet
EndChar

StartChar: bracketleft
Encoding: 59 91 143
Width: 702
VWidth: 0
Flags: W
PickledData: "(dp1
S'lstem'
p2
I0
sS'com.fontlab.hintData'
p3
(dp4
S'vhints'
p5
((dp6
S'position'
p7
I166
sS'width'
p8
I110
s(dp9
g7
I262
sg8
I94
stp10
sS'hhints'
p11
((dp12
g7
I-112
sg8
I118
s(dp13
g7
I1478
sg8
I99
stp14
ss."
HStem: -112 118<276 426.5> 1478 99<387.5 400 301 413.5>
VStem: 166 110<6 48 6 49.5> 262 94<1311 1468 1222.5 1487.5>
LayerCount: 2
Fore
SplineSet
276 48 m 258
 276 6 l 257
 297 6 l 258
 361 6 479 2 479 -68 c 256
 479 -103 440 -112 413 -112 c 256
 362 -112 166 -108 166 -35 c 256
 166 134 209 301 209 470 c 256
 209 808 262 1142 262 1480 c 256
 262 1495 260 1508 260 1519 c 256
 260 1548 267 1563 301 1577 c 257
 379 1577 l 258
 421 1577 565 1572 565 1511 c 256
 565 1481 535 1465 509 1465 c 256
 470 1465 433 1478 394 1478 c 256
 381 1478 356 1478 356 1458 c 256
 356 987 276 502 276 48 c 258
EndSplineSet
EndChar

StartChar: bracketright
Encoding: 61 93 144
Width: 828
VWidth: 0
Flags: W
PickledData: "(dp1
S'lstem'
p2
I0
sS'com.fontlab.hintData'
p3
(dp4
S'vhints'
p5
((dp6
S'position'
p7
I462
sS'width'
p8
I96
s(dp9
g7
I543
sg8
I112
stp10
sS'hhints'
p11
((dp12
g7
I-112
sg8
I118
s(dp13
g7
I1465
sg8
I112
stp14
ss."
HStem: -112 118<392.5 543> 1465 112<312.5 455>
VStem: 462 96<1458 1476 1476 1476> 543 112<6 48 48 48>
LayerCount: 2
Fore
SplineSet
407 -112 m 256
 378 -112 340 -103 340 -68 c 256
 340 11 491 5 543 6 c 257
 543 48 l 257
 530 519 462 986 462 1458 c 258
 462 1476 l 257
 417 1475 373 1465 328 1465 c 256
 297 1465 254 1471 254 1511 c 256
 254 1573 404 1577 447 1577 c 256
 463 1577 477 1578 489 1578 c 256
 538 1578 558 1569 558 1481 c 256
 558 1156 614 835 614 510 c 256
 614 327 655 148 655 -35 c 256
 655 -108 458 -112 407 -112 c 256
EndSplineSet
EndChar

StartChar: brokenbar
Encoding: 101 166 146
Width: 576
VWidth: 0
Flags: W
PickledData: "(dp1
S'lstem'
p2
I0
sS'com.fontlab.hintData'
p3
(dp4
S'vhints'
p5
((dp6
S'position'
p7
I222
sS'width'
p8
I116
stp9
sS'hhints'
p10
((dp11
g7
I1564
sg8
I20
stp12
ss."
HStem: 1564 20<269 312>
VStem: 222 116<1429 1437>
LayerCount: 2
Fore
SplineSet
230 1020 m 256
 230 1183 222 1348 222 1510 c 256
 222 1556 245 1584 293 1584 c 256
 331 1584 338 1481 338 1393 c 256
 338 1346 336 1304 336 1285 c 258
 333 877 l 258
 333 849 309 826 281 826 c 256
 229 826 230 988 230 1020 c 256
275 695 m 256
 321 695 336 662 336 621 c 258
 338 -16 l 258
 338 -50 326 -80 287 -80 c 256
 259 -80 235 -57 235 -29 c 258
 232 339 l 257
 233 644 l 258
 233 668 249 695 275 695 c 256
EndSplineSet
EndChar

StartChar: bullet
Encoding: 454 8226 147
Width: 774
VWidth: 0
Flags: W
PickledData: "(dp1
S'lstem'
p2
I0
sS'com.fontlab.hintData'
p3
(dp4
S'vhints'
p5
((dp6
S'position'
p7
I166
sS'width'
p8
I432
stp9
sS'hhints'
p10
((dp11
g7
I485
sg8
I526
stp12
ss."
HStem: 485 526<347 457 347 466>
VStem: 166 432<736.5 770.5>
LayerCount: 2
Fore
SplineSet
166 727 m 256
 166 814 205 878 235 920 c 257
 248 947 332 1011 362 1011 c 256
 552 1011 598 866 598 779 c 256
 598 694 561 485 371 485 c 256
 257 485 167 595 167 665 c 256
 167 687 166 705 166 727 c 256
EndSplineSet
EndChar

StartChar: c
Encoding: 67 99 148
Width: 774
VWidth: 0
Flags: W
PickledData: "(dp1
S'lstem'
p2
I0
sS'com.fontlab.hintData'
p3
(dp4
S'vhints'
p5
((dp6
S'position'
p7
I174
sS'width'
p8
I131
stp9
sS'hhints'
p10
((dp11
g7
I-29
sg8
I108
s(dp12
g7
I1258
sg8
I106
stp13
ss."
HStem: -29 108<450.5 498 399 513.5> 1258 106<387 447 447 543>
VStem: 174 131<615 817 751 817 817 827 751 834.5>
LayerCount: 2
Fore
SplineSet
524 1364 m 256
 569 1364 587 1338 587 1312 c 256
 587 1286 569 1260 543 1258 c 257
 447 1258 l 258
 327 1258 305 913 305 827 c 258
 305 817 l 258
 305 685 296 554 296 422 c 256
 296 286 308 79 490 79 c 256
 506 79 522 86 534 97 c 257
 562 97 596 85 596 52 c 256
 596 -9 544 -29 483 -29 c 256
 418 -29 342 -6 311 14 c 256
 183 97 175 359 175 495 c 256
 175 527 174 569 174 615 c 258
 174 664 l 258
 174 1005 182 1364 524 1364 c 256
EndSplineSet
EndChar

StartChar: caron
Encoding: 399 711 150
Width: 702
VWidth: 0
Flags: W
PickledData: "(dp1
S'lstem'
p2
I0
sS'com.fontlab.hintData'
p3
(dp4
S'vhints'
p5
((dp6
S'position'
p7
I190
sS'width'
p8
I310
stp9
sS'hhints'
p10
((dp11
g7
I928
sg8
I428
s(dp12
g7
I1336
sg8
I20
stp13
ss."
HStem: 928 428<226.5 394.5> 1336 20<226.5 265.5>
VStem: 190 310<1315 1328>
LayerCount: 2
Fore
SplineSet
190 1317 m 256
 190 1339 214 1356 239 1356 c 256
 292 1356 348 1105 367 1051 c 257
 384 1148 387 1363 457 1363 c 256
 480 1363 500 1347 500 1320 c 256
 500 1310 487 1298 485 1289 c 257
 485 1252 l 258
 485 1240 427 1050 427 994 c 256
 427 960 414 928 375 928 c 256
 316 928 190 1253 190 1317 c 256
EndSplineSet
EndChar

StartChar: breve
Encoding: 401 728 156
Width: 680
VWidth: 0
Flags: W
PickledData: "(dp1
S'lstem'
p2
I0
sS'com.fontlab.hintData'
p3
(dp4
S'vhints'
p5
((dp6
S'position'
p7
I45
sS'width'
p8
I108
stp9
sS'hhints'
p10
((dp11
g7
I122
sg8
I95
stp12
ss."
HStem: 891 47
VStem: 344 68
LayerCount: 2
Fore
SplineSet
187 1210 m 257
 209 1228 l 257
 244 1226 222 1107 281 1064 c 258
 303 1048 l 257
 354 1048 l 258
 393 1048 424 1119 424 1152 c 256
 424 1162 422 1171 422 1181 c 256
 422 1201 428 1220 459 1220 c 256
 473 1220 490 1207 490 1191 c 256
 490 1183 481 1167 479 1159 c 257
 484 1144 l 257
 449 1070 436 1001 336 1001 c 256
 221 1001 187 1116 187 1210 c 257
EndSplineSet
EndChar

StartChar: circumflex
Encoding: 398 710 157
Width: 702
VWidth: 0
Flags: W
PickledData: "(dp1
S'lstem'
p2
I0
sS'com.fontlab.hintData'
p3
(dp4
S'vhints'
p5
((dp6
S'position'
p7
I182
sS'width'
p8
I337
stp9
sS'hhints'
p10
((dp11
g7
I903
sg8
I416
stp12
ss."
HStem: 903 416<345.5 482.5>
VStem: 182 337<943.5 948.5 931 960>
LayerCount: 2
Fore
SplineSet
263 931 m 258
 259 922 248 917 234 917 c 256
 211 917 182 930 182 957 c 256
 182 963 183 969 186 976 c 256
 293 1232 308 1319 383 1319 c 256
 435 1319 469 1126 516 964 c 256
 518 957 519 951 519 946 c 256
 519 916 493 903 472 903 c 256
 459 903 449 908 446 917 c 258
 366 1193 l 257
 263 931 l 258
EndSplineSet
EndChar

StartChar: colon
Encoding: 26 58 158
Width: 612
VWidth: 0
Flags: W
PickledData: "(dp1
S'lstem'
p2
I0
sS'com.fontlab.hintData'
p3
(dp4
S'vhints'
p5
((dp6
S'position'
p7
I214
sS'width'
p8
I149
s(dp9
g7
I235
sg8
I149
stp10
sS'hhints'
p11
((dp12
g7
I177
sg8
I152
s(dp13
g7
I951
sg8
I152
stp14
ss."
HStem: 177 152<270.5 305.5> 951 152<290.5 325.5>
VStem: 214 149<231.5 270.5> 235 149<1005.5 1044>
LayerCount: 2
Fore
SplineSet
214 250 m 256
 214 291 250 329 291 329 c 256
 330 329 363 290 363 252 c 256
 363 206 328 177 283 177 c 256
 245 177 214 213 214 250 c 256
235 1024 m 256
 235 1064 270 1103 311 1103 c 256
 350 1103 384 1064 384 1026 c 256
 384 979 348 951 303 951 c 256
 265 951 235 987 235 1024 c 256
EndSplineSet
EndChar

StartChar: comma
Encoding: 12 44 159
Width: 702
VWidth: 0
Flags: W
PickledData: "(dp1
S'lstem'
p2
I0
sS'com.fontlab.hintData'
p3
(dp4
S'vhints'
p5
((dp6
S'position'
p7
I254
sS'width'
p8
I242
stp9
sS'hhints'
p10
((dp11
g7
I-202
sg8
I387
stp12
ss."
HStem: -202 387<276 450>
VStem: 254 242<-183.5 109>
LayerCount: 2
Fore
SplineSet
425 185 m 256
 475 185 496 141 496 77 c 256
 496 -15 389 -202 284 -202 c 256
 268 -202 254 -192 254 -175 c 256
 254 -163 260 -146 279 -130 c 257
 359 -36 326 185 425 185 c 256
EndSplineSet
EndChar

StartChar: currency
Encoding: 99 164 161
Width: 1008
VWidth: 0
Flags: W
PickledData: "(dp1
S'lstem'
p2
I0
sS'com.fontlab.hintData'
p3
(dp4
S'vhints'
p5
((dp6
S'position'
p7
I180
sS'width'
p8
I110
s(dp9
g7
I721
sg8
I119
stp10
sS'hhints'
p11
((dp12
g7
I205
sg8
I100
s(dp13
g7
I1181
sg8
I104
stp14
ss."
HStem: 205 100<455.5 501.5> 1181 104<472 480.5 420 507>
VStem: 180 110<556 599.5 556 629.5> 721 119<709.5 809.5>
LayerCount: 2
Fore
SplineSet
722 251 m 257
 722 248 l 257
 697 293 l 257
 632 235 545 205 458 205 c 256
 389 205 324 243 276 290 c 257
 259 253 239 201 190 201 c 256
 146 201 126 236 126 276 c 256
 126 315 191 360 212 392 c 257
 183 446 180 507 180 567 c 256
 180 692 184 977 252 1078 c 257
 229 1119 155 1160 155 1209 c 256
 155 1235 178 1255 203 1255 c 256
 255 1255 284 1209 311 1172 c 257
 338 1202 399 1285 441 1285 c 256
 520 1285 597 1259 663 1216 c 257
 697 1260 724 1351 792 1351 c 258
 802 1351 l 257
 845 1304 l 257
 841 1241 750 1165 750 1141 c 256
 750 1019 840 902 840 772 c 256
 840 643 773 525 773 396 c 256
 773 335 850 308 850 247 c 256
 850 219 828 195 800 195 c 256
 765 195 726 212 722 251 c 257
290 696 m 257
 293 696 l 257
 294 687 295 678 295 669 c 256
 295 641 290 614 290 585 c 256
 290 527 297 462 344 421 c 257
 344 332 417 305 494 305 c 256
 684 305 721 640 721 779 c 256
 721 840 696 1027 660 1071 c 257
 631 1077 611 1103 608 1132 c 257
 578 1165 529 1181 485 1181 c 256
 459 1181 394 1121 378 1100 c 257
 393 1086 l 257
 393 1055 387 1009 346 1009 c 256
 321 1009 290 774 290 696 c 257
EndSplineSet
EndChar

StartChar: d
Encoding: 68 100 162
Width: 846
VWidth: 0
Flags: W
PickledData: "(dp1
S'lstem'
p2
I0
sS'com.fontlab.hintData'
p3
(dp4
S'vhints'
p5
((dp6
S'position'
p7
I184
sS'width'
p8
I143
s(dp9
g7
I190
sg8
I106
s(dp10
g7
I549
sg8
I104
stp11
sS'hhints'
p12
((dp13
g7
I-12
sg8
I104
s(dp14
g7
I1333
sg8
I20
stp15
ss."
HStem: -12 104<211 429 327 384> 1333 20<221 363>
VStem: 184 143<92 363.5> 190 106<894 964> 549 104<546 592 592 698>
LayerCount: 2
Fore
SplineSet
166 1286 m 256
 166 1322 204 1353 238 1353 c 256
 488 1353 657 1054 657 808 c 256
 657 778 653 741 653 705 c 258
 653 592 l 258
 653 340 637 119 384 -12 c 257
 236 -12 l 258
 186 -12 184 190 184 256 c 256
 184 471 190 686 190 901 c 256
 190 1027 166 1184 166 1286 c 256
327 141 m 258
 327 92 l 257
 531 92 549 480 549 612 c 256
 549 784 543 1231 311 1258 c 257
 298 1188 296 1116 296 1045 c 256
 296 743 327 443 327 141 c 258
EndSplineSet
EndChar

StartChar: dagger
Encoding: 452 8224 163
Width: 900
VWidth: 0
Flags: W
PickledData: "(dp1
S'lstem'
p2
I0
sS'com.fontlab.hintData'
p3
(dp4
S'vhints'
p5
((dp6
S'position'
p7
I359
sS'width'
p8
I127
s(dp9
g7
I385
sg8
I133
stp10
sS'hhints'
p11
((dp12
g7
I590
sg8
I118
stp13
ss."
HStem: 590 118<221.5 224 189.5 265>
VStem: 359 127<584 597 463.5 599 463.5 599> 385 133<-60 24>
LayerCount: 2
Fore
SplineSet
372 385 m 256
 372 451 359 518 359 584 c 258
 359 599 l 257
 331 599 285 590 245 590 c 256
 198 590 158 602 158 655 c 256
 158 682 175 708 204 708 c 256
 244 708 285 701 325 701 c 256
 341 701 356 702 372 705 c 257
 370 755 360 805 360 855 c 256
 360 900 367 968 426 968 c 256
 458 968 478 942 478 909 c 258
 478 884 l 258
 478 853 478 701 484 701 c 256
 513 701 570 709 624 709 c 256
 679 709 730 697 730 647 c 256
 730 615 704 591 672 591 c 256
 631 591 592 602 551 602 c 256
 517 602 486 598 486 596 c 256
 486 331 518 173 518 -42 c 256
 518 -78 483 -98 451 -98 c 256
 422 -98 385 -79 385 -46 c 256
 385 94 372 241 372 385 c 256
EndSplineSet
EndChar

StartChar: daggerdbl
Encoding: 453 8225 164
Width: 900
VWidth: 0
Flags: W
PickledData: "(dp1
S'lstem'
p2
I0
sS'com.fontlab.hintData'
p3
(dp4
S'vhints'
p5
((dp6
S'position'
p7
I372
sS'width'
p8
I114
s(dp9
g7
I385
sg8
I133
stp10
sS'hhints'
p11
((dp12
g7
I171
sg8
I99
s(dp13
g7
I602
sg8
I99
stp14
ss."
HStem: 171 99 602 99
VStem: 372 114 385 133<-60 -13>
LayerCount: 2
Fore
SplineSet
372 385 m 256
 372 451 359 518 359 584 c 258
 359 599 l 257
 331 599 285 590 245 590 c 256
 198 590 158 602 158 655 c 256
 158 682 175 708 204 708 c 256
 244 708 285 701 325 701 c 256
 341 701 356 702 372 705 c 257
 370 755 360 805 360 855 c 256
 360 900 367 968 426 968 c 256
 458 968 478 942 478 909 c 258
 478 884 l 257
 479 853 478 701 505 701 c 256
 530 701 578 709 624 709 c 256
 679 709 730 697 730 647 c 256
 730 615 704 591 672 591 c 256
 631 591 592 602 551 602 c 256
 517 602 486 598 486 596 c 256
 486 546 502 270 518 270 c 256
 543 270 591 278 637 278 c 256
 692 278 743 266 743 216 c 256
 743 184 717 160 685 160 c 256
 644 160 605 171 564 171 c 256
 530 171 499 169 499 162 c 256
 499 94 518 26 518 -42 c 256
 518 -78 483 -98 451 -98 c 256
 422 -98 385 -79 385 -46 c 256
 385 20 372 87 372 153 c 258
 372 168 l 257
 344 168 298 159 258 159 c 256
 211 159 171 171 171 224 c 256
 171 251 188 277 217 277 c 256
 257 277 298 270 338 270 c 256
 354 270 369 271 385 274 c 257
 384 310 372 352 372 385 c 256
EndSplineSet
EndChar

StartChar: dcroat
Encoding: 208 273 166
Width: 882
VWidth: 0
Flags: W
PickledData: "(dp1
S'lstem'
p2
I0
sS'com.fontlab.hintData'
p3
(dp4
S'vhints'
p5
((dp6
S'position'
p7
I226
sS'width'
p8
I143
s(dp9
g7
I232
sg8
I106
s(dp10
g7
I591
sg8
I104
stp11
sS'hhints'
p12
((dp13
g7
I-12
sg8
I104
s(dp14
g7
I673
sg8
I78
s(dp15
g7
I1333
sg8
I20
stp16
ss."
HStem: -12 104<253 471 369 426> 673 78 1333 20<263 405>
VStem: 226 143<92 256.5> 232 106<888 1080.5> 591 104<546 592 592 698>
LayerCount: 2
Fore
SplineSet
232 901 m 256
 232 1027 208 1184 208 1286 c 256
 208 1322 246 1353 280 1353 c 256
 530 1353 699 1054 699 808 c 256
 699 778 695 741 695 705 c 258
 695 592 l 258
 695 340 679 119 426 -12 c 257
 278 -12 l 258
 228 -12 226 190 226 256 c 256
 226 257 228 534 230 673 c 257
 156 676 94 685 94 707 c 256
 94 748 155 751 184 751 c 256
 227 751 236 782 236 820 c 256
 236 846 232 875 232 901 c 256
346 755 m 257
 415 754 486 743 486 701 c 256
 486 680 450 676 420 676 c 256
 410 676 382 673 349 672 c 257
 358 495 369 318 369 141 c 258
 369 92 l 257
 573 92 591 480 591 612 c 256
 591 784 585 1231 353 1258 c 257
 340 1188 338 1116 338 1045 c 256
 338 948 342 852 346 755 c 257
EndSplineSet
EndChar

StartChar: degree
Encoding: 111 176 167
Width: 882
VWidth: 0
Flags: W
PickledData: "(dp1
S'lstem'
p2
I0
sS'com.fontlab.hintData'
p3
(dp4
S'vhints'
p5
((dp6
S'position'
p7
I174
sS'width'
p8
I77
s(dp9
g7
I632
sg8
I68
stp10
sS'hhints'
p11
((dp12
g7
I438
sg8
I77
s(dp13
g7
I901
sg8
I69
stp14
ss."
HStem: 438 77<370 506 370 529.5> 901 69<351 503>
VStem: 174 77<674 719 636 799> 632 68<698.5 760.5>
LayerCount: 2
Fore
SplineSet
174 731 m 256
 174 867 265 970 406 970 c 256
 643 970 700 821 700 733 c 256
 700 649 652 438 407 438 c 256
 216 438 174 617 174 731 c 256
416 901 m 256
 286 901 251 773 251 665 c 256
 251 607 325 515 415 515 c 256
 597 515 632 668 632 729 c 256
 632 792 590 901 416 901 c 256
EndSplineSet
EndChar

StartChar: dieresis
Encoding: -1 168 168
Width: 920
VWidth: 0
Flags: HW
PickledData: "(dp1
S'lstem'
p2
I0
sS'com.fontlab.hintData'
p3
(dp4
S'vhints'
p5
((dp6
S'position'
p7
I160
sS'width'
p8
I310
s(dp9
g7
I191
sg8
I100
s(dp10
g7
I436
sg8
I100
stp11
sS'hhints'
p12
((dp13
g7
I-23
sg8
I94
s(dp14
g7
I1261
sg8
I120
s(dp15
g7
I1503
sg8
I428
s(dp16
g7
I1911
sg8
I20
stp17
ss."
HStem: -23 94 1261 120 1503 428 1911 20
VStem: 160 310 191 100 436 100
LayerCount: 2
Fore
SplineSet
639 1134 m 256
 639 1159 664 1185 689 1185 c 256
 712 1185 734 1156 734 1136 c 256
 734 1103 711 1089 680 1089 c 256
 657 1089 639 1114 639 1134 c 256
179 1132 m 256
 179 1155 203 1183 228 1183 c 256
 261 1183 269 1141 269 1116 c 256
 269 1091 238 1081 218 1081 c 256
 193 1081 179 1112 179 1132 c 256
EndSplineSet
EndChar

StartChar: divide
Encoding: 182 247 169
Width: 900
VWidth: 0
Flags: W
PickledData: "(dp1
S'lstem'
p2
I0
sS'com.fontlab.hintData'
p3
(dp4
S'vhints'
p5
((dp6
S'position'
p7
I371
sS'width'
p8
I141
stp9
sS'hhints'
p10
((dp11
g7
I369
sg8
I141
s(dp12
g7
I590
sg8
I111
s(dp13
g7
I789
sg8
I141
stp14
ss."
HStem: 369 141<425 461 420.5 463> 590 111<217.5 311.5> 789 141<423.5 460.5>
VStem: 371 141<418.5 447.5 408.5 458>
LayerCount: 2
Fore
SplineSet
512 428 m 256
 512 389 481 369 445 369 c 256
 405 369 371 398 371 439 c 256
 371 477 401 510 440 510 c 256
 482 510 512 467 512 428 c 256
443 789 m 256
 404 789 368 823 368 862 c 256
 368 899 405 930 441 930 c 256
 483 930 512 893 512 853 c 256
 512 817 478 789 443 789 c 256
158 655 m 256
 158 683 176 701 204 701 c 258
 505 701 l 258
 547 701 589 708 631 708 c 256
 673 708 730 701 730 647 c 256
 730 613 702 600 672 600 c 256
 528 600 383 590 240 590 c 256
 195 590 158 604 158 655 c 256
EndSplineSet
EndChar

StartChar: dollar
Encoding: 4 36 170
Width: 846
VWidth: 0
Flags: W
PickledData: "(dp1
S'lstem'
p2
I0
sS'com.fontlab.hintData'
p3
(dp4
S'vhints'
p5
((dp6
S'position'
p7
I166
sS'width'
p8
I99
s(dp9
g7
I367
sg8
I72
s(dp10
g7
I392
sg8
I88
s(dp11
g7
I421
sg8
I95
s(dp12
g7
I586
sg8
I94
stp13
sS'hhints'
p14
((dp15
g7
I-45
sg8
I93
s(dp16
g7
I1471
sg8
I103
stp17
ss."
HStem: -45 93<364 386 364 386.5> 1471 103<489.5 588>
VStem: 166 99<1197.5 1283 1197.5 1297.5> 367 72<1559 1627> 392 88 421 95<-189.5 -179 -179 -179> 586 94<318 399>
LayerCount: 2
Fore
SplineSet
369 1535 m 257
 368 1562 367 1584 367 1608 c 256
 367 1646 379 1662 394 1662 c 256
 414 1662 439 1632 439 1586 c 258
 439 1559 l 257
 477 1568 518 1574 564 1574 c 256
 612 1574 666 1545 685 1500 c 257
 650 1456 l 257
 605 1456 552 1471 499 1471 c 256
 480 1471 461 1469 443 1464 c 257
 472 822 l 257
 576 685 680 540 680 342 c 256
 680 218 632 59 516 -10 c 257
 516 -155 l 257
 516 -165 l 258
 516 -214 501 -258 457 -258 c 256
 423 -258 421 -222 421 -195 c 258
 421 -179 l 257
 421 -179 420 -128 417 -43 c 257
 405 -45 393 -45 380 -45 c 256
 340 -45 221 -31 221 24 c 256
 221 52 235 79 267 79 c 256
 311 79 348 48 380 48 c 256
 392 48 403 49 414 52 c 257
 408 236 400 506 392 774 c 257
 282 924 166 1073 166 1245 c 256
 166 1350 233 1473 369 1535 c 257
387 937 m 257
 381 1122 376 1298 372 1433 c 257
 296 1385 265 1308 265 1258 c 256
 265 1137 319 1035 387 937 c 257
504 113 m 257
 561 183 586 291 586 345 c 256
 586 453 541 551 480 647 c 257
 504 113 l 257
EndSplineSet
EndChar

StartChar: e
Encoding: 69 101 173
Width: 720
VWidth: 0
Flags: W
PickledData: "(dp1
S'lstem'
p2
I0
sS'com.fontlab.hintData'
p3
(dp4
S'vhints'
p5
((dp6
S'position'
p7
I190
sS'width'
p8
I122
s(dp9
g7
I193
sg8
I331
stp10
sS'hhints'
p11
((dp12
g7
I-27
sg8
I104
s(dp13
g7
I718
sg8
I107
stp14
ss."
HStem: -27 104<257 324 306.5 324 306.5 448> 718 107<306 406.5 306 406.5>
VStem: 190 122<501.5 535.5> 193 331<1178 1292>
LayerCount: 2
Fore
SplineSet
524 1261 m 256
 524 1229 491 1207 464 1197 c 257
 414 1214 362 1230 309 1236 c 257
 311 1207 312 1177 312 1148 c 256
 312 1050 303 952 303 854 c 256
 303 844 307 832 309 822 c 257
 326 822 354 825 382 825 c 256
 431 825 481 816 481 769 c 256
 481 742 457 714 416 714 c 256
 396 714 374 716 358 718 c 257
 306 718 l 257
 310 666 312 615 312 563 c 256
 312 440 303 315 303 192 c 256
 303 139 306 77 307 77 c 256
 341 77 400 82 458 82 c 256
 498 82 536 73 536 32 c 256
 536 -13 485 -27 448 -27 c 258
 275 -27 l 258
 239 -27 205 1 203 36 c 257
 203 90 l 258
 203 117 200 145 200 174 c 256
 200 261 190 349 190 436 c 256
 190 635 204 835 204 1034 c 256
 204 1092 193 1149 193 1207 c 256
 193 1266 202 1352 279 1352 c 256
 321 1352 524 1323 524 1261 c 256
EndSplineSet
EndChar

StartChar: eight
Encoding: 24 56 180
Width: 738
VWidth: 0
Flags: W
PickledData: "(dp1
S'lstem'
p2
I0
sS'com.fontlab.hintData'
p3
(dp4
S'vhints'
p5
((dp6
S'position'
p7
I158
sS'width'
p8
I100
s(dp9
g7
I203
sg8
I95
s(dp10
g7
I380
sg8
I91
s(dp11
g7
I467
sg8
I92
stp12
sS'hhints'
p13
((dp14
g7
I-82
sg8
I88
s(dp15
g7
I1515
sg8
I92
stp16
ss."
HStem: -82 88<353.5 406 353.5 413> 1515 92<300 307 286 343>
VStem: 158 100<1365 1431 1365 1465.5> 203 95<169.5 188 188 190 169.5 309.5> 380 91<1260.5 1327> 467 92<60 244>
LayerCount: 2
Fore
SplineSet
562 90 m 256
 562 80 560 71 559 61 c 258
 559 60 l 257
 522 -24 461 -82 365 -82 c 256
 235 -82 203 98 203 198 c 256
 203 421 299 672 299 863 c 256
 299 1040 158 1225 158 1421 c 256
 158 1510 197 1607 300 1607 c 258
 343 1607 l 257
 468 1530 471 1466 471 1313 c 256
 471 1160 433 1010 399 862 c 257
 490 651 561 349 561 119 c 256
 561 109 562 99 562 90 c 256
298 190 m 258
 298 188 l 258
 298 151 308 115 324 81 c 257
 324 71 l 257
 326 50 340 6 367 6 c 256
 445 6 467 74 467 140 c 256
 467 348 413 552 356 750 c 257
 311 604 298 345 298 190 c 258
307 1515 m 257
 286 1515 l 257
 286 1516 l 257
 261 1488 258 1449 258 1413 c 256
 258 1317 304 1101 335 1007 c 257
 363 1106 380 1209 380 1312 c 256
 380 1342 364 1516 329 1516 c 257
 307 1515 l 257
EndSplineSet
EndChar

StartChar: ellipsis
Encoding: 455 8230 181
Width: 1098
VWidth: 0
Flags: W
PickledData: "(dp1
S'lstem'
p2
I0
sS'com.fontlab.hintData'
p3
(dp4
S'vhints'
p5
((dp6
S'position'
p7
I174
sS'width'
p8
I150
s(dp9
g7
I469
sg8
I150
s(dp10
g7
I764
sg8
I150
stp11
sS'hhints'
p12
((dp13
g7
I-32
sg8
I152
stp14
ss."
HStem: -32 152<230.5 265.5 525.5 560.5 820.5 855.5>
VStem: 174 150<22.5 61.5> 469 150<22.5 61.5> 764 150<22.5 61.5>
LayerCount: 2
Fore
SplineSet
764 41 m 256
 764 82 800 120 841 120 c 256
 880 120 914 81 914 43 c 256
 914 -4 878 -32 833 -32 c 256
 795 -32 764 4 764 41 c 256
469 41 m 256
 469 82 505 120 546 120 c 256
 585 120 619 81 619 43 c 256
 619 -4 583 -32 538 -32 c 256
 500 -32 469 4 469 41 c 256
174 41 m 256
 174 82 210 120 251 120 c 256
 290 120 324 81 324 43 c 256
 324 -4 288 -32 243 -32 c 256
 205 -32 174 4 174 41 c 256
EndSplineSet
EndChar

StartChar: emdash
Encoding: 445 8212 183
Width: 1116
VWidth: 0
Flags: W
PickledData: "(dp1
S'lstem'
p2
I0
sS'com.fontlab.hintData'
p3
(dp4
S'hhints'
p5
((dp6
S'position'
p7
I673
sS'width'
p8
I109
stp9
ss."
HStem: 673 109<807.5 832.5 743 887.5>
LayerCount: 2
Fore
SplineSet
625 779 m 258
 647 779 709 782 777 782 c 256
 888 782 1016 773 1016 725 c 256
 1016 683 931 673 844 673 c 256
 771 673 698 680 671 680 c 258
 303 677 l 258
 285 677 256 674 225 674 c 256
 166 674 102 683 102 733 c 256
 102 761 120 779 148 779 c 258
 625 779 l 258
EndSplineSet
EndChar

StartChar: endash
Encoding: 444 8211 184
Width: 972
VWidth: 0
Flags: W
PickledData: "(dp1
S'lstem'
p2
I0
sS'com.fontlab.hintData'
p3
(dp4
S'hhints'
p5
((dp6
S'position'
p7
I636
sS'width'
p8
I105
stp9
ss."
HStem: 636 105<511 801>
LayerCount: 2
Fore
SplineSet
359 737 m 258
 388 737 468 741 554 741 c 256
 687 741 835 731 835 683 c 256
 835 654 815 636 787 636 c 256
 599 636 412 646 224 646 c 256
 193 646 142 649 142 691 c 256
 142 719 160 737 188 737 c 258
 359 737 l 258
EndSplineSet
EndChar

StartChar: eng
Encoding: 266 331 185
Width: 1062
VWidth: 0
Flags: W
PickledData: "(dp1
S'lstem'
p2
I0
sS'com.fontlab.hintData'
p3
(dp4
S'vhints'
p5
((dp6
S'position'
p7
I182
sS'width'
p8
I112
s(dp9
g7
I762
sg8
I106
stp10
sS'hhints'
p11
((dp12
g7
I1342
sg8
I20
s(dp13
g7
I1342
sg8
I12
stp14
ss."
HStem: 1342 20<269 269> 1342 12
VStem: 182 112<712 892.5> 762 106<1109 1236>
LayerCount: 2
Fore
SplineSet
721 189 m 257
 754 534 762 881 762 1228 c 256
 762 1244 759 1264 759 1283 c 256
 759 1315 767 1344 810 1344 c 256
 852 1344 868 1302 868 1264 c 258
 868 1109 l 257
 866 636 889 -512 573 -512 c 256
 533 -512 499 -493 499 -449 c 256
 499 -350 656 -454 681 -237 c 256
 690 -159 689 -80 697 -1 c 257
 638 136 348 1021 294 1145 c 257
 294 114 l 257
 301 99 315 83 315 66 c 256
 315 32 287 2 253 2 c 256
 194 2 186 84 186 127 c 256
 186 361 182 595 182 829 c 256
 182 956 194 1084 194 1211 c 256
 194 1274 215 1322 269 1362 c 257
 269 1349 l 257
 274 1352 279 1354 284 1354 c 256
 424 1354 666 324 721 189 c 257
EndSplineSet
EndChar

StartChar: equal
Encoding: 29 61 187
Width: 882
VWidth: 0
Flags: W
PickledData: "(dp1
S'lstem'
p2
I0
sS'com.fontlab.hintData'
p3
(dp4
S'vhints'
p5
((dp6
S'position'
p7
I158
sS'width'
p8
I572
stp9
sS'hhints'
p10
((dp11
g7
I579
sg8
I101
s(dp12
g7
I764
sg8
I108
stp13
ss."
HStem: 579 101<204 686> 764 108<474.5 565>
VStem: 158 572<613 842 801 840>
LayerCount: 2
Fore
SplineSet
571 872 m 258
 640 872 730 866 730 818 c 256
 730 774 616 764 514 764 c 256
 435 764 362 770 359 770 c 256
 341 770 311 767 281 767 c 256
 222 767 158 776 158 826 c 256
 158 854 176 872 204 872 c 258
 571 872 l 258
511 680 m 258
 609 680 720 674 720 626 c 256
 720 597 700 579 672 579 c 256
 528 579 384 589 240 589 c 256
 209 589 158 592 158 634 c 256
 158 662 176 680 204 680 c 258
 511 680 l 258
EndSplineSet
EndChar

StartChar: exclam
Encoding: 1 33 188
Width: 594
VWidth: 0
Flags: W
PickledData: "(dp1
S'lstem'
p2
I0
sS'com.fontlab.hintData'
p3
(dp4
S'vhints'
p5
((dp6
S'position'
p7
I198
sS'width'
p8
I169
s(dp9
g7
I245
sg8
I137
s(dp10
g7
I247
sg8
I94
stp11
sS'hhints'
p12
((dp13
g7
I-46
sg8
I171
s(dp14
g7
I1552
sg8
I20
stp15
ss."
HStem: -46 171<259 294> 1552 20<311 346>
VStem: 198 169<6.5 51.5 -0.5 55.5> 245 137<1381 1515> 247 94<428.5 462 397 539>
LayerCount: 2
Fore
SplineSet
367 26 m 256
 367 -27 322 -46 266 -46 c 256
 241 -46 198 -20 198 33 c 256
 198 78 235 125 283 125 c 256
 338 125 367 77 367 26 c 256
341 446 m 256
 341 348 323 306 303 306 c 256
 277 306 247 375 247 482 c 256
 247 596 255 713 255 821 c 256
 255 1045 245 1269 245 1493 c 256
 245 1537 290 1572 332 1572 c 256
 360 1572 382 1550 382 1522 c 256
 382 1195 339 870 339 543 c 256
 339 511 341 478 341 446 c 256
EndSplineSet
EndChar

StartChar: f
Encoding: 70 102 190
Width: 756
VWidth: 0
Flags: W
PickledData: "(dp1
S'lstem'
p2
I0
sS'com.fontlab.hintData'
p3
(dp4
S'vhints'
p5
((dp6
S'position'
p7
I214
sS'width'
p8
I102
s(dp9
g7
I222
sg8
I113
stp10
sS'hhints'
p11
((dp12
g7
I-18
sg8
I21
s(dp13
g7
I640
sg8
I114
s(dp14
g7
I1243
sg8
I121
stp15
ss."
HStem: -18 21<236 262.5> 640 114<369.5 376 346.5 398> 1243 121<283 359 283 335>
VStem: 214 102 222 113<1219 1323.5>
LayerCount: 2
Fore
SplineSet
316 753 m 257
 326 753 339 754 354 754 c 256
 398 754 453 747 453 700 c 256
 453 662 415 640 381 640 c 256
 358 640 322 645 300 652 c 257
 300 72 l 258
 300 6 278 -18 247 -18 c 256
 225 -18 199 -6 174 13 c 257
 203 333 197 655 214 975 c 257
 214 1025 l 257
 219 1118 222 1210 222 1303 c 256
 222 1344 265 1364 301 1364 c 256
 355 1364 570 1358 570 1281 c 256
 570 1229 505 1223 466 1223 c 257
 433 1239 395 1243 359 1243 c 258
 335 1243 l 257
 335 1219 l 257
 334 1082 316 945 316 808 c 258
 316 753 l 257
EndSplineSet
EndChar

StartChar: five
Encoding: 21 53 191
Width: 792
VWidth: 0
Flags: W
PickledData: "(dp1
S'lstem'
p2
I0
sS'com.fontlab.hintData'
p3
(dp4
S'vhints'
p5
((dp6
S'position'
p7
I197
sS'width'
p8
I72
s(dp9
g7
I505
sg8
I98
stp10
sS'hhints'
p11
((dp12
g7
I-37
sg8
I104
s(dp13
g7
I1488
sg8
I88
stp14
ss."
HStem: -37 104<332 401.5> 1488 88<269 356 269 269>
VStem: 197 72 505 98<334 456.5>
LayerCount: 2
Fore
SplineSet
197 1008 m 256
 197 1043 208 1077 208 1112 c 256
 208 1256 180 1398 158 1540 c 257
 193 1576 l 257
 360 1576 l 258
 397 1576 445 1572 445 1524 c 258
 445 1513 l 257
 407 1482 l 257
 356 1482 l 257
 356 1488 l 257
 269 1488 l 257
 275 1325 293 1164 309 1002 c 257
 362 996 430 996 475 965 c 256
 577 895 603 553 603 434 c 256
 603 234 603 95 430 -36 c 257
 420 -36 408 -37 395 -37 c 256
 346 -37 283 -31 283 21 c 256
 283 54 318 67 346 67 c 256
 365 67 384 61 399 50 c 257
 473 75 505 259 505 328 c 256
 505 585 501 891 272 891 c 256
 204 891 197 955 197 1008 c 256
EndSplineSet
EndChar

StartChar: foundryicon
Encoding: 488 -1 192
Width: 1582
VWidth: 0
Flags: HW
PickledData: "(dp1
S'lstem'
p2
I0
s."
LayerCount: 2
Fore
SplineSet
764 864 m 256
 764 857 766 851 766 847 c 256
 766 739 764 633 755 527 c 257
 747 554 742 581 734 607 c 256
 705 695 657 778 637 865 c 256
 635 871 634 885 613 892 c 257
 612 892 l 257
 608 897 l 257
 581 887 577 856 577 837 c 258
 577 828 l 258
 577 789 573 748 573 707 c 256
 573 642 577 577 577 511 c 256
 577 496 575 482 575 466 c 256
 575 457 576 419 603 419 c 256
 618 419 629 433 629 442 c 256
 629 448 629 453 627 459 c 257
 627 528 l 258
 627 525 626 523 626 523 c 0
 623 523 622 600 622 633 c 257
 624 633 l 257
 623 651 622 673 622 692 c 258
 622 779 l 257
 641 727 670 639 677 618 c 256
 678 618 688 583 695 568 c 257
 707 528 726 491 731 448 c 257
 733 446 737 411 765 418 c 257
 765 430 l 257
 770 419 l 257
 788 425 l 257
 800 422 813 751 813 804 c 257
 817 810 l 257
 817 859 l 258
 817 868 807 889 788 889 c 256
 769 889 764 871 764 864 c 256
953 436 m 257
 960 432 964 424 976 424 c 256
 986 424 1006 436 1006 448 c 256
 1006 583 990 715 990 848 c 258
 990 852 l 257
 1005 851 1028 849 1038 849 c 256
 1047 849 1067 855 1067 870 c 256
 1067 887 1047 890 1041 890 c 258
 1011 889 l 258
 982 889 926 895 894 895 c 256
 882 895 867 887 867 876 c 256
 867 854 890 853 937 853 c 257
 939 744 952 637 952 530 c 256
 952 524 953 519 953 514 c 256
 953 507 952 499 952 490 c 256
 952 472 953 454 953 436 c 257
765 350 m 258
 749 350 l 257
 682 293 559 199 492 147 c 256
 459 121 355 8 320 8 c 256
 296 8 274 12 274 42 c 256
 274 66 286 78 294 101 c 256
 326 247 393 399 436 543 c 257
 358 651 250 734 150 824 c 256
 107 862 0 897 0 962 c 256
 0 988 19 1001 47 1001 c 256
 61 1001 229 972 337 972 c 257
 587 962 l 257
 711 1271 l 257
 752 1333 771 1482 846 1482 c 256
 870 1482 911 1444 911 1420 c 256
 911 1317 957 1134 980 1034 c 258
 994 972 l 257
 1069 967 1166 965 1261 965 c 256
 1353 965 1431 972 1511 972 c 256
 1546 972 1582 959 1582 918 c 256
 1582 900 1478 842 1454 824 c 256
 1350 729 1257 607 1129 543 c 257
 1129 528 l 258
 1129 458 1167 368 1183 309 c 257
 1194 307 1253 34 1253 -4 c 256
 1253 -30 1236 -49 1209 -49 c 256
 1140 -49 921 350 765 350 c 258
EndSplineSet
EndChar

StartChar: four
Encoding: 20 52 193
Width: 720
VWidth: 0
Flags: W
PickledData: "(dp1
S'lstem'
p2
I0
sS'com.fontlab.hintData'
p3
(dp4
S'vhints'
p5
((dp6
S'position'
p7
I182
sS'width'
p8
I102
s(dp9
g7
I213
sg8
I94
s(dp10
g7
I362
sg8
I100
s(dp11
g7
I378
sg8
I89
s(dp12
g7
I380
sg8
I113
stp13
sS'hhints'
p14
((dp15
g7
I-38
sg8
I21
s(dp16
g7
I480
sg8
I96
s(dp17
g7
I507
sg8
I94
stp18
ss."
HStem: -38 21<422 464> 480 96 507 94<510 518>
VStem: 182 102<512 709 686 709 614.5 775> 213 94<1252 1259 1252 1503> 362 100 378 89<413 497> 380 113<59 66 66 66>
LayerCount: 2
Fore
SplineSet
381 1160 m 256
 381 1191 415 1206 434 1206 c 257
 466 1170 l 257
 466 1072 l 258
 466 913 466 753 462 596 c 257
 477 597 499 601 521 601 c 256
 552 601 582 593 582 557 c 256
 582 513 536 507 500 507 c 256
 485 507 467 505 467 489 c 256
 467 436 473 190 488 155 c 257
 486 143 484 130 484 117 c 256
 484 103 485 89 493 76 c 257
 493 39 l 258
 493 9 483 -38 445 -38 c 256
 399 -38 380 23 380 59 c 258
 380 66 l 257
 387 90 391 115 391 140 c 256
 391 207 376 272 376 339 c 256
 376 369 378 398 378 428 c 256
 378 449 377 470 374 491 c 257
 337 489 299 480 262 480 c 257
 262 479 l 257
 231 479 206 493 182 512 c 257
 182 539 184 565 191 591 c 257
 184 628 182 666 182 706 c 256
 182 844 213 991 213 1124 c 258
 213 1503 l 258
 213 1525 215 1543 252 1543 c 256
 281 1543 313 1524 313 1492 c 256
 313 1440 304 1386 304 1333 c 256
 304 1321 303 1308 303 1296 c 256
 303 1284 304 1271 307 1259 c 257
 307 1252 l 257
 311 1216 313 1179 313 1143 c 256
 313 969 284 796 284 622 c 256
 284 607 285 591 287 576 c 257
 312 577 337 581 362 587 c 257
 363 780 381 983 381 1160 c 256
EndSplineSet
EndChar

StartChar: fraction
Encoding: 459 8260 194
Width: 756
VWidth: 0
Flags: W
PickledData: "(dp1
S'lstem'
p2
I0
sS'com.fontlab.hintData'
p3
(dp4
S'vhints'
p5
((dp6
S'position'
p7
I166
sS'width'
p8
I441
stp9
sS'hhints'
p10
((dp11
g7
I-31
sg8
I21
s(dp12
g7
I1533
sg8
I20
stp13
ss."
HStem: -31 21<204 212 204 204> 1533 20<529.5 566>
VStem: 166 441
LayerCount: 2
Fore
SplineSet
166 30 m 256
 166 340 426 1099 495 1453 c 256
 501 1483 507 1553 552 1553 c 256
 580 1553 607 1533 607 1503 c 256
 607 1437 580 1374 565 1311 c 256
 486 972 408 632 334 292 c 256
 321 233 287 -31 212 -31 c 258
 204 -31 l 257
 183 -18 166 5 166 30 c 256
EndSplineSet
EndChar

StartChar: g
Encoding: 71 103 195
Width: 853
VWidth: 0
Flags: W
PickledData: "(dp1
S'lstem'
p2
I0
sS'com.fontlab.hintData'
p3
(dp4
S'vhints'
p5
((dp6
S'position'
p7
I172
sS'width'
p8
I122
s(dp9
g7
I588
sg8
I123
s(dp10
g7
I588
sg8
I111
stp11
sS'hhints'
p12
((dp13
g7
I-16
sg8
I107
s(dp14
g7
I518
sg8
I105
s(dp15
g7
I1252
sg8
I102
stp16
ss."
HStem: -16 107<395 521> 518 105<499 507.5> 1252 102<378.5 460>
VStem: 172 122<611 622 622 680.5 531.5 692 531.5 830> 588 123<417 589.5 511 589.5> 588 111
LayerCount: 2
Fore
SplineSet
464 -16 m 256
 174 -16 172 346 172 611 c 258
 172 622 l 257
 172 692 l 258
 172 968 184 1354 474 1354 c 256
 509 1354 561 1349 561 1302 c 256
 561 1268 527 1247 496 1247 c 256
 481 1247 467 1252 453 1252 c 256
 304 1252 294 732 294 629 c 256
 294 434 301 91 489 91 c 256
 583 91 588 316 588 417 c 258
 588 511 l 257
 573 519 557 519 540 519 c 256
 529 519 515 518 500 518 c 256
 465 518 429 524 429 565 c 256
 429 606 463 624 499 624 c 257
 499 623 l 257
 527 623 l 258
 591 623 711 619 711 560 c 256
 711 509 689 462 689 411 c 256
 689 341 699 266 699 194 c 256
 699 50 578 -16 464 -16 c 256
EndSplineSet
EndChar

StartChar: gbreve
Encoding: -1 287 196
Width: 954
VWidth: 0
Flags: W
PickledData: "(dp1
S'lstem'
p2
I0
sS'com.fontlab.hintData'
p3
(dp4
S'vhints'
p5
((dp6
S'position'
p7
I180
sS'width'
p8
I151
s(dp9
g7
I437
sg8
I118
stp10
sS'hhints'
p11
((dp12
g7
I-23
sg8
I21
stp13
ss."
HStem: -23 21<137.5 162.5>
VStem: 180 151 437 118<698 698 698 805>
LayerCount: 2
Fore
SplineSet
198 -19 m 257
 194 -19 l 258
 181 -19 169 -23 156 -23 c 256
 119 -23 103 19 102 49 c 257
 127 69 l 257
 163 136 437 680 437 702 c 256
 437 908 182 1202 180 1411 c 257
 225 1446 l 257
 235 1444 l 257
 309 1410 311 1324 331 1255 c 256
 369 1123 552 803 555 698 c 257
 198 -19 l 257
481 1490 m 256
 485 1490 492 1487 496 1486 c 257
 499 1486 l 257
 499 1484 l 257
 500 1485 l 257
 528 1457 557 1402 562 1363 c 257
 600 1264 822 751 822 700 c 256
 822 610 463 -56 419 -56 c 256
 393 -56 354 -43 354 -10 c 256
 354 68 678 528 712 689 c 257
 597 928 565 1211 416 1433 c 257
 419 1467 447 1490 481 1490 c 256
EndSplineSet
EndChar

StartChar: gcircumflex
Encoding: -1 285 197
Width: 882
VWidth: 0
Flags: W
PickledData: "(dp1
S'lstem'
p2
I0
sS'com.fontlab.hintData'
p3
(dp4
S'vhints'
p5
((dp6
S'position'
p7
I168
sS'width'
p8
I111
s(dp9
g7
I595
sg8
I106
stp10
sS'hhints'
p11
((dp12
g7
I-38
sg8
I85
s(dp13
g7
I1269
sg8
I109
s(dp14
g7
I1540
sg8
I20
stp15
ss."
HStem: -38 85<417 502.5 413 561> 1269 109<350 354.5 243.5 413.5> 1540 20<527 588 588 588>
VStem: 168 111<544.5 748.5> 595 106<509 783>
LayerCount: 2
Fore
SplineSet
257 -227 m 257
 295 32 l 257
 185 166 168 463 168 626 c 256
 168 658 170 677 170 704 c 256
 170 711 169 714 167 714 c 257
 167 751 l 258
 167 860 166 1378 321 1378 c 256
 388 1378 444 1364 491 1338 c 257
 527 1560 l 257
 588 1560 l 257
 548 1296 l 257
 659 1194 701 1008 701 798 c 258
 701 783 l 258
 701 706 705 628 705 551 c 256
 705 368 690 -38 432 -38 c 256
 402 -38 375 -31 351 -17 c 257
 307 -274 l 257
 257 -227 l 257
367 89 m 257
 383 63 402 47 424 47 c 256
 581 47 595 454 595 564 c 256
 595 723 569 882 568 1041 c 257
 568 1077 l 257
 567 1117 555 1158 533 1192 c 257
 367 89 l 257
323 215 m 257
 477 1247 l 257
 454 1261 428 1269 399 1269 c 256
 301 1269 287 1141 287 1027 c 256
 287 981 289 937 289 906 c 256
 289 843 279 780 279 717 c 256
 279 650 284 391 323 215 c 257
EndSplineSet
EndChar

StartChar: germandbls
Encoding: 158 223 200
Width: 810
VWidth: 0
Flags: W
PickledData: "(dp1
S'lstem'
p2
I0
sS'com.fontlab.hintData'
p3
(dp4
S'vhints'
p5
((dp6
S'position'
p7
I190
sS'width'
p8
I100
s(dp9
g7
I195
sg8
I126
s(dp10
g7
I478
sg8
I100
s(dp11
g7
I538
sg8
I99
stp12
sS'hhints'
p13
((dp14
g7
I-47
sg8
I21
s(dp15
g7
I1473
sg8
I112
stp16
ss."
HStem: -47 21<237.5 283.5> 1473 112<349 422.5>
VStem: 190 100<1130.5 1312> 195 126<22 93> 478 100<1190 1297.5> 538 99<369 539.5 369 599>
LayerCount: 2
Fore
SplineSet
455 49 m 257
 451 48 444 45 440 45 c 256
 421 45 391 57 391 81 c 256
 391 134 538 240 538 409 c 256
 538 789 360 776 360 854 c 256
 360 898 478 1106 478 1274 c 256
 478 1321 457 1473 388 1473 c 256
 310 1473 290 1350 290 1294 c 256
 290 878 321 463 321 46 c 256
 321 -2 312 -47 255 -47 c 256
 220 -47 195 -37 195 4 c 256
 195 182 205 360 205 538 c 256
 205 775 190 1012 190 1249 c 256
 190 1375 222 1585 388 1585 c 256
 545 1585 578 1367 578 1249 c 256
 578 1109 524 977 452 859 c 257
 605 744 637 635 637 444 c 256
 637 294 574 143 455 49 c 257
EndSplineSet
EndChar

StartChar: grave
Encoding: 64 96 201
Width: 774
VWidth: 0
Flags: W
PickledData: "(dp1
S'lstem'
p2
I0
sS'com.fontlab.hintData'
p3
(dp4
S'vhints'
p5
((dp6
S'position'
p7
I254
sS'width'
p8
I393
stp9
sS'hhints'
p10
((dp11
g7
I1543
sg8
I209
stp12
ss."
HStem: 1543 209
VStem: 254 393<1553 1685.5>
LayerCount: 2
Fore
SplineSet
322 1752 m 256
 337 1752 647 1599 647 1557 c 256
 647 1549 641 1543 632 1543 c 256
 594 1543 254 1645 254 1672 c 256
 254 1699 286 1752 322 1752 c 256
EndSplineSet
EndChar

StartChar: greater
Encoding: 30 62 202
Width: 774
VWidth: 0
Flags: W
PickledData: "(dp1
S'lstem'
p2
I0
sS'com.fontlab.hintData'
p3
(dp4
S'vhints'
p5
((dp6
S'position'
p7
I482
sS'width'
p8
I118
stp9
sS'hhints'
p10
((dp11
g7
I-23
sg8
I21
stp12
ss."
HStem: -23 21<190.5 207.5>
VStem: 482 118<698 698 698 805>
LayerCount: 2
Fore
SplineSet
482 702 m 256
 482 908 227 1202 225 1411 c 257
 280 1446 l 257
 280 1444 l 257
 367 1404 597 788 600 698 c 257
 239 -19 l 257
 226 -19 214 -23 201 -23 c 256
 180 -23 158 -6 158 24 c 256
 158 116 482 654 482 702 c 256
EndSplineSet
EndChar

StartChar: Gbreve
Encoding: 221 286 203
Width: 936
VWidth: 0
Flags: W
PickledData: "(dp1
S'lstem'
p2
I0
sS'com.fontlab.hintData'
p3
(dp4
S'vhints'
p5
((dp6
S'position'
p7
I383
sS'width'
p8
I117
s(dp9
g7
I607
sg8
I151
stp10
sS'hhints'
p11
((dp12
g7
I-22
sg8
I21
stp13
ss."
HStem: -22 21<777 801.5>
VStem: 383 117 607 151
LayerCount: 2
Fore
SplineSet
837 49 m 257
 835 19 820 -22 783 -22 c 256
 771 -22 755 -22 743 -18 c 256
 711 -8 423 612 383 698 c 257
 386 798 569 1125 607 1255 c 256
 618 1293 645 1447 706 1447 c 256
 708 1447 710 1446 713 1446 c 257
 758 1411 l 257
 731 1193 500 869 500 702 c 256
 500 679 774 135 811 69 c 257
 837 49 l 257
523 1440 m 257
 416 1193 343 929 229 687 c 257
 262 526 586 65 586 -13 c 256
 586 -45 548 -59 522 -59 c 256
 477 -59 118 607 118 697 c 256
 118 749 341 1261 379 1361 c 257
 383 1398 415 1456 440 1483 c 257
 440 1485 l 257
 446 1486 453 1489 459 1489 c 256
 488 1489 521 1473 523 1440 c 257
EndSplineSet
EndChar

StartChar: gbreve
Encoding: 222 287 204
Width: 954
VWidth: 0
Flags: W
PickledData: "(dp1
S'lstem'
p2
I0
sS'com.fontlab.hintData'
p3
(dp4
S'vhints'
p5
((dp6
S'position'
p7
I180
sS'width'
p8
I151
s(dp9
g7
I437
sg8
I118
stp10
sS'hhints'
p11
((dp12
g7
I-23
sg8
I21
stp13
ss."
HStem: -23 21<137.5 162.5>
VStem: 180 151 437 118<698 698 698 805>
LayerCount: 2
Fore
SplineSet
198 -19 m 257
 194 -19 l 258
 181 -19 169 -23 156 -23 c 256
 119 -23 103 19 102 49 c 257
 127 69 l 257
 163 136 437 680 437 702 c 256
 437 908 182 1202 180 1411 c 257
 225 1446 l 257
 235 1444 l 257
 309 1410 311 1324 331 1255 c 256
 369 1123 552 803 555 698 c 257
 198 -19 l 257
481 1490 m 256
 485 1490 492 1487 496 1486 c 257
 499 1486 l 257
 499 1484 l 257
 500 1485 l 257
 528 1457 557 1402 562 1363 c 257
 600 1264 822 751 822 700 c 256
 822 610 463 -56 419 -56 c 256
 393 -56 354 -43 354 -10 c 256
 354 68 678 528 712 689 c 257
 597 928 565 1211 416 1433 c 257
 419 1467 447 1490 481 1490 c 256
EndSplineSet
EndChar

StartChar: guilsinglleft
Encoding: 457 8249 205
Width: 774
VWidth: 0
Flags: W
PickledData: "(dp1
S'lstem'
p2
I0
sS'com.fontlab.hintData'
p3
(dp4
S'vhints'
p5
((dp6
S'position'
p7
I158
sS'width'
p8
I117
s(dp9
g7
I382
sg8
I151
stp10
sS'hhints'
p11
((dp12
g7
I-22
sg8
I21
stp13
ss."
HStem: -22 21<550.5 576.5>
VStem: 158 117 382 151
LayerCount: 2
Fore
SplineSet
612 49 m 257
 610 19 595 -22 558 -22 c 256
 543 -22 529 -19 514 -18 c 257
 373 197 270 465 158 698 c 257
 161 798 344 1125 382 1255 c 256
 393 1293 420 1447 481 1447 c 256
 483 1447 485 1446 488 1446 c 257
 533 1411 l 257
 506 1193 275 869 275 702 c 256
 275 679 549 135 586 69 c 257
 612 49 l 257
EndSplineSet
EndChar

StartChar: guilsinglright
Encoding: 458 8250 206
Width: 774
VWidth: 0
Flags: W
PickledData: "(dp1
S'lstem'
p2
I0
sS'com.fontlab.hintData'
p3
(dp4
S'vhints'
p5
((dp6
S'position'
p7
I228
sS'width'
p8
I151
s(dp9
g7
I485
sg8
I118
stp10
sS'hhints'
p11
((dp12
g7
I-23
sg8
I21
stp13
ss."
HStem: -23 21<185.5 210.5>
VStem: 228 151 485 118<698 698 698 805>
LayerCount: 2
Fore
SplineSet
246 -19 m 257
 242 -19 l 258
 229 -19 217 -23 204 -23 c 256
 167 -23 151 19 150 49 c 257
 175 69 l 257
 211 136 485 680 485 702 c 256
 485 908 230 1202 228 1411 c 257
 273 1446 l 257
 283 1444 l 257
 357 1410 359 1324 379 1255 c 256
 417 1123 600 803 603 698 c 257
 246 -19 l 257
EndSplineSet
EndChar

StartChar: h
Encoding: 72 104 207
Width: 792
VWidth: 0
Flags: W
PickledData: "(dp1
S'lstem'
p2
I0
sS'com.fontlab.hintData'
p3
(dp4
S'vhints'
p5
((dp6
S'position'
p7
I185
sS'width'
p8
I118
s(dp9
g7
I461
sg8
I119
s(dp10
g7
I478
sg8
I141
stp11
sS'hhints'
p12
((dp13
g7
I0
sg8
I21
s(dp14
g7
I632
sg8
I80
s(dp15
g7
I1335
sg8
I20
s(dp16
g7
I1354
sg8
I20
stp17
ss."
HStem: 0 21<518 565> 632 80<412.5 441> 1335 20<224 269> 1354 20<505 530.5>
VStem: 185 118<208.5 416> 461 119<1222.5 1335.5> 478 141
LayerCount: 2
Fore
SplineSet
481 548 m 258
 481 556 l 257
 482 576 484 595 484 615 c 256
 484 621 472 628 472 634 c 258
 472 636 l 257
 459 633 447 632 435 632 c 256
 390 632 350 649 303 651 c 257
 303 576 l 257
 303 425 l 257
 303 416 l 258
 303 304 315 191 315 79 c 256
 315 44 297 5 257 5 c 256
 197 5 185 134 185 283 c 256
 185 391 191 509 191 595 c 256
 191 619 192 641 192 659 c 256
 192 677 191 692 188 702 c 257
 188 712 l 257
 191 752 196 792 196 832 c 256
 196 986 182 1140 182 1294 c 256
 182 1325 208 1355 240 1355 c 256
 298 1355 305 1276 305 1233 c 256
 305 1063 297 892 297 722 c 257
 334 712 372 712 409 712 c 258
 483 712 l 257
 487 719 488 729 488 738 c 256
 488 932 461 1125 461 1320 c 256
 461 1351 490 1374 520 1374 c 256
 541 1374 560 1362 580 1356 c 257
 580 912 617 208 619 62 c 256
 619 20 582 0 548 0 c 256
 488 0 478 176 478 337 c 256
 478 419 481 498 481 548 c 258
EndSplineSet
EndChar

StartChar: hbar
Encoding: -1 295 208
Width: 900
VWidth: 0
Flags: W
PickledData: "(dp1
S'lstem'
p2
I0
sS'com.fontlab.hintData'
p3
(dp4
S'vhints'
p5
((dp6
S'position'
p7
I360
sS'width'
p8
I126
s(dp9
g7
I372
sg8
I134
s(dp10
g7
I378
sg8
I108
stp11
sS'hhints'
p12
((dp13
g7
I135
sg8
I111
s(dp14
g7
I602
sg8
I99
stp15
ss."
HStem: 135 111<217.5 311.5> 602 99
VStem: 360 126<525.5 599> 372 134<371 416.5> 378 108<551 573 525.5 584>
LayerCount: 2
Fore
SplineSet
158 200 m 256
 158 228 176 246 204 246 c 258
 506 246 l 258
 548 246 590 253 632 253 c 256
 674 253 730 246 730 192 c 256
 730 158 702 145 672 145 c 256
 528 145 383 135 240 135 c 256
 195 135 158 149 158 200 c 256
372 385 m 256
 372 451 378 518 378 584 c 257
 360 599 l 257
 332 599 286 590 246 590 c 256
 199 590 158 602 158 655 c 256
 158 682 175 708 204 708 c 256
 244 708 286 701 326 701 c 256
 342 701 356 702 372 705 c 257
 370 755 360 805 360 855 c 256
 360 900 367 968 426 968 c 256
 458 968 486 942 486 909 c 258
 486 904 l 257
 478 884 l 257
 479 853 479 701 506 701 c 256
 531 701 578 709 624 709 c 256
 679 709 730 697 730 647 c 256
 730 615 704 591 672 591 c 256
 631 591 593 602 552 602 c 256
 518 602 486 593 486 553 c 256
 486 498 506 444 506 389 c 256
 506 353 470 333 438 333 c 256
 409 333 372 352 372 385 c 256
EndSplineSet
EndChar

StartChar: hcircumflex
Encoding: -1 293 209
Width: 1080
VWidth: 0
Flags: W
PickledData: "(dp1
S'lstem'
p2
I0
sS'com.fontlab.hintData'
p3
(dp4
S'vhints'
p5
((dp6
S'position'
p7
I126
sS'width'
p8
I112
s(dp9
g7
I555
sg8
I121
s(dp10
g7
I576
sg8
I111
s(dp11
g7
I598
sg8
I116
s(dp12
g7
I770
sg8
I114
stp13
sS'hhints'
p14
((dp15
g7
I-8
sg8
I9
s(dp16
g7
I1098
sg8
I98
s(dp17
g7
I1738
sg8
I116
s(dp18
g7
I1769
sg8
I107
stp19
ss."
HStem: -8 9 1098 98<508.5 583 483.5 594> 1738 116<827 907.5> 1769 107<692.5 696.5 671.5 722>
VStem: 126 112<1384 1455 1339.5 1565.5> 555 121<42.5 207.5> 576 111<1614 1694.5 1570.5 1697> 598 116<827 986.5> 770 114<998 1241.5>
LayerCount: 2
Fore
SplineSet
239 1454 m 257
 238 1455 l 257
 238 1224 386 1196 581 1196 c 256
 585 1196 592 1199 596 1200 c 257
 596 1366 576 1531 576 1697 c 257
 578 1740 l 257
 551 1748 524 1748 496 1748 c 256
 349 1748 239 1591 239 1454 c 257
870 1739 m 257
 871 1540 884 1341 884 1142 c 256
 884 850 872 557 872 265 c 256
 872 188 884 113 884 36 c 256
 884 4 857 -20 826 -20 c 256
 759 -20 751 52 751 103 c 256
 751 461 770 819 770 1177 c 256
 770 1326 755 1474 755 1623 c 256
 755 1642 758 1666 758 1689 c 256
 758 1731 748 1769 696 1769 c 256
 689 1769 687 1700 687 1689 c 256
 687 1452 714 1217 714 980 c 256
 714 674 676 370 676 64 c 256
 676 21 666 -8 617 -8 c 256
 581 -8 555 21 555 56 c 256
 555 359 598 661 598 964 c 256
 598 1009 595 1053 594 1098 c 257
 423 1098 185 1118 139 1321 c 256
 134 1342 135 1364 126 1384 c 257
 126 1747 291 1823 621 1854 c 257
 638 1871 660 1876 683 1876 c 256
 710 1876 737 1864 763 1859 c 257
 762 1858 l 257
 818 1865 l 257
 827 1854 l 257
 862 1852 950 1838 950 1790 c 256
 950 1759 922 1738 893 1738 c 256
 885 1738 878 1739 870 1739 c 257
EndSplineSet
EndChar

StartChar: hungarumlaut
Encoding: 406 733 210
Width: 954
VWidth: 0
Flags: W
PickledData: "(dp1
S'lstem'
p2
I0
sS'com.fontlab.hintData'
p3
(dp4
S'hhints'
p5
((dp6
S'position'
p7
I0
sS'width'
p8
I440
stp9
ss."
HStem: 0 440<118 432.5>
LayerCount: 2
Fore
SplineSet
118 0 m 257
 118 13 l 257
 123 79 382 440 420 440 c 256
 445 440 468 424 468 402 c 256
 468 303 178 17 118 0 c 257
396 13 m 257
 382 13 376 26 376 40 c 256
 376 90 713 440 760 440 c 256
 790 440 815 416 822 392 c 257
 794 318 462 49 396 13 c 257
EndSplineSet
EndChar

StartChar: hyphen
Encoding: 13 45 211
AltUni2: 002015.ffffffff.0
Width: 792
VWidth: 0
Flags: W
PickledData: "(dp1
S'lstem'
p2
I0
sS'com.fontlab.hintData'
p3
(dp4
S'vhints'
p5
((dp6
S'position'
p7
I174
sS'width'
p8
I442
stp9
sS'hhints'
p10
((dp11
g7
I656
sg8
I142
stp12
ss."
HStem: 656 142
VStem: 174 442<702.5 751>
LayerCount: 2
Fore
SplineSet
616 739 m 256
 616 666 299 656 241 656 c 256
 208 656 174 680 174 715 c 256
 174 787 491 798 548 798 c 256
 581 798 616 775 616 739 c 256
EndSplineSet
EndChar

StartChar: i
Encoding: 73 105 212
Width: 774
VWidth: 0
Flags: W
PickledData: "(dp1
S'lstem'
p2
I0
sS'com.fontlab.hintData'
p3
(dp4
S'vhints'
p5
((dp6
S'position'
p7
I307
sS'width'
p8
I112
stp9
sS'hhints'
p10
((dp11
g7
I18
sg8
I100
s(dp12
g7
I1254
sg8
I102
stp13
ss."
HStem: 18 100<268.5 300> 1254 102<205 503>
VStem: 307 112<608.5 656>
LayerCount: 2
Fore
SplineSet
429 185 m 258
 429 166 428 144 428 128 c 257
 455 128 l 258
 470 128 491 130 514 130 c 256
 555 130 598 122 598 79 c 256
 598 43 565 16 530 16 c 258
 440 16 l 258
 394 16 347 16 321 20 c 257
 313 19 304 18 296 18 c 256
 241 18 223 40 223 64 c 256
 223 90 243 117 259 118 c 257
 317 118 l 257
 318 127 321 136 321 145 c 256
 321 290 307 435 307 580 c 256
 307 732 318 884 318 1036 c 256
 318 1109 315 1184 308 1256 c 257
 269 1256 l 258
 254 1256 238 1254 222 1254 c 256
 188 1254 158 1262 158 1309 c 256
 158 1353 220 1356 259 1356 c 258
 503 1356 l 258
 564 1356 586 1335 586 1313 c 256
 586 1288 559 1262 527 1262 c 258
 422 1262 l 257
 428 1199 430 1136 430 1072 c 256
 430 942 419 811 419 681 c 256
 419 536 429 391 429 246 c 258
 429 185 l 258
EndSplineSet
EndChar

StartChar: j
Encoding: 74 106 222
Width: 756
VWidth: 0
Flags: W
PickledData: "(dp1
S'lstem'
p2
I129
sS'com.fontlab.hintData'
p3
(dp4
S'vhints'
p5
((dp6
S'position'
p7
I325
sS'width'
p8
I114
s(dp9
g7
I348
sg8
I112
stp10
sS'hhints'
p11
((dp12
g7
I1245
sg8
I94
stp13
ss."
HStem: 1245 94
VStem: 325 114<1233 1242 1242 1242> 348 112<152 164 164 361.5>
LayerCount: 2
Fore
SplineSet
460 164 m 258
 460 46 437 -193 149 -193 c 256
 129 -193 125 -183 125 -168 c 256
 125 -158 127 -146 127 -134 c 256
 127 -106 238 -102 289 -46 c 256
 337 6 348 117 348 187 c 256
 348 536 325 884 325 1233 c 258
 325 1242 l 257
 283 1246 168 1249 168 1292 c 256
 168 1322 211 1339 235 1339 c 256
 295 1339 600 1325 600 1293 c 256
 600 1262 572 1245 544 1245 c 258
 439 1245 l 257
 439 963 460 664 460 382 c 258
 460 164 l 258
EndSplineSet
EndChar

StartChar: k
Encoding: 75 107 224
Width: 864
VWidth: 0
Flags: W
PickledData: "(dp1
S'lstem'
p2
I0
sS'com.fontlab.hintData'
p3
(dp4
S'vhints'
p5
((dp6
S'position'
p7
I182
sS'width'
p8
I110
s(dp9
g7
I221
sg8
I124
stp10
sS'hhints'
p11
((dp12
g7
I-35
sg8
I21
s(dp13
g7
I1337
sg8
I20
s(dp14
g7
I1337
sg8
I20
stp15
ss."
HStem: -35 21<590.5 675> 1337 20<269 299> 1337 20<269 299>
VStem: 182 110<34 396> 221 124<1288 1294 1288 1318>
LayerCount: 2
Fore
SplineSet
688 1289 m 257
 687 1284 496 976 468 919 c 257
 468 878 464 838 464 797 c 256
 464 678 590 252 652 149 c 256
 677 108 718 71 718 19 c 256
 718 -13 690 -35 660 -35 c 256
 521 -35 387 626 366 752 c 257
 310 641 292 519 292 396 c 258
 292 17 l 258
 292 -14 278 -31 250 -31 c 256
 210 -31 182 -7 182 34 c 258
 182 656 l 258
 182 877 221 1097 221 1318 c 257
 232 1342 256 1357 282 1357 c 256
 316 1357 345 1328 345 1294 c 258
 345 1288 l 257
 319 1243 318 1038 318 915 c 258
 318 842 l 257
 357 912 556 1344 609 1344 c 256
 642 1344 688 1329 688 1289 c 257
EndSplineSet
EndChar

StartChar: l
Encoding: 76 108 227
Width: 684
VWidth: 0
Flags: W
PickledData: "(dp1
S'lstem'
p2
I0
sS'com.fontlab.hintData'
p3
(dp4
S'vhints'
p5
((dp6
S'position'
p7
I190
sS'width'
p8
I109
s(dp9
g7
I216
sg8
I91
stp10
sS'hhints'
p11
((dp12
g7
I-28
sg8
I16
s(dp13
g7
I-9
sg8
I87
s(dp14
g7
I1335
sg8
I20
stp15
ss."
HStem: -28 16 -9 87<338 349> 1335 20<240 289>
VStem: 190 109<186.5 191.5> 216 91
LayerCount: 2
Fore
SplineSet
307 545 m 258
 307 435 299 333 299 219 c 256
 299 154 308 78 368 78 c 256
 387 78 420 81 453 81 c 256
 507 81 563 72 563 21 c 256
 563 -11 528 -29 501 -33 c 257
 442 -14 380 -9 318 -9 c 257
 297 -21 272 -28 248 -28 c 256
 214 -28 190 7 190 39 c 256
 190 344 216 649 216 954 c 258
 216 969 l 257
 210 1033 204 1097 204 1161 c 256
 204 1207 205 1355 275 1355 c 256
 303 1355 327 1332 327 1304 c 256
 327 1252 313 1200 313 1148 c 256
 313 984 319 820 319 656 c 257
 308 630 307 599 307 570 c 258
 307 545 l 258
EndSplineSet
EndChar

StartChar: less
Encoding: 28 60 232
Width: 774
VWidth: 0
Flags: W
PickledData: "(dp1
S'lstem'
p2
I0
sS'com.fontlab.hintData'
p3
(dp4
S'vhints'
p5
((dp6
S'position'
p7
I158
sS'width'
p8
I117
stp9
sS'hhints'
p10
((dp11
g7
I-22
sg8
I71
stp12
ss."
HStem: -22 71<482 612>
VStem: 158 117
LayerCount: 2
Fore
SplineSet
158 698 m 257
 160 756 417 1447 481 1447 c 256
 483 1447 485 1446 488 1446 c 257
 533 1411 l 257
 506 1193 275 869 275 702 c 256
 275 679 549 115 586 49 c 257
 612 49 l 257
 610 19 595 -22 558 -22 c 256
 406 -22 216 577 158 698 c 257
EndSplineSet
EndChar

StartChar: Jcircumflex
Encoding: 243 308 233
Width: 1098
VWidth: 0
Flags: W
PickledData: "(dp1
S'lstem'
p2
I0
sS'com.fontlab.hintData'
p3
(dp4
S'vhints'
p5
((dp6
S'position'
p7
I809
sS'width'
p8
I93
stp9
sS'hhints'
p10
((dp11
g7
I711
sg8
I124
s(dp12
g7
I733
sg8
I115
stp13
ss."
HStem: 711 124<155 375.5> 733 115<636.5 870>
VStem: 809 93<564 720>
LayerCount: 2
Fore
SplineSet
169 711 m 256
 141 711 118 735 118 763 c 256
 118 822 229 835 336 835 c 256
 415 835 491 828 519 828 c 256
 631 828 742 848 854 848 c 256
 886 848 921 824 921 790 c 256
 921 766 914 741 902 720 c 257
 902 658 907 596 926 537 c 257
 922 509 904 475 872 475 c 256
 818 475 809 536 809 592 c 256
 809 618 811 643 811 659 c 256
 811 682 810 705 806 727 c 257
 781 728 755 733 730 733 c 256
 543 733 356 711 169 711 c 256
EndSplineSet
EndChar

StartChar: lslash
Encoding: 257 322 234
Width: 774
VWidth: 0
Flags: W
PickledData: "(dp1
S'lstem'
p2
I0
sS'com.fontlab.hintData'
p3
(dp4
S'vhints'
p5
((dp6
S'position'
p7
I227
sS'width'
p8
I109
s(dp9
g7
I253
sg8
I97
stp10
sS'hhints'
p11
((dp12
g7
I-28
sg8
I106
s(dp13
g7
I-9
sg8
I87
s(dp14
g7
I1335
sg8
I20
stp15
ss."
HStem: -28 106<268 359.5> -9 87<355 359.5 342 386> 1335 20<277 326>
VStem: 227 109 253 97
LayerCount: 2
Fore
SplineSet
552 771 m 256
 552 723 471 714 356 686 c 257
 345 650 344 609 344 570 c 258
 344 545 l 258
 344 435 336 333 336 219 c 256
 336 154 341 78 343 78 c 256
 376 78 433 81 490 81 c 256
 544 81 600 72 600 21 c 256
 600 -11 565 -29 538 -33 c 257
 479 -14 417 -9 355 -9 c 257
 334 -21 309 -28 285 -28 c 256
 251 -28 227 7 227 39 c 256
 227 45 238 446 246 650 c 257
 196 626 157 618 137 618 c 256
 124 618 110 634 110 657 c 256
 110 697 174 721 249 736 c 257
 251 809 253 881 253 954 c 258
 253 969 l 257
 247 1033 241 1097 241 1161 c 256
 241 1207 242 1355 312 1355 c 256
 340 1355 364 1332 364 1304 c 256
 364 1252 350 1200 350 1148 c 256
 350 1024 354 899 355 775 c 257
 427 800 491 807 515 807 c 256
 533 807 552 793 552 771 c 256
EndSplineSet
EndChar

StartChar: m
Encoding: 77 109 235
Width: 1206
VWidth: 0
Flags: W
PickledData: "(dp1
S'lstem'
p2
I0
sS'com.fontlab.hintData'
p3
(dp4
S'vhints'
p5
((dp6
S'position'
p7
I150
sS'width'
p8
I123
s(dp9
g7
I887
sg8
I116
s(dp10
g7
I916
sg8
I133
s(dp11
g7
I917
sg8
I107
stp12
sS'hhints'
p13
((dp14
g7
I-40
sg8
I21
stp15
ss."
HStem: -40 21<195.5 237>
VStem: 150 123<79 218> 887 116 916 133<-38.5 64.5> 917 107<191 372>
LayerCount: 2
Fore
SplineSet
887 806 m 256
 887 890 895 975 895 1059 c 257
 855 937 690 114 603 114 c 256
 549 114 518 149 518 202 c 256
 518 348 365 904 312 1065 c 257
 295 740 273 415 273 89 c 256
 273 69 276 47 276 28 c 256
 276 -10 266 -40 208 -40 c 256
 183 -40 150 -20 150 9 c 256
 150 427 213 843 213 1261 c 257
 206 1272 201 1288 201 1301 c 256
 201 1340 250 1351 280 1351 c 256
 347 1351 586 520 614 370 c 257
 655 505 821 1348 928 1348 c 256
 959 1348 1003 1329 1003 1292 c 256
 1003 1002 1029 693 1029 423 c 256
 1029 351 1024 279 1024 207 c 258
 1024 206 l 258
 1024 176 1040 23 1040 20 c 257
 1045 8 1049 -6 1049 -19 c 256
 1049 -58 1024 -107 980 -107 c 256
 921 -107 916 -21 916 21 c 256
 916 108 917 196 917 283 c 256
 917 461 887 643 887 806 c 256
EndSplineSet
EndChar

StartChar: minus
Encoding: 471 8722 237
Width: 900
VWidth: 0
Flags: W
PickledData: "(dp1
S'lstem'
p2
I0
sS'com.fontlab.hintData'
p3
(dp4
S'vhints'
p5
((dp6
S'position'
p7
I158
sS'width'
p8
I572
stp9
sS'hhints'
p10
((dp11
g7
I590
sg8
I111
stp12
ss."
HStem: 590 111<217.5 311.5>
VStem: 158 572<630 669>
LayerCount: 2
Fore
SplineSet
158 655 m 256
 158 683 176 701 204 701 c 258
 505 701 l 258
 547 701 589 708 631 708 c 256
 673 708 730 701 730 647 c 256
 730 613 702 600 672 600 c 256
 528 600 383 590 240 590 c 256
 195 590 158 604 158 655 c 256
EndSplineSet
EndChar

StartChar: multiply
Encoding: 150 215 238
Width: 828
VWidth: 0
Flags: W
PickledData: "(dp1
S'lstem'
p2
I0
sS'com.fontlab.hintData'
p3
(dp4
S'vhints'
p5
((dp6
S'position'
p7
I158
sS'width'
p8
I338
stp9
sS'hhints'
p10
((dp11
g7
I399
sg8
I481
stp12
ss."
HStem: 399 481<203 601>
VStem: 158 338<613 838.5>
LayerCount: 2
Fore
SplineSet
549 412 m 257
 526 434 418 557 403 562 c 257
 377 560 317 430 251 430 c 256
 221 430 189 460 189 490 c 256
 189 528 297 601 323 638 c 257
 277 681 158 755 158 823 c 256
 158 854 188 880 218 880 c 256
 244 880 375 748 407 721 c 257
 463 750 505 866 580 866 c 256
 608 866 634 839 634 811 c 256
 634 745 496 707 496 643 c 256
 496 583 655 539 655 473 c 256
 655 435 620 399 582 399 c 257
 549 412 l 257
EndSplineSet
EndChar

StartChar: n
Encoding: 78 110 239
Width: 1044
VWidth: 0
Flags: W
PickledData: "(dp1
S'lstem'
p2
I0
sS'com.fontlab.hintData'
p3
(dp4
S'vhints'
p5
((dp6
S'position'
p7
I182
sS'width'
p8
I112
s(dp9
g7
I762
sg8
I106
stp10
sS'hhints'
p11
((dp12
g7
I-6
sg8
I21
s(dp13
g7
I1342
sg8
I20
s(dp14
g7
I1342
sg8
I12
stp15
ss."
HStem: -6 21<692.5 734> 1342 20<269 269> 1342 12
VStem: 182 112<712 892.5> 762 106<1109 1236>
LayerCount: 2
Fore
SplineSet
721 189 m 257
 754 534 762 881 762 1228 c 256
 762 1244 759 1264 759 1283 c 256
 759 1315 767 1344 810 1344 c 256
 852 1344 868 1302 868 1264 c 258
 868 1109 l 257
 867 951 846 92 794 11 c 257
 771 4 746 -6 722 -6 c 256
 663 -6 672 55 653 93 c 256
 653 95 654 98 654 102 c 256
 654 219 350 1016 294 1145 c 257
 294 114 l 257
 301 99 315 83 315 66 c 256
 315 32 287 2 253 2 c 256
 194 2 186 84 186 127 c 256
 186 361 182 595 182 829 c 256
 182 956 194 1084 194 1211 c 256
 194 1274 215 1322 269 1362 c 257
 269 1349 l 257
 274 1352 279 1354 284 1354 c 256
 424 1354 666 324 721 189 c 257
EndSplineSet
EndChar

StartChar: nine
Encoding: 25 57 243
Width: 756
VWidth: 0
Flags: W
PickledData: "(dp1
S'lstem'
p2
I0
sS'com.fontlab.hintData'
p3
(dp4
S'vhints'
p5
((dp6
S'position'
p7
I190
sS'width'
p8
I100
s(dp9
g7
I455
sg8
I68
s(dp10
g7
I462
sg8
I98
stp11
sS'hhints'
p12
((dp13
g7
I-34
sg8
I21
s(dp14
g7
I1527
sg8
I87
stp15
ss."
HStem: -34 21<455 480> 1527 87<348.5 421>
VStem: 190 100<1166 1276.5 1166 1306.5> 455 68<-34 56.5> 462 98<1357.5 1453.5>
LayerCount: 2
Fore
SplineSet
536 237 m 257
 535 188 522 139 522 90 c 256
 522 78 523 64 523 49 c 256
 523 9 505 -34 455 -34 c 257
 423 4 l 257
 453 94 455 502 455 686 c 256
 455 772 452 848 451 931 c 257
 302 965 190 1087 190 1243 c 256
 190 1370 217 1614 388 1614 c 256
 529 1614 560 1547 560 1420 c 256
 560 1026 536 631 536 237 c 257
453 1009 m 257
 461 1148 462 1288 462 1427 c 256
 462 1480 453 1527 389 1527 c 256
 308 1527 290 1306 290 1247 c 256
 290 1085 350 1067 453 1009 c 257
EndSplineSet
EndChar

StartChar: numbersign
Encoding: 3 35 245
Width: 882
VWidth: 0
Flags: W
PickledData: "(dp1
S'lstem'
p2
I0
sS'com.fontlab.hintData'
p3
(dp4
S'vhints'
p5
((dp6
S'position'
p7
I291
sS'width'
p8
I94
s(dp9
g7
I344
sg8
I90
s(dp10
g7
I472
sg8
I106
s(dp11
g7
I567
sg8
I74
s(dp12
g7
I650
sg8
I101
stp13
sS'hhints'
p14
((dp15
g7
I571
sg8
I112
s(dp16
g7
I586
sg8
I113
s(dp17
g7
I945
sg8
I101
s(dp18
g7
I960
sg8
I94
s(dp19
g7
I1547
sg8
I20
stp20
ss."
HStem: 571 112<175 197.5> 586 113<664 670 664 664> 945 101<225.5 246.5 225.5 249.5> 960 94<456.5 487> 1547 20<396 411 411 411>
VStem: 291 94 344 90<1442.5 1462.5> 472 106<-39 66 -39 67> 567 74 650 101
LayerCount: 2
Fore
SplineSet
747 637 m 257
 748 637 l 257
 747 595 704 586 670 586 c 258
 664 586 l 257
 634 587 l 257
 616 378 578 171 578 -39 c 257
 543 -81 l 257
 514 -81 472 -74 472 -37 c 256
 472 171 530 374 537 581 c 257
 490 585 442 585 395 585 c 257
 345 582 l 257
 333 488 320 -80 234 -80 c 256
 209 -80 176 -65 176 -36 c 256
 176 170 208 375 247 576 c 257
 229 574 208 571 187 571 c 256
 143 571 102 583 102 637 c 256
 102 676 152 683 198 683 c 256
 223 683 247 681 260 681 c 257
 275 769 284 859 291 948 c 257
 278 947 259 945 240 945 c 256
 194 945 143 955 143 1004 c 258
 143 1014 l 257
 173 1047 l 257
 194 1047 215 1046 236 1046 c 256
 257 1046 278 1047 299 1049 c 257
 316 1185 344 1320 344 1457 c 256
 344 1468 343 1481 343 1494 c 256
 343 1530 349 1567 396 1567 c 258
 411 1567 l 257
 434 1520 l 257
 434 1365 399 1213 397 1058 c 257
 415 1054 433 1054 452 1054 c 258
 488 1054 l 258
 518 1054 547 1055 576 1062 c 257
 608 1219 625 1377 650 1535 c 257
 663 1552 681 1566 703 1566 c 256
 723 1566 751 1546 751 1525 c 256
 751 1369 682 1223 678 1067 c 257
 744 1067 l 257
 787 1020 l 257
 780 991 769 959 733 959 c 257
 666 962 l 257
 647 875 642 786 641 698 c 257
 648 698 655 699 662 699 c 256
 703 699 747 687 747 637 c 257
353 686 m 257
 361 685 370 685 378 685 c 256
 430 685 483 685 534 691 c 257
 549 777 566 864 567 952 c 257
 536 959 503 960 471 960 c 256
 442 960 413 959 385 954 c 257
 361 867 356 776 353 686 c 257
EndSplineSet
EndChar

StartChar: o
Encoding: 79 111 246
Width: 900
VWidth: 0
Flags: W
PickledData: "(dp1
S'lstem'
p2
I0
sS'com.fontlab.hintData'
p3
(dp4
S'vhints'
p5
((dp6
S'position'
p7
I176
sS'width'
p8
I111
s(dp9
g7
I603
sg8
I106
stp10
sS'hhints'
p11
((dp12
g7
I-38
sg8
I85
s(dp13
g7
I1269
sg8
I109
stp14
ss."
HStem: -38 85<365 510.5 365 569> 1269 109<358 458>
VStem: 176 111<518 748.5> 603 106<509 783>
LayerCount: 2
Fore
SplineSet
709 798 m 258
 709 783 l 258
 709 706 713 628 713 551 c 256
 713 368 698 -38 440 -38 c 256
 207 -38 176 410 176 626 c 256
 176 658 178 677 178 704 c 256
 178 711 177 714 175 714 c 257
 175 751 l 258
 175 860 174 1378 329 1378 c 256
 615 1378 709 1114 709 798 c 258
407 1269 m 256
 309 1269 295 1141 295 1027 c 256
 295 981 297 937 297 906 c 256
 297 843 287 780 287 717 c 256
 287 613 298 47 432 47 c 256
 589 47 603 454 603 564 c 256
 603 723 577 882 576 1041 c 257
 576 1077 l 257
 573 1171 509 1269 407 1269 c 256
EndSplineSet
EndChar

StartChar: ogonek
Encoding: 404 731 252
Width: 702
VWidth: 0
Flags: W
PickledData: "(dp1
S'lstem'
p2
I0
sS'com.fontlab.hintData'
p3
(dp4
S'vhints'
p5
((dp6
S'position'
p7
I254
sS'width'
p8
I70
stp9
sS'hhints'
p10
((dp11
g7
I-366
sg8
I65
stp12
ss."
HStem: -366 65<340 361>
VStem: 254 70<-258 -200>
LayerCount: 2
Fore
SplineSet
501 -7 m 257
 430 -66 324 -145 324 -250 c 256
 324 -266 329 -301 351 -301 c 256
 382 -301 412 -286 437 -268 c 257
 451 -302 l 257
 451 -342 377 -366 345 -366 c 256
 286 -366 254 -313 254 -259 c 256
 254 -141 351 -38 446 20 c 257
 501 -7 l 257
EndSplineSet
EndChar

StartChar: one
Encoding: 17 49 256
Width: 774
VWidth: 0
Flags: W
PickledData: "(dp1
S'lstem'
p2
I0
sS'com.fontlab.hintData'
p3
(dp4
S'vhints'
p5
((dp6
S'position'
p7
I275
sS'width'
p8
I85
s(dp9
g7
I337
sg8
I98
stp10
sS'hhints'
p11
((dp12
g7
I-9
sg8
I95
s(dp13
g7
I-8
sg8
I104
s(dp14
g7
I1479
sg8
I96
stp15
ss."
HStem: -9 95<282.5 304 268 314.5> -8 104<349 435> 1479 96<200.5 283.5>
VStem: 275 85<1115.5 1469.5> 337 98<106.5 109 96 319.5>
LayerCount: 2
Fore
SplineSet
275 1308 m 256
 275 1329 278 1356 278 1383 c 256
 278 1432 267 1479 207 1479 c 256
 194 1479 177 1477 160 1477 c 256
 130 1477 102 1483 102 1521 c 256
 102 1574 224 1575 267 1575 c 256
 300 1575 354 1574 372 1541 c 257
 366 1513 360 1484 360 1455 c 256
 360 1329 391 1205 391 1079 c 256
 391 756 435 433 435 109 c 258
 435 96 l 257
 460 98 485 102 510 102 c 257
 510 103 l 257
 546 103 597 99 597 52 c 256
 597 -4 435 -8 364 -8 c 256
 334 -8 326 -9 303 -9 c 256
 262 -9 239 -3 239 47 c 256
 239 75 244 86 292 86 c 256
 316 86 337 93 337 120 c 256
 337 519 275 923 275 1308 c 256
EndSplineSet
EndChar

StartChar: Scedilla
Encoding: 285 350 259
Width: 864
VWidth: 0
Flags: W
PickledData: "(dp1
S'lstem'
p2
I0
sS'com.fontlab.hintData'
p3
(dp4
S'vhints'
p5
((dp6
S'position'
p7
I598
sS'width'
p8
I125
stp9
sS'hhints'
p10
((dp11
g7
I66
sg8
I94
s(dp12
g7
I1353
sg8
I20
s(dp13
g7
I1353
sg8
I20
stp14
ss."
HStem: 66 94<175 260.5> 1353 20<400 469 469 535> 1353 20<400 469 469 535>
VStem: 598 125<297 309 309 311 297 362.5>
LayerCount: 2
Fore
SplineSet
674 160 m 258
 709 160 724 144 724 124 c 256
 724 103 702 78 668 78 c 256
 638 78 607 78 579 76 c 257
 452 76 324 66 197 66 c 256
 153 66 118 89 118 110 c 256
 118 138 140 160 168 160 c 258
 674 160 l 258
555 645 m 257
 533 755 517 967 484 1184 c 257
 445 1019 390 777 374 678 c 257
 409 655 511 648 555 645 c 257
723 311 m 258
 723 309 l 258
 723 285 712 260 689 251 c 257
 640 251 598 260 598 319 c 256
 598 406 568 572 568 572 c 257
 366 602 l 257
 322 444 341 259 251 259 c 256
 221 259 186 281 186 314 c 256
 186 554 321 859 356 1100 c 257
 365 1169 363 1317 400 1373 c 257
 469 1373 l 258
 601 1373 723 431 723 311 c 258
EndSplineSet
EndChar

StartChar: gcircumflex
Encoding: 220 285 261
Width: 882
VWidth: 0
Flags: W
PickledData: "(dp1
S'lstem'
p2
I0
sS'com.fontlab.hintData'
p3
(dp4
S'vhints'
p5
((dp6
S'position'
p7
I168
sS'width'
p8
I111
s(dp9
g7
I595
sg8
I106
stp10
sS'hhints'
p11
((dp12
g7
I-38
sg8
I85
s(dp13
g7
I1269
sg8
I109
s(dp14
g7
I1540
sg8
I20
stp15
ss."
HStem: -38 85<417 502.5 413 561> 1269 109<350 354.5 243.5 413.5> 1540 20<527 588 588 588>
VStem: 168 111<544.5 748.5> 595 106<509 783>
LayerCount: 2
Fore
SplineSet
257 -227 m 257
 295 32 l 257
 185 166 168 463 168 626 c 256
 168 658 170 677 170 704 c 256
 170 711 169 714 167 714 c 257
 167 751 l 258
 167 860 166 1378 321 1378 c 256
 388 1378 444 1364 491 1338 c 257
 527 1560 l 257
 588 1560 l 257
 548 1296 l 257
 659 1194 701 1008 701 798 c 258
 701 783 l 258
 701 706 705 628 705 551 c 256
 705 368 690 -38 432 -38 c 256
 402 -38 375 -31 351 -17 c 257
 307 -274 l 257
 257 -227 l 257
367 89 m 257
 383 63 402 47 424 47 c 256
 581 47 595 454 595 564 c 256
 595 723 569 882 568 1041 c 257
 568 1077 l 257
 567 1117 555 1158 533 1192 c 257
 367 89 l 257
323 215 m 257
 477 1247 l 257
 454 1261 428 1269 399 1269 c 256
 301 1269 287 1141 287 1027 c 256
 287 981 289 937 289 906 c 256
 289 843 279 780 279 717 c 256
 279 650 284 391 323 215 c 257
EndSplineSet
EndChar

StartChar: p
Encoding: 80 112 263
Width: 720
VWidth: 0
Flags: W
PickledData: "(dp1
S'lstem'
p2
I0
sS'com.fontlab.hintData'
p3
(dp4
S'vhints'
p5
((dp6
S'position'
p7
I194
sS'width'
p8
I121
s(dp9
g7
I213
sg8
I99
s(dp10
g7
I438
sg8
I112
stp11
sS'hhints'
p12
((dp13
g7
I-39
sg8
I21
s(dp14
g7
I628
sg8
I85
s(dp15
g7
I1231
sg8
I111
stp16
ss."
HStem: -39 21<262 279> 628 85<315 316> 1231 111<312 313>
VStem: 194 121<344 348> 213 99<1048.5 1113.5> 438 112<1014 1097.5>
LayerCount: 2
Fore
SplineSet
197 1270 m 257
 202 1297 219 1342 252 1342 c 258
 342 1342 l 258
 507 1342 550 1180 550 1044 c 256
 550 831 547 699 315 628 c 257
 315 409 l 258
 315 279 331 151 331 21 c 256
 331 -14 296 -39 262 -39 c 257
 219 -14 l 257
 197 85 194 186 194 287 c 256
 194 409 202 530 202 652 c 257
 195 668 190 685 190 702 c 258
 190 709 l 257
 209 747 210 841 210 885 c 256
 210 944 213 1012 213 1080 c 256
 213 1147 211 1213 197 1270 c 257
334 1228 m 257
 334 1231 314 1231 312 1231 c 257
 312 1115 l 258
 312 982 315 849 316 716 c 257
 316 713 l 257
 435 729 438 969 438 1059 c 256
 438 1136 434 1228 334 1228 c 257
EndSplineSet
EndChar

StartChar: hcircumflex
Encoding: 228 293 264
Width: 1080
VWidth: 0
Flags: W
PickledData: "(dp1
S'lstem'
p2
I0
sS'com.fontlab.hintData'
p3
(dp4
S'vhints'
p5
((dp6
S'position'
p7
I126
sS'width'
p8
I112
s(dp9
g7
I555
sg8
I121
s(dp10
g7
I576
sg8
I111
s(dp11
g7
I598
sg8
I116
s(dp12
g7
I770
sg8
I114
stp13
sS'hhints'
p14
((dp15
g7
I-8
sg8
I9
s(dp16
g7
I1098
sg8
I98
s(dp17
g7
I1738
sg8
I116
s(dp18
g7
I1769
sg8
I107
stp19
ss."
HStem: -8 9 1098 98<508.5 583 483.5 594> 1738 116<827 907.5> 1769 107<692.5 696.5 671.5 722>
VStem: 126 112<1384 1455 1339.5 1565.5> 555 121<42.5 207.5> 576 111<1614 1694.5 1570.5 1697> 598 116<827 986.5> 770 114<998 1241.5>
LayerCount: 2
Fore
SplineSet
239 1454 m 257
 238 1455 l 257
 238 1224 386 1196 581 1196 c 256
 585 1196 592 1199 596 1200 c 257
 596 1366 576 1531 576 1697 c 257
 578 1740 l 257
 551 1748 524 1748 496 1748 c 256
 349 1748 239 1591 239 1454 c 257
870 1739 m 257
 871 1540 884 1341 884 1142 c 256
 884 850 872 557 872 265 c 256
 872 188 884 113 884 36 c 256
 884 4 857 -20 826 -20 c 256
 759 -20 751 52 751 103 c 256
 751 461 770 819 770 1177 c 256
 770 1326 755 1474 755 1623 c 256
 755 1642 758 1666 758 1689 c 256
 758 1731 748 1769 696 1769 c 256
 689 1769 687 1700 687 1689 c 256
 687 1452 714 1217 714 980 c 256
 714 674 676 370 676 64 c 256
 676 21 666 -8 617 -8 c 256
 581 -8 555 21 555 56 c 256
 555 359 598 661 598 964 c 256
 598 1009 595 1053 594 1098 c 257
 423 1098 185 1118 139 1321 c 256
 134 1342 135 1364 126 1384 c 257
 126 1747 291 1823 621 1854 c 257
 638 1871 660 1876 683 1876 c 256
 710 1876 737 1864 763 1859 c 257
 762 1858 l 257
 818 1865 l 257
 827 1854 l 257
 862 1852 950 1838 950 1790 c 256
 950 1759 922 1738 893 1738 c 256
 885 1738 878 1739 870 1739 c 257
EndSplineSet
EndChar

StartChar: parenleft
Encoding: 8 40 265
Width: 684
VWidth: 0
Flags: W
PickledData: "(dp1
S'lstem'
p2
I0
sS'com.fontlab.hintData'
p3
(dp4
S'vhints'
p5
((dp6
S'position'
p7
I182
sS'width'
p8
I102
stp9
ss."
VStem: 182 102<791 941>
LayerCount: 2
Fore
SplineSet
526 -319 m 257
 524 -318 l 257
 515 -340 494 -361 468 -361 c 256
 276 -361 182 701 182 881 c 256
 182 1001 261 1651 403 1651 c 258
 412 1651 l 257
 448 1621 l 257
 447 1545 403 1484 375 1416 c 256
 311 1259 284 1048 284 879 c 256
 284 583 315 139 438 -130 c 256
 467 -193 509 -251 526 -319 c 257
EndSplineSet
EndChar

StartChar: parenright
Encoding: 9 41 266
Width: 810
VWidth: 0
Flags: W
PickledData: "(dp1
S'lstem'
p2
I0
sS'com.fontlab.hintData'
p3
(dp4
S'vhints'
p5
((dp6
S'position'
p7
I514
sS'width'
p8
I103
stp9
ss."
VStem: 514 103<815 817 815 904.5>
LayerCount: 2
Fore
SplineSet
617 817 m 257
 617 815 l 257
 616 651 478 -303 308 -303 c 256
 281 -303 254 -284 254 -255 c 256
 254 -217 321 -112 340 -71 c 256
 443 158 514 564 514 816 c 256
 514 993 490 1253 423 1416 c 256
 397 1480 349 1538 349 1610 c 258
 349 1621 l 257
 386 1650 l 257
 552 1650 615 954 617 817 c 257
EndSplineSet
EndChar

StartChar: percent
Encoding: 5 37 267
Width: 1296
VWidth: 0
Flags: W
PickledData: "(dp1
S'lstem'
p2
I0
sS'com.fontlab.hintData'
p3
(dp4
S'vhints'
p5
((dp6
S'position'
p7
I158
sS'width'
p8
I99
s(dp9
g7
I462
sg8
I94
s(dp10
g7
I755
sg8
I98
s(dp11
g7
I770
sg8
I111
s(dp12
g7
I1052
sg8
I100
stp13
sS'hhints'
p14
((dp15
g7
I-8
sg8
I21
s(dp16
g7
I2
sg8
I114
s(dp17
g7
I700
sg8
I100
s(dp18
g7
I733
sg8
I105
s(dp19
g7
I1449
sg8
I104
stp20
ss."
HStem: -8 21 2 114<908 987.5 908 1019> 700 100<307 404 307 485.5> 733 105<902 992> 1449 104<315 398>
VStem: 158 99<1133.5 1187.5 1133.5 1209> 462 94<1054.5 1140> 755 98<347.5 397 347.5 437> 770 111<1437 1437> 1052 100<386 467 467 478>
LayerCount: 2
Fore
SplineSet
1052 467 m 258
 1052 535 1040 733 944 733 c 256
 860 733 853 428 853 366 c 256
 853 329 888 116 928 116 c 256
 1047 116 1052 303 1052 386 c 258
 1052 467 l 258
334 1449 m 256
 296 1449 257 1210 257 1165 c 256
 257 1102 264 800 350 800 c 256
 458 800 462 1017 462 1092 c 256
 462 1179 462 1449 334 1449 c 256
769 1438 m 257
 770 1437 l 257
 771 1467 786 1536 827 1536 c 256
 855 1536 881 1517 881 1487 c 256
 881 1294 664 558 609 308 c 256
 594 241 566 -4 479 -8 c 257
 458 4 440 27 440 52 c 256
 440 272 696 1167 769 1438 c 257
923 2 m 256
 787 2 755 270 755 370 c 256
 755 504 756 838 950 838 c 256
 1129 838 1152 612 1152 478 c 258
 1152 378 l 258
 1152 229 1115 2 923 2 c 256
556 1140 m 257
 555 1141 l 257
 503 999 618 700 353 700 c 256
 159 700 158 1025 158 1163 c 256
 158 1255 191 1553 327 1553 c 256
 532 1553 556 1300 556 1147 c 258
 556 1140 l 257
EndSplineSet
EndChar

StartChar: period
Encoding: 14 46 268
Width: 612
VWidth: 0
Flags: W
PickledData: "(dp1
S'lstem'
p2
I0
sS'com.fontlab.hintData'
p3
(dp4
S'vhints'
p5
((dp6
S'position'
p7
I222
sS'width'
p8
I150
stp9
sS'hhints'
p10
((dp11
g7
I-32
sg8
I152
stp12
ss."
HStem: -32 152<278.5 313.5>
VStem: 222 150<22.5 61.5>
LayerCount: 2
Fore
SplineSet
222 41 m 256
 222 82 258 120 299 120 c 256
 338 120 372 81 372 43 c 256
 372 -4 336 -32 291 -32 c 256
 253 -32 222 4 222 41 c 256
EndSplineSet
EndChar

StartChar: periodcentered
Encoding: 118 183 269
Width: 612
VWidth: 0
Flags: W
PickledData: "(dp1
S'lstem'
p2
I0
sS'com.fontlab.hintData'
p3
(dp4
S'vhints'
p5
((dp6
S'position'
p7
I222
sS'width'
p8
I150
stp9
sS'hhints'
p10
((dp11
g7
I633
sg8
I152
stp12
ss."
HStem: 633 152<278.5 313.5>
VStem: 222 150<687.5 726.5>
LayerCount: 2
Fore
SplineSet
222 706 m 256
 222 747 258 785 299 785 c 256
 338 785 372 746 372 708 c 256
 372 661 336 633 291 633 c 256
 253 633 222 669 222 706 c 256
EndSplineSet
EndChar

StartChar: plus
Encoding: 11 43 270
Width: 900
VWidth: 0
Flags: W
PickledData: "(dp1
S'lstem'
p2
I0
sS'com.fontlab.hintData'
p3
(dp4
S'vhints'
p5
((dp6
S'position'
p7
I359
sS'width'
p8
I127
s(dp9
g7
I372
sg8
I133
stp10
sS'hhints'
p11
((dp12
g7
I602
sg8
I99
stp13
ss."
HStem: 602 99
VStem: 359 127<525.5 599 525.5 599> 372 133<371 416.5 371 418>
LayerCount: 2
Fore
SplineSet
372 385 m 256
 372 451 359 518 359 584 c 258
 359 599 l 257
 331 599 285 590 245 590 c 256
 198 590 158 602 158 655 c 256
 158 682 175 708 204 708 c 256
 244 708 285 701 325 701 c 256
 341 701 356 702 372 705 c 257
 370 755 360 805 360 855 c 256
 360 900 367 968 426 968 c 256
 458 968 478 942 478 909 c 258
 478 884 l 257
 479 853 478 701 505 701 c 256
 530 701 578 709 624 709 c 256
 679 709 730 697 730 647 c 256
 730 615 704 591 672 591 c 256
 631 591 592 602 551 602 c 256
 517 602 486 593 486 553 c 256
 486 498 505 444 505 389 c 256
 505 353 470 333 438 333 c 256
 409 333 372 352 372 385 c 256
EndSplineSet
EndChar

StartChar: hbar
Encoding: 230 295 271
Width: 900
VWidth: 0
Flags: W
PickledData: "(dp1
S'lstem'
p2
I0
sS'com.fontlab.hintData'
p3
(dp4
S'vhints'
p5
((dp6
S'position'
p7
I360
sS'width'
p8
I126
s(dp9
g7
I372
sg8
I134
s(dp10
g7
I378
sg8
I108
stp11
sS'hhints'
p12
((dp13
g7
I135
sg8
I111
s(dp14
g7
I602
sg8
I99
stp15
ss."
HStem: 135 111<217.5 311.5> 602 99
VStem: 360 126<525.5 599> 372 134<371 416.5> 378 108<551 573 525.5 584>
LayerCount: 2
Fore
SplineSet
158 200 m 256
 158 228 176 246 204 246 c 258
 506 246 l 258
 548 246 590 253 632 253 c 256
 674 253 730 246 730 192 c 256
 730 158 702 145 672 145 c 256
 528 145 383 135 240 135 c 256
 195 135 158 149 158 200 c 256
372 385 m 256
 372 451 378 518 378 584 c 257
 360 599 l 257
 332 599 286 590 246 590 c 256
 199 590 158 602 158 655 c 256
 158 682 175 708 204 708 c 256
 244 708 286 701 326 701 c 256
 342 701 356 702 372 705 c 257
 370 755 360 805 360 855 c 256
 360 900 367 968 426 968 c 256
 458 968 486 942 486 909 c 258
 486 904 l 257
 478 884 l 257
 479 853 479 701 506 701 c 256
 531 701 578 709 624 709 c 256
 679 709 730 697 730 647 c 256
 730 615 704 591 672 591 c 256
 631 591 593 602 552 602 c 256
 518 602 486 593 486 553 c 256
 486 498 506 444 506 389 c 256
 506 353 470 333 438 333 c 256
 409 333 372 352 372 385 c 256
EndSplineSet
EndChar

StartChar: q
Encoding: 81 113 272
Width: 882
VWidth: 0
Flags: W
PickledData: "(dp1
S'lstem'
p2
I0
sS'com.fontlab.hintData'
p3
(dp4
S'vhints'
p5
((dp6
S'position'
p7
I177
sS'width'
p8
I102
s(dp9
g7
I601
sg8
I109
stp10
sS'hhints'
p11
((dp12
g7
I-434
sg8
I108
s(dp13
g7
I1288
sg8
I81
stp14
ss."
HStem: -434 108<583 644> 1288 81<349.5 411 303 493>
VStem: 177 102<376.5 742> 601 109<723.5 869 869 901 723.5 936.5>
LayerCount: 2
Fore
SplineSet
630 -434 m 257
 630 -432 l 257
 577 -432 510 -427 472 -385 c 257
 472 -276 448 -169 427 -62 c 257
 204 -14 177 244 177 509 c 256
 177 592 180 676 180 754 c 256
 180 903 195 1369 411 1369 c 257
 441 1356 474 1353 504 1341 c 256
 698 1262 710 990 710 812 c 256
 710 635 707 30 527 -49 c 257
 527 -143 563 -235 583 -326 c 257
 624 -326 678 -333 678 -384 c 256
 678 -412 658 -434 630 -434 c 257
399 1288 m 256
 300 1288 279 785 279 699 c 256
 279 590 279 7 421 6 c 257
 440 14 461 18 481 18 c 256
 536 18 601 439 601 511 c 258
 601 869 l 258
 601 1004 587 1288 399 1288 c 256
EndSplineSet
EndChar

StartChar: question
Encoding: 31 63 273
Width: 702
VWidth: 0
Flags: W
PickledData: "(dp1
S'lstem'
p2
I0
sS'com.fontlab.hintData'
p3
(dp4
S'vhints'
p5
((dp6
S'position'
p7
I194
sS'width'
p8
I119
s(dp9
g7
I262
sg8
I155
s(dp10
g7
I284
sg8
I100
s(dp11
g7
I399
sg8
I110
stp12
sS'hhints'
p13
((dp14
g7
I-8
sg8
I156
s(dp15
g7
I1447
sg8
I100
stp16
ss."
HStem: -8 156<322 358> 1447 100<321.5 367.5>
VStem: 194 119<1243 1359 1243 1402.5> 262 155<49.5 86 42.5 87.5> 284 100<349 450.5> 399 110<1103.5 1277.5>
LayerCount: 2
Fore
SplineSet
262 68 m 256
 262 107 302 148 342 148 c 256
 379 148 417 102 417 70 c 256
 417 15 382 -8 334 -8 c 256
 294 -8 262 31 262 68 c 256
194 1359 m 258
 194 1446 224 1547 334 1547 c 256
 494 1547 509 1388 509 1260 c 256
 509 945 384 823 384 366 c 256
 384 332 384 267 385 229 c 257
 324 229 353 223 334 223 c 256
 313 223 294 232 284 269 c 257
 284 632 399 949 399 1258 c 256
 399 1297 397 1447 338 1447 c 256
 305 1447 299 1397 299 1356 c 256
 299 1341 305 1299 313 1245 c 256
 313 1241 276 1203 252 1203 c 256
 197 1203 194 1286 194 1340 c 258
 194 1359 l 258
EndSplineSet
EndChar

StartChar: quotedbl
Encoding: 2 34 275
Width: 702
VWidth: 0
Flags: W
PickledData: "(dp1
S'lstem'
p2
I0
sS'com.fontlab.hintData'
p3
(dp4
S'vhints'
p5
((dp6
S'position'
p7
I222
sS'width'
p8
I91
s(dp9
g7
I408
sg8
I95
stp10
sS'hhints'
p11
((dp12
g7
I1193
sg8
I385
stp13
ss."
HStem: 1193 385<229 278 231 278 254 437 254 444>
VStem: 222 91<1483 1512.5 1459 1545> 408 95<1531 1531>
LayerCount: 2
Fore
SplineSet
437 1193 m 258
 424 1193 408 1435 408 1531 c 256
 408 1559 441 1578 469 1578 c 256
 488 1578 498 1556 503 1531 c 257
 500 1433 477 1193 444 1193 c 258
 437 1193 l 258
231 1193 m 258
 227 1193 222 1435 222 1531 c 256
 222 1559 245 1578 263 1578 c 256
 293 1578 308 1556 312 1525 c 256
 312 1521 313 1514 313 1511 c 256
 313 1407 278 1193 238 1193 c 258
 231 1193 l 258
EndSplineSet
EndChar

StartChar: quotedblbase
Encoding: 451 8222 276
Width: 810
VWidth: 0
Flags: W
PickledData: "(dp1
S'lstem'
p2
I0
sS'com.fontlab.hintData'
p3
(dp4
S'vhints'
p5
((dp6
S'position'
p7
I126
sS'width'
p8
I483
stp9
sS'hhints'
p10
((dp11
g7
I-370
sg8
I496
stp12
ss."
HStem: -370 496<409.5 594.5>
VStem: 126 483<-343.5 95.5>
LayerCount: 2
Fore
SplineSet
588 126 m 256
 601 126 609 110 609 81 c 256
 609 -100 474 -370 417 -370 c 256
 402 -370 395 -354 395 -329 c 256
 395 -226 468 126 588 126 c 256
144 -371 m 257
 131 -368 126 -354 126 -333 c 256
 126 -285 198 116 295 116 c 256
 323 116 332 95 332 71 c 256
 332 -107 223 -371 144 -371 c 257
EndSplineSet
EndChar

StartChar: quotedblleft
Encoding: 449 8220 277
Width: 792
VWidth: 0
Flags: W
PickledData: "(dp1
S'lstem'
p2
I0
sS'com.fontlab.hintData'
p3
(dp4
S'vhints'
p5
((dp6
S'position'
p7
I182
sS'width'
p8
I463
stp9
sS'hhints'
p10
((dp11
g7
I1081
sg8
I496
stp12
ss."
HStem: 1081 496<196.5 381.5>
VStem: 182 463<1111.5 1551.5>
LayerCount: 2
Fore
SplineSet
203 1081 m 256
 190 1081 182 1097 182 1126 c 256
 182 1307 317 1577 374 1577 c 256
 389 1577 396 1561 396 1536 c 256
 396 1433 323 1081 203 1081 c 256
627 1578 m 257
 640 1575 645 1562 645 1541 c 256
 645 1493 573 1091 476 1091 c 256
 448 1091 438 1112 438 1136 c 256
 438 1314 548 1578 627 1578 c 257
EndSplineSet
EndChar

StartChar: quotedblright
Encoding: 450 8221 278
Width: 810
VWidth: 0
Flags: W
PickledData: "(dp1
S'lstem'
p2
I0
sS'com.fontlab.hintData'
p3
(dp4
S'vhints'
p5
((dp6
S'position'
p7
I182
sS'width'
p8
I473
stp9
sS'hhints'
p10
((dp11
g7
I1082
sg8
I496
stp12
ss."
HStem: 1082 496<455.5 640.5>
VStem: 182 473<1108.5 1547.5>
LayerCount: 2
Fore
SplineSet
634 1578 m 256
 647 1578 655 1562 655 1533 c 256
 655 1352 520 1082 463 1082 c 256
 448 1082 441 1098 441 1123 c 257
 501 1377 489 1578 634 1578 c 256
200 1081 m 257
 187 1084 182 1098 182 1119 c 256
 182 1167 254 1568 351 1568 c 256
 379 1568 388 1547 388 1523 c 256
 388 1345 279 1081 200 1081 c 257
EndSplineSet
EndChar

StartChar: quoteleft
Encoding: 446 8216 279
Width: 630
VWidth: 0
Flags: W
PickledData: "(dp1
S'lstem'
p2
I0
sS'com.fontlab.hintData'
p3
(dp4
S'vhints'
p5
((dp6
S'position'
p7
I206
sS'width'
p8
I214
stp9
sS'hhints'
p10
((dp11
g7
I1081
sg8
I496
stp12
ss."
HStem: 1081 496<220.5 405.5>
VStem: 206 214
LayerCount: 2
Fore
SplineSet
227 1081 m 256
 214 1081 206 1097 206 1126 c 256
 206 1307 341 1577 398 1577 c 256
 413 1577 420 1561 420 1536 c 256
 420 1433 347 1081 227 1081 c 256
EndSplineSet
EndChar

StartChar: quoteright
Encoding: 447 8217 280
Width: 612
VWidth: 0
Flags: W
PickledData: "(dp1
S'lstem'
p2
I0
sS'com.fontlab.hintData'
p3
(dp4
S'vhints'
p5
((dp6
S'position'
p7
I206
sS'width'
p8
I206
stp9
sS'hhints'
p10
((dp11
g7
I1081
sg8
I487
stp12
ss."
HStem: 1081 487<224 389>
VStem: 206 206
LayerCount: 2
Fore
SplineSet
224 1081 m 257
 211 1084 206 1098 206 1119 c 256
 206 1167 278 1568 375 1568 c 256
 403 1568 412 1547 412 1523 c 256
 412 1345 303 1081 224 1081 c 257
EndSplineSet
EndChar

StartChar: quotesinglbase
Encoding: 448 8218 281
Width: 684
VWidth: 0
Flags: W
PickledData: "(dp1
S'lstem'
p2
I0
sS'com.fontlab.hintData'
p3
(dp4
S'vhints'
p5
((dp6
S'position'
p7
I254
sS'width'
p8
I206
stp9
sS'hhints'
p10
((dp11
g7
I-333
sg8
I487
stp12
ss."
HStem: -333 487<272 437>
VStem: 254 206
LayerCount: 2
Fore
SplineSet
272 -333 m 257
 259 -330 254 -316 254 -295 c 256
 254 -247 326 154 423 154 c 256
 451 154 460 133 460 109 c 256
 460 -69 351 -333 272 -333 c 257
EndSplineSet
EndChar

StartChar: quotesingle
Encoding: 7 39 282
Width: 558
VWidth: 0
Flags: W
PickledData: "(dp1
S'lstem'
p2
I0
sS'com.fontlab.hintData'
p3
(dp4
S'vhints'
p5
((dp6
S'position'
p7
I222
sS'width'
p8
I111
stp9
sS'hhints'
p10
((dp11
g7
I1193
sg8
I385
stp12
ss."
HStem: 1193 385<244.5 298 251 298>
VStem: 222 111<1483 1512.5 1459 1545>
LayerCount: 2
Fore
SplineSet
251 1193 m 258
 238 1193 222 1435 222 1531 c 256
 222 1559 255 1578 283 1578 c 256
 313 1578 328 1556 337 1531 c 257
 332 1525 l 257
 332 1521 333 1514 333 1511 c 256
 333 1407 298 1193 258 1193 c 258
 251 1193 l 258
EndSplineSet
EndChar

StartChar: r
Encoding: 82 114 283
Width: 720
VWidth: 0
Flags: W
PickledData: "(dp1
S'lstem'
p2
I0
sS'com.fontlab.hintData'
p3
(dp4
S'vhints'
p5
((dp6
S'position'
p7
I182
sS'width'
p8
I104
s(dp9
g7
I217
sg8
I66
s(dp10
g7
I401
sg8
I102
stp11
sS'hhints'
p12
((dp13
g7
I-18
sg8
I4
s(dp14
g7
I1289
sg8
I76
stp15
ss."
HStem: -18 4 1289 76
VStem: 182 104<1181 1264.5 1181 1291> 217 66<126 502> 401 102<1060.5 1136.5>
LayerCount: 2
Fore
SplineSet
401 1098 m 256
 401 1175 395 1287 293 1289 c 257
 291 1280 286 1269 286 1260 c 256
 286 1102 293 945 294 787 c 257
 366 824 401 1023 401 1098 c 256
545 -35 m 256
 421 -35 359 573 310 686 c 257
 285 686 l 257
 285 615 283 540 283 464 c 256
 283 319 289 169 322 37 c 257
 299 -18 l 257
 242 -18 l 257
 215 12 l 257
 216 58 217 103 217 149 c 256
 217 518 182 898 182 1268 c 256
 182 1314 193 1365 250 1365 c 256
 384 1365 503 1295 503 1149 c 258
 503 1005 l 258
 503 912 440 817 398 736 c 257
 444 533 470 296 557 107 c 256
 569 80 591 47 591 17 c 256
 591 -10 574 -35 545 -35 c 256
EndSplineSet
EndChar

StartChar: ring
Encoding: 403 730 287
Width: 882
VWidth: 0
Flags: W
PickledData: "(dp1
S'lstem'
p2
I0
sS'com.fontlab.hintData'
p3
(dp4
S'vhints'
p5
((dp6
S'position'
p7
I174
sS'width'
p8
I76
s(dp9
g7
I632
sg8
I68
stp10
sS'hhints'
p11
((dp12
g7
I102
sg8
I77
s(dp13
g7
I565
sg8
I69
stp14
ss."
HStem: 102 77<369 505 369 528.5> 565 69<351 503>
VStem: 174 76<338 383 300 463> 632 68<362.5 424.5>
LayerCount: 2
Fore
SplineSet
174 395 m 256
 174 531 265 634 406 634 c 256
 643 634 700 485 700 397 c 256
 700 313 651 102 406 102 c 256
 215 102 174 281 174 395 c 256
416 565 m 256
 286 565 250 437 250 329 c 256
 250 271 324 179 414 179 c 256
 596 179 632 332 632 393 c 256
 632 456 590 565 416 565 c 256
EndSplineSet
EndChar

StartChar: s
Encoding: 83 115 288
Width: 720
VWidth: 0
Flags: W
PickledData: "(dp1
S'lstem'
p2
I0
sS'com.fontlab.hintData'
p3
(dp4
S'vhints'
p5
((dp6
S'position'
p7
I191
sS'width'
p8
I100
s(dp9
g7
I436
sg8
I100
stp10
sS'hhints'
p11
((dp12
g7
I-23
sg8
I94
s(dp13
g7
I1261
sg8
I120
stp14
ss."
HStem: -23 94<282 353.5> 1261 120<308 438.5>
VStem: 191 100<943 1101 943 1140> 436 100<326.5 499>
LayerCount: 2
Fore
SplineSet
291 1075 m 256
 291 811 536 689 536 342 c 256
 536 191 466 -19 282 -23 c 257
 282 -28 l 257
 238 -22 196 3 190 51 c 257
 213 86 l 257
 241 82 269 71 298 71 c 256
 409 71 436 286 436 367 c 256
 436 631 191 790 191 1086 c 256
 191 1194 240 1381 376 1381 c 256
 420 1381 477 1349 477 1300 c 256
 477 1273 450 1261 427 1261 c 256
 413 1261 396 1266 384 1273 c 257
 316 1271 291 1127 291 1075 c 256
EndSplineSet
EndChar

StartChar: scircumflex
Encoding: -1 349 292
Width: 756
VWidth: 0
Flags: W
PickledData: "(dp1
S'lstem'
p2
I0
sS'com.fontlab.hintData'
p3
(dp4
S'vhints'
p5
((dp6
S'position'
p7
I184
sS'width'
p8
I117
s(dp9
g7
I206
sg8
I117
s(dp10
g7
I457
sg8
I106
stp11
sS'hhints'
p12
((dp13
g7
I-11
sg8
I21
s(dp14
g7
I1528
sg8
I20
stp15
ss."
HStem: -11 21<237 280.5> 1528 20<213.5 264>
VStem: 184 117<991.5 1245.5> 206 117<51.5 140.5 51.5 245> 457 106<769 913>
LayerCount: 2
Fore
SplineSet
457 828 m 256
 457 998 433 1027 304 1129 c 257
 298 1129 l 257
 298 943 302 757 302 571 c 257
 396 635 457 710 457 828 c 256
184 1178 m 257
 182 1487 l 258
 182 1522 194 1548 233 1548 c 256
 295 1548 308 1463 308 1380 c 256
 308 1318 301 1258 301 1233 c 257
 482 1207 563 1008 563 845 c 256
 563 670 465 540 307 472 c 257
 308 339 323 207 323 74 c 256
 323 29 306 -11 255 -11 c 256
 219 -11 206 28 206 58 c 256
 206 432 184 805 184 1178 c 257
EndSplineSet
EndChar

StartChar: section
Encoding: 102 167 294
Width: 720
VWidth: 0
Flags: W
PickledData: "(dp1
S'lstem'
p2
I0
sS'com.fontlab.hintData'
p3
(dp4
S'vhints'
p5
((dp6
S'position'
p7
I174
sS'width'
p8
I100
s(dp9
g7
I207
sg8
I82
s(dp10
g7
I419
sg8
I100
s(dp11
g7
I434
sg8
I100
stp12
sS'hhints'
p13
((dp14
g7
I1
sg8
I120
stp15
ss."
HStem: 1 120<271.5 395.5>
VStem: 174 100<748 817.5 748 857.5> 207 82<1230.5 1330> 419 100<231.5 286 192.5 357> 434 100<630.5 701.5>
LayerCount: 2
Fore
SplineSet
434 649 m 256
 434 754 372 840 318 925 c 257
 290 890 274 840 274 795 c 256
 274 701 331 622 385 549 c 257
 413 573 434 612 434 649 c 256
534 634 m 256
 534 566 502 502 445 465 c 257
 487 399 519 326 519 246 c 256
 519 139 457 1 334 1 c 256
 290 1 233 33 233 82 c 256
 233 109 260 121 283 121 c 256
 297 121 314 116 326 109 c 257
 388 110 419 206 419 257 c 256
 419 457 174 550 174 820 c 256
 174 895 204 972 265 1018 c 257
 226 1099 207 1186 207 1275 c 256
 207 1385 262 1443 374 1443 c 256
 401 1443 475 1430 475 1392 c 256
 475 1308 289 1405 289 1277 c 256
 289 1046 534 943 534 634 c 256
EndSplineSet
EndChar

StartChar: semicolon
Encoding: 27 59 295
Width: 630
VWidth: 0
Flags: W
PickledData: "(dp1
S'lstem'
p2
I0
sS'com.fontlab.hintData'
p3
(dp4
S'vhints'
p5
((dp6
S'position'
p7
I274
sS'width'
p8
I149
stp9
sS'hhints'
p10
((dp11
g7
I-28
sg8
I21
s(dp12
g7
I952
sg8
I152
stp13
ss."
HStem: -28 21<220 273> 952 152<329.5 364.5>
VStem: 274 149<1006.5 1045>
LayerCount: 2
Fore
SplineSet
339 359 m 256
 389 359 410 315 410 251 c 256
 410 159 318 -28 228 -28 c 256
 212 -28 198 -18 198 -1 c 256
 198 11 204 28 223 44 c 257
 287 138 261 359 339 359 c 256
274 1025 m 256
 274 1065 309 1104 350 1104 c 256
 389 1104 423 1065 423 1027 c 256
 423 980 387 952 342 952 c 256
 304 952 274 988 274 1025 c 256
EndSplineSet
EndChar

StartChar: seven
Encoding: 23 55 296
Width: 684
VWidth: 0
Flags: W
PickledData: "(dp1
S'lstem'
p2
I0
sS'com.fontlab.hintData'
p3
(dp4
S'vhints'
p5
((dp6
S'position'
p7
I179
sS'width'
p8
I119
stp9
sS'hhints'
p10
((dp11
g7
I-11
sg8
I21
s(dp12
g7
I1498
sg8
I84
stp13
ss."
HStem: -11 21<218 243> 1498 84<330.5 400>
VStem: 179 119<24 104.5>
LayerCount: 2
Fore
SplineSet
297 119 m 257
 298 114 298 108 298 101 c 256
 298 55 268 -11 218 -11 c 257
 179 24 l 257
 179 80 202 129 216 182 c 256
 323 587 391 1070 400 1494 c 257
 384 1496 368 1498 352 1498 c 256
 309 1498 265 1493 222 1489 c 257
 200 1499 174 1522 174 1549 c 256
 174 1580 314 1582 362 1582 c 258
 400 1582 l 258
 446 1582 490 1578 504 1523 c 257
 432 1169 412 448 297 119 c 257
EndSplineSet
EndChar

StartChar: six
Encoding: 22 54 297
Width: 774
VWidth: 0
Flags: W
PickledData: "(dp1
S'lstem'
p2
I0
sS'com.fontlab.hintData'
p3
(dp4
S'vhints'
p5
((dp6
S'position'
p7
I193
sS'width'
p8
I101
s(dp9
g7
I477
sg8
I96
stp10
sS'hhints'
p11
((dp12
g7
I-14
sg8
I87
s(dp13
g7
I1475
sg8
I111
stp14
ss."
HStem: -14 87<361.5 450 361.5 485.5> 1475 111
VStem: 193 101<702.5 740> 477 96<194.5 266>
LayerCount: 2
Fore
SplineSet
194 880 m 256
 194 1030 193 1586 414 1586 c 256
 434 1586 462 1567 462 1545 c 256
 462 1505 417 1482 384 1475 c 257
 327 1419 299 1044 295 949 c 257
 306 951 317 952 327 952 c 256
 563 952 573 396 573 236 c 256
 573 114 563 -14 408 -14 c 256
 211 -14 193 414 193 706 c 256
 193 774 194 834 194 880 c 256
424 73 m 256
 476 73 477 177 477 212 c 256
 477 320 457 860 339 882 c 257
 297 853 294 814 294 770 c 256
 294 635 299 73 424 73 c 256
EndSplineSet
EndChar

StartChar: slash
Encoding: 15 47 298
Width: 774
VWidth: 0
Flags: W
PickledData: "(dp1
S'lstem'
p2
I0
sS'com.fontlab.hintData'
p3
(dp4
S'vhints'
p5
((dp6
S'position'
p7
I558
sS'width'
p8
I57
stp9
sS'hhints'
p10
((dp11
g7
I-54
sg8
I21
s(dp12
g7
I1547
sg8
I20
stp13
ss."
HStem: -54 21<184 194> 1547 20<573.5 586>
VStem: 558 57
LayerCount: 2
Fore
SplineSet
558 1553 m 256
 561 1562 569 1567 578 1567 c 256
 594 1567 615 1552 615 1520 c 256
 615 1515 614 1509 613 1503 c 256
 578 1324 308 181 210 -31 c 257
 207 -46 198 -54 190 -54 c 256
 178 -54 166 -38 166 -9 c 256
 166 2 168 15 172 30 c 256
 209 153 482 1303 558 1553 c 256
EndSplineSet
EndChar

StartChar: sterling
Encoding: 98 163 300
Width: 954
VWidth: 0
Flags: W
PickledData: "(dp1
S'lstem'
p2
I0
sS'com.fontlab.hintData'
p3
(dp4
S'vhints'
p5
((dp6
S'position'
p7
I170
sS'width'
p8
I99
s(dp9
g7
I319
sg8
I97
stp10
sS'hhints'
p11
((dp12
g7
I27
sg8
I98
s(dp13
g7
I894
sg8
I72
s(dp14
g7
I1359
sg8
I21
s(dp15
g7
I1359
sg8
I21
s(dp16
g7
I1535
sg8
I97
stp17
ss."
HStem: 27 98<596.5 653.5 589 700.5> 894 72<172 195 158 212> 1359 21<460.5 529.5> 1359 21<460.5 529.5> 1535 97<355 380 380 408>
VStem: 170 99<1198.5 1243 1243 1270 1198.5 1283.5> 319 97<353.5 466 341.5 470.5>
LayerCount: 2
Fore
SplineSet
744 146 m 256
 775 146 799 123 799 96 c 256
 799 59 750 27 651 27 c 256
 542 27 474 57 370 68 c 257
 370 71 l 257
 333 70 221 21 186 2 c 257
 186 6 l 257
 161 8 128 23 128 53 c 256
 128 123 215 125 257 158 c 256
 304 194 319 325 319 382 c 256
 319 559 253 725 212 894 c 257
 132 894 118 906 118 918 c 258
 118 924 l 258
 118 943 121 966 195 966 c 257
 192 1057 170 1147 170 1238 c 256
 170 1329 189 1632 355 1632 c 258
 380 1632 l 258
 460 1632 547 1474 547 1403 c 256
 547 1380 544 1359 515 1359 c 256
 406 1359 455 1535 361 1535 c 256
 294 1535 269 1340 269 1270 c 258
 269 1243 l 258
 269 1154 270 1062 288 976 c 257
 357 976 424 979 493 979 c 256
 519 979 545 957 545 928 c 256
 545 909 452 910 309 900 c 257
 340 728 416 554 416 378 c 256
 416 305 390 238 369 169 c 257
 459 162 544 125 634 125 c 256
 673 125 707 146 744 146 c 256
EndSplineSet
EndChar

StartChar: t
Encoding: 84 116 301
Width: 702
VWidth: 0
Flags: W
PickledData: "(dp1
S'lstem'
p2
I145
sS'com.fontlab.hintData'
p3
(dp4
S'vhints'
p5
((dp6
S'position'
p7
I283
sS'width'
p8
I100
s(dp9
g7
I339
sg8
I112
stp10
sS'hhints'
p11
((dp12
g7
I1237
sg8
I104
s(dp13
g7
I1255
sg8
I105
stp14
ss."
HStem: 1237 104<405.5 497> 1255 105
VStem: 283 100 339 112<164 201.5>
LayerCount: 2
Fore
SplineSet
339 190 m 256
 339 213 341 237 342 260 c 257
 330 299 285 1154 283 1255 c 257
 241 1256 109 1255 109 1316 c 256
 109 1344 151 1360 174 1360 c 256
 267 1360 359 1341 452 1341 c 256
 462 1341 473 1342 485 1342 c 256
 517 1342 549 1336 549 1293 c 256
 549 1257 513 1237 481 1237 c 256
 449 1237 418 1247 387 1251 c 257
 386 1245 383 1237 383 1230 c 256
 383 841 451 456 451 67 c 256
 451 34 414 6 381 6 c 257
 343 33 l 257
 343 85 339 138 339 190 c 256
EndSplineSet
EndChar

StartChar: tbar
Encoding: 294 359 302
Width: 720
VWidth: 0
Flags: W
PickledData: "(dp1
S'lstem'
p2
I0
sS'com.fontlab.hintData'
p3
(dp4
S'vhints'
p5
((dp6
S'position'
p7
I283
sS'width'
p8
I100
s(dp9
g7
I339
sg8
I112
stp10
sS'hhints'
p11
((dp12
g7
I656
sg8
I126
s(dp13
g7
I669
sg8
I129
s(dp14
g7
I1237
sg8
I104
s(dp15
g7
I1255
sg8
I105
stp16
ss."
HStem: 656 126 669 129 1237 104<405.5 497> 1255 105
VStem: 283 100 339 112<164 167.5 50.5 201.5>
LayerCount: 2
Fore
SplineSet
339 190 m 256
 339 213 341 237 342 260 c 257
 337 277 325 457 313 660 c 257
 269 657 232 656 216 656 c 256
 183 656 149 680 149 715 c 256
 149 750 223 770 306 782 c 257
 294 997 284 1208 283 1255 c 257
 241 1256 109 1255 109 1316 c 256
 109 1344 151 1360 174 1360 c 256
 267 1360 359 1341 452 1341 c 256
 462 1341 473 1342 485 1342 c 256
 517 1342 549 1336 549 1293 c 256
 549 1257 513 1237 481 1237 c 256
 449 1237 418 1247 387 1251 c 257
 386 1245 383 1237 383 1230 c 256
 383 1084 393 938 405 793 c 257
 459 797 504 798 523 798 c 256
 556 798 591 775 591 739 c 256
 591 701 505 680 415 669 c 257
 433 469 451 268 451 67 c 256
 451 34 414 6 381 6 c 257
 343 33 l 257
 343 85 339 138 339 190 c 256
EndSplineSet
EndChar

StartChar: scircumflex
Encoding: 284 349 305
Width: 756
VWidth: 0
Flags: W
PickledData: "(dp1
S'lstem'
p2
I0
sS'com.fontlab.hintData'
p3
(dp4
S'vhints'
p5
((dp6
S'position'
p7
I184
sS'width'
p8
I117
s(dp9
g7
I206
sg8
I117
s(dp10
g7
I457
sg8
I106
stp11
sS'hhints'
p12
((dp13
g7
I-11
sg8
I21
s(dp14
g7
I1528
sg8
I20
stp15
ss."
HStem: -11 21<237 280.5> 1528 20<213.5 264>
VStem: 184 117<991.5 1245.5> 206 117<51.5 140.5 51.5 245> 457 106<769 913>
LayerCount: 2
Fore
SplineSet
457 828 m 256
 457 998 433 1027 304 1129 c 257
 298 1129 l 257
 298 943 302 757 302 571 c 257
 396 635 457 710 457 828 c 256
184 1178 m 257
 182 1487 l 258
 182 1522 194 1548 233 1548 c 256
 295 1548 308 1463 308 1380 c 256
 308 1318 301 1258 301 1233 c 257
 482 1207 563 1008 563 845 c 256
 563 670 465 540 307 472 c 257
 308 339 323 207 323 74 c 256
 323 29 306 -11 255 -11 c 256
 219 -11 206 28 206 58 c 256
 206 432 184 805 184 1178 c 257
EndSplineSet
EndChar

StartChar: three
Encoding: 19 51 306
Width: 774
VWidth: 0
Flags: W
PickledData: "(dp1
S'lstem'
p2
I0
sS'com.fontlab.hintData'
p3
(dp4
S'vhints'
p5
((dp6
S'position'
p7
I413
sS'width'
p8
I102
s(dp9
g7
I491
sg8
I103
stp10
sS'hhints'
p11
((dp12
g7
I-20
sg8
I84
s(dp13
g7
I1360
sg8
I21
s(dp14
g7
I1360
sg8
I21
s(dp15
g7
I1477
sg8
I96
stp16
ss."
HStem: -20 84<353.5 423.5 331.5 481.5> 1360 21<155 212.5> 1360 21<155 212.5> 1477 96<268 352.5>
VStem: 413 102<1083 1183> 491 103<287 388>
LayerCount: 2
Fore
SplineSet
515 1124 m 256
 515 1040 466 993 423 927 c 257
 561 844 594 509 594 361 c 256
 594 213 581 -20 382 -20 c 256
 325 -20 231 5 231 76 c 256
 231 101 233 110 265 110 c 256
 307 110 297 64 366 64 c 256
 481 64 491 207 491 294 c 256
 491 482 489 694 366 849 c 257
 360 847 353 847 345 847 c 256
 315 847 282 859 282 889 c 256
 283 950 413 1016 413 1150 c 256
 413 1216 399 1477 306 1477 c 256
 230 1477 254 1360 171 1360 c 256
 139 1360 115 1387 110 1416 c 257
 144 1501 213 1573 310 1573 c 256
 481 1573 515 1292 515 1124 c 256
EndSplineSet
EndChar

StartChar: tilde
Encoding: 405 732 308
Width: 828
VWidth: 0
Flags: W
PickledData: "(dp1
S'lstem'
p2
I0
sS'com.fontlab.hintData'
p3
(dp4
S'vhints'
p5
((dp6
S'position'
p7
I174
sS'width'
p8
I477
stp9
sS'hhints'
p10
((dp11
g7
I1038
sg8
I103
s(dp12
g7
I1125
sg8
I99
stp13
ss."
HStem: 1038 103<474 524.5 474 554.5> 1125 99<301 341.5>
VStem: 174 477<1134.5 1136>
LayerCount: 2
Fore
SplineSet
584 1223 m 256
 631 1223 651 1194 651 1170 c 256
 651 1099 590 1038 519 1038 c 256
 360 1038 382 1125 301 1125 c 257
 253 1107 302 1065 248 1046 c 257
 211 1046 174 1063 174 1105 c 256
 174 1167 227 1224 322 1224 c 256
 371 1224 453 1141 495 1141 c 256
 554 1141 524 1223 584 1223 c 256
EndSplineSet
EndChar

StartChar: trademark
Encoding: 463 8482 309
Width: 1098
VWidth: 0
Flags: W
PickledData: "(dp1
S'lstem'
p2
I0
sS'com.fontlab.hintData'
p3
(dp4
S'vhints'
p5
((dp6
S'position'
p7
I195
sS'width'
p8
I106
s(dp9
g7
I434
sg8
I125
s(dp10
g7
I809
sg8
I112
s(dp11
g7
I935
sg8
I1
stp12
sS'hhints'
p13
((dp14
g7
I1475
sg8
I120
s(dp15
g7
I1475
sg8
I99
stp16
ss."
HStem: 1475 120 1475 99<44 121.5>
VStem: 195 106<1129.5 1388.5> 434 125<674 827> 809 112 935 1<786 793>
LayerCount: 2
Fore
SplineSet
205 787 m 258
 205 924 195 1061 195 1198 c 256
 195 1266 201 1332 201 1400 c 256
 201 1428 200 1456 197 1484 c 257
 179 1482 140 1475 103 1475 c 256
 61 1475 21 1484 21 1520 c 258
 21 1533 l 257
 44 1574 l 257
 149 1583 254 1595 359 1595 c 256
 381 1595 402 1591 424 1591 c 257
 463 1552 l 257
 463 1547 l 257
 466 1574 511 1616 538 1616 c 256
 565 1616 583 1594 599 1575 c 257
 596 1565 595 1554 595 1542 c 256
 595 1433 681 1229 694 1129 c 257
 741 1259 777 1393 807 1528 c 256
 818 1576 823 1639 887 1639 c 256
 916 1639 943 1617 943 1587 c 256
 943 1442 921 1298 921 1153 c 256
 921 1031 935 908 935 786 c 257
 936 793 l 257
 936 785 l 258
 936 728 934 625 859 625 c 256
 830 625 805 642 805 673 c 256
 805 752 817 829 817 908 c 256
 817 985 811 1062 809 1139 c 257
 797 1102 778 1077 778 1036 c 257
 773 1027 l 257
 769 981 747 845 685 845 c 256
 597 845 572 1174 551 1254 c 257
 547 1168 547 1082 547 996 c 256
 547 928 559 861 559 793 c 256
 559 742 557 621 482 621 c 256
 443 621 434 658 434 690 c 256
 434 764 447 836 447 910 c 256
 447 1002 445 1095 445 1189 c 256
 445 1303 448 1417 460 1529 c 257
 450 1486 400 1485 364 1485 c 257
 306 1487 l 257
 302 1448 301 1408 301 1369 c 256
 301 1206 314 1044 314 881 c 256
 314 827 313 773 309 719 c 257
 311 712 317 698 317 691 c 256
 317 654 278 637 248 629 c 257
 194 657 l 257
 204 688 205 723 205 757 c 258
 205 787 l 258
EndSplineSet
EndChar

StartChar: two
Encoding: 18 50 310
Width: 774
VWidth: 0
Flags: W
PickledData: "(dp1
S'lstem'
p2
I0
sS'com.fontlab.hintData'
p3
(dp4
S'vhints'
p5
((dp6
S'position'
p7
I494
sS'width'
p8
I98
stp9
sS'hhints'
p10
((dp11
g7
I-15
sg8
I21
s(dp12
g7
I4
sg8
I103
stp13
ss."
HStem: -15 21<207 277> 4 103<485 521 482 537>
VStem: 494 98<1061 1270.5>
LayerCount: 2
Fore
SplineSet
279 86 m 257
 356 99 443 107 521 107 c 257
 546 89 564 70 564 49 c 256
 564 35 556 20 537 4 c 257
 433 4 329 -15 225 -15 c 256
 189 -15 150 7 150 47 c 258
 150 55 l 257
 208 125 226 218 263 299 c 256
 405 614 494 886 494 1236 c 256
 494 1305 490 1492 396 1500 c 257
 340 1470 366 1327 290 1327 c 256
 252 1327 240 1357 240 1390 c 256
 240 1465 280 1586 372 1586 c 257
 372 1587 l 257
 591 1587 592 1357 592 1201 c 256
 592 772 386 409 279 86 c 257
EndSplineSet
EndChar

StartChar: u
Encoding: 85 117 311
Width: 882
VWidth: 0
Flags: W
PickledData: "(dp1
S'lstem'
p2
I0
sS'com.fontlab.hintData'
p3
(dp4
S'vhints'
p5
((dp6
S'position'
p7
I196
sS'width'
p8
I92
s(dp9
g7
I593
sg8
I118
stp10
sS'hhints'
p11
((dp12
g7
I-31
sg8
I122
stp13
ss."
HStem: -31 122<389.5 515.5 389.5 558.5>
VStem: 196 92 593 118<1255.5 1307 1307 1313>
LayerCount: 2
Fore
SplineSet
426 -31 m 256
 221 -31 196 257 196 473 c 257
 191 693 191 821 191 1013 c 256
 191 1114 185 1203 182 1306 c 257
 196 1337 211 1349 226 1349 c 256
 259 1349 288 1287 288 1232 c 258
 288 675 l 258
 288 530 317 386 317 241 c 256
 317 177 332 91 447 91 c 256
 584 91 593 862 593 1192 c 258
 593 1307 l 258
 593 1319 592 1330 592 1341 c 256
 592 1369 599 1389 648 1389 c 256
 708 1389 711 1336 711 1290 c 256
 711 1221 697 1151 697 1084 c 256
 697 1027 688 970 688 913 c 256
 688 901 690 890 690 878 c 256
 690 676 691 -31 426 -31 c 256
EndSplineSet
EndChar

StartChar: underscore
Encoding: 63 95 319
Width: 1098
VWidth: 0
Flags: W
PickledData: "(dp1
S'lstem'
p2
I0
sS'com.fontlab.hintData'
p3
(dp4
S'hhints'
p5
((dp6
S'position'
p7
I-94
sS'width'
p8
I94
stp9
ss."
HStem: -94 94<311 438.5>
LayerCount: 2
Fore
SplineSet
1060 2 m 256
 1095 2 1110 -16 1110 -36 c 256
 1110 -57 1088 -82 1054 -82 c 256
 1024 -82 993 -82 965 -84 c 257
 754 -84 544 -94 333 -94 c 256
 289 -94 254 -71 254 -50 c 256
 254 -22 276 0 304 0 c 258
 963 0 l 258
 995 0 1028 2 1060 2 c 256
EndSplineSet
EndChar

StartChar: uni00AD
Encoding: 108 173 320
Width: 792
VWidth: 0
Flags: W
PickledData: "(dp1
S'lstem'
p2
I0
sS'com.fontlab.hintData'
p3
(dp4
S'vhints'
p5
((dp6
S'position'
p7
I174
sS'width'
p8
I442
stp9
sS'hhints'
p10
((dp11
g7
I656
sg8
I142
stp12
ss."
HStem: 656 142
VStem: 174 442<702.5 751>
LayerCount: 2
Fore
SplineSet
616 739 m 256
 616 666 299 656 241 656 c 256
 208 656 174 680 174 715 c 256
 174 787 491 798 548 798 c 256
 581 798 616 775 616 739 c 256
EndSplineSet
EndChar

StartChar: mu
Encoding: 116 181 323
AltUni2: 0003bc.ffffffff.0
Width: 800
VWidth: 0
Flags: HW
PickledData: "(dp1
S'lstem'
p2
I0
sS'com.fontlab.hintData'
p3
(dp4
S'vhints'
p5
((dp6
S'position'
p7
I196
sS'width'
p8
I92
s(dp9
g7
I203
sg8
I111
s(dp10
g7
I567
sg8
I123
s(dp11
g7
I593
sg8
I118
stp12
sS'hhints'
p13
((dp14
g7
I-31
sg8
I62
s(dp15
g7
I1335
sg8
I20
stp16
ss."
LayerCount: 2
Fore
SplineSet
620 1305 m 256
 620 1379 618 1389 585 1389 c 256
 569 1389 550 1386 550 1366 c 256
 550 1354 554 1341 554 1329 c 256
 554 1053 548 772 540 496 c 257
 530 340 521 25 417 25 c 256
 282 25 263 158 263 258 c 258
 263 287 l 257
 260 422 241 557 241 692 c 257
 235 1235 l 258
 235 1270 235 1342 188 1348 c 257
 175 1319 l 257
 195 1158 184 613 210 286 c 257
 211 164 217 40 217 -82 c 256
 217 -175 216 -242 216 -289 c 0
 216 -373 219 -393 235 -393 c 256
 262 -393 268 -381 268 -356 c 256
 268 -227 263 -94 263 36 c 257
 293 3 347 -30 392 -31 c 256
 640 -31 578 592 601 879 c 257
 601 893 599 906 599 920 c 256
 599 973 609 1030 609 1083 c 256
 609 1087 609 1092 607 1096 c 257
 617 1135 620 1239 620 1305 c 256
EndSplineSet
EndChar

StartChar: uni0237
Encoding: 396 567 365
Width: 792
VWidth: 0
Flags: W
PickledData: "(dp1
S'lstem'
p2
I0
sS'com.fontlab.hintData'
p3
(dp4
S'vhints'
p5
((dp6
S'position'
p7
I353
sS'width'
p8
I109
s(dp9
g7
I371
sg8
I112
stp10
sS'hhints'
p11
((dp12
g7
I1205
sg8
I154
s(dp13
g7
I1242
sg8
I117
stp14
ss."
HStem: 1205 154 1242 117<246 348>
VStem: 353 109<1070.5 1208 1070.5 1233> 371 112<158 158 158 361.5>
LayerCount: 2
Fore
SplineSet
483 158 m 257
 407 33 495 -254 237 -254 c 258
 213 -254 l 257
 152 -193 l 257
 150 -174 l 257
 150 -133 277 -64 312 -46 c 257
 358 8 371 117 371 187 c 256
 371 536 353 884 353 1233 c 257
 348 1242 l 257
 306 1247 191 1252 191 1312 c 256
 191 1342 234 1359 258 1359 c 256
 318 1359 623 1327 623 1253 c 256
 623 1222 595 1205 567 1205 c 256
 532 1205 498 1219 463 1225 c 257
 462 1208 l 257
 462 933 483 657 483 382 c 258
 483 158 l 257
EndSplineSet
EndChar

StartChar: uni0307
Encoding: 407 775 366
Width: 612
VWidth: 0
Flags: W
PickledData: "(dp1
S'lstem'
p2
I0
sS'com.fontlab.hintData'
p3
(dp4
S'vhints'
p5
((dp6
S'position'
p7
I254
sS'width'
p8
I150
stp9
sS'hhints'
p10
((dp11
g7
I1390
sg8
I152
stp12
ss."
HStem: 1390 152<310.5 345.5>
VStem: 254 150<1444.5 1483.5>
LayerCount: 2
Fore
SplineSet
254 1463 m 256
 254 1504 290 1542 331 1542 c 256
 370 1542 404 1503 404 1465 c 256
 404 1418 368 1390 323 1390 c 256
 285 1390 254 1426 254 1463 c 256
EndSplineSet
EndChar

StartChar: uni030F
Encoding: 408 783 367
Width: 882
VWidth: 0
Flags: W
PickledData: "(dp1
S'lstem'
p2
I0
sS'com.fontlab.hintData'
p3
(dp4
S'vhints'
p5
((dp6
S'position'
p7
I150
sS'width'
p8
I592
stp9
sS'hhints'
p10
((dp11
g7
I-8
sg8
I398
stp12
ss."
HStem: -8 398
VStem: 150 592<13 338>
LayerCount: 2
Fore
SplineSet
484 8 m 257
 421 67 191 279 169 304 c 257
 150 338 l 257
 157 364 181 390 210 390 c 256
 246 390 504 76 504 32 c 256
 504 19 498 8 484 8 c 257
468 331 m 256
 468 347 497 360 520 360 c 256
 548 360 738 66 742 13 c 257
 729 -8 l 257
 682 37 468 254 468 331 c 256
EndSplineSet
EndChar

StartChar: uni0311
Encoding: 409 785 368
Width: 738
VWidth: 0
Flags: W
PickledData: "(dp1
S'lstem'
p2
I0
sS'com.fontlab.hintData'
p3
(dp4
S'vhints'
p5
((dp6
S'position'
p7
I427
sS'width'
p8
I112
stp9
sS'hhints'
p10
((dp11
g7
I1047
sg8
I95
stp12
ss."
HStem: 1047 95<337 380 337 337>
VStem: 427 112<913.5 964>
LayerCount: 2
Fore
SplineSet
530 961 m 257
 532 954 539 934 539 928 c 256
 539 899 513 876 485 876 c 256
 434 876 427 910 427 953 c 256
 427 975 407 1047 380 1047 c 258
 337 1047 l 257
 281 1008 299 867 228 867 c 257
 190 899 l 257
 190 1010 229 1142 363 1142 c 256
 472 1142 498 1064 535 978 c 257
 532 973 532 967 530 961 c 257
EndSplineSet
EndChar

StartChar: uni0326
Encoding: 411 806 369
Width: 684
VWidth: 0
Flags: W
PickledData: "(dp1
S'lstem'
p2
I0
sS'com.fontlab.hintData'
p3
(dp4
S'vhints'
p5
((dp6
S'position'
p7
I254
sS'width'
p8
I241
stp9
sS'hhints'
p10
((dp11
g7
I-550
sg8
I376
stp12
ss."
HStem: -550 376<276 439>
VStem: 254 241
LayerCount: 2
Fore
SplineSet
288 -550 m 256
 264 -550 254 -544 254 -527 c 257
 254 -527 320 -174 439 -174 c 257
 453 -185 495 -183 495 -215 c 256
 495 -317 322 -550 288 -550 c 256
EndSplineSet
EndChar

StartChar: v
Encoding: 86 118 388
Width: 864
VWidth: 0
Flags: W
PickledData: "(dp1
S'lstem'
p2
I0
sS'com.fontlab.hintData'
p3
(dp4
S'vhints'
p5
((dp6
S'position'
p7
I637
sS'width'
p8
I93
stp9
sS'hhints'
p10
((dp11
g7
I-24
sg8
I21
s(dp12
g7
I1346
sg8
I20
s(dp13
g7
I1346
sg8
I20
stp14
ss."
HStem: -24 21<410 498> 1346 20<171.5 252.5> 1346 20<171.5 252.5>
VStem: 637 93<1260.5 1396>
LayerCount: 2
Fore
SplineSet
449 247 m 257
 526 630 574 1019 637 1396 c 257
 683 1396 l 258
 706 1396 730 1377 730 1351 c 256
 730 1170 650 998 621 821 c 256
 594 658 586 -24 410 -24 c 257
 372 7 l 257
 372 377 282 754 190 1110 c 256
 177 1161 134 1274 134 1319 c 256
 134 1345 159 1366 184 1366 c 256
 321 1366 426 404 449 247 c 257
EndSplineSet
EndChar

StartChar: w
Encoding: 87 119 389
Width: 990
VWidth: 0
Flags: W
PickledData: "(dp1
S'lstem'
p2
I0
sS'com.fontlab.hintData'
p3
(dp4
S'vhints'
p5
((dp6
S'position'
p7
I126
sS'width'
p8
I125
s(dp9
g7
I429
sg8
I116
s(dp10
g7
I610
sg8
I138
s(dp11
g7
I705
sg8
I106
s(dp12
g7
I736
sg8
I108
stp13
sS'hhints'
p14
((dp15
g7
I-43
sg8
I45
s(dp16
g7
I1357
sg8
I20
s(dp17
g7
I1357
sg8
I20
stp18
ss."
HStem: -43 45 1357 20<769.5 806.5> 1357 20<769.5 806.5>
VStem: 126 125 429 116<1143 1160 1143 1186> 610 138<75 102 102 139 75 198.5> 705 106<871 896 896 1035.5> 736 108<1289 1292>
LayerCount: 2
Fore
SplineSet
748 139 m 258
 748 102 l 258
 748 48 742 -19 679 -19 c 256
 631 -19 610 19 610 57 c 256
 610 340 548 648 504 942 c 257
 500 903 497 865 497 826 c 256
 497 700 448 -43 340 -43 c 256
 194 -43 193 1142 126 1293 c 257
 137 1316 160 1329 185 1329 c 256
 245 1329 251 1238 251 1195 c 256
 251 888 331 589 342 283 c 257
 385 573 429 884 429 1186 c 257
 484 1210 l 257
 514 1210 545 1194 545 1160 c 258
 545 1143 l 257
 626 871 626 586 667 307 c 257
 697 531 705 758 705 984 c 256
 705 1087 736 1189 736 1292 c 257
 731 1305 729 1316 729 1327 c 256
 729 1357 747 1377 792 1377 c 256
 821 1377 844 1360 844 1329 c 258
 844 1298 l 258
 844 1280 843 1262 839 1245 c 257
 839 1234 l 257
 819 1173 811 1109 811 1046 c 258
 811 896 l 258
 811 644 748 371 748 139 c 258
EndSplineSet
EndChar

StartChar: x
Encoding: 88 120 394
Width: 738
VWidth: 0
Flags: W
PickledData: "(dp1
S'lstem'
p2
I0
sS'com.fontlab.hintData'
p3
(dp4
S'vhints'
p5
((dp6
S'position'
p7
I196
sS'width'
p8
I115
s(dp9
g7
I312
sg8
I103
s(dp10
g7
I399
sg8
I94
stp11
sS'hhints'
p12
((dp13
g7
I-7
sg8
I21
s(dp14
g7
I1337
sg8
I20
s(dp15
g7
I1337
sg8
I20
stp16
ss."
HStem: -7 21<244.5 279> 1337 20<490 490> 1337 20<490 490>
VStem: 196 115<51 73.5 51 146.5> 312 103<560.5 693.5 560.5 696.5> 399 94<1113.5 1133 1109 1169.5>
LayerCount: 2
Fore
SplineSet
365 894 m 257
 380 981 399 1069 399 1158 c 256
 399 1181 398 1204 398 1225 c 256
 398 1286 408 1335 490 1357 c 257
 528 1309 l 257
 493 1258 493 1193 493 1133 c 258
 493 1109 l 257
 461 1021 415 741 415 646 c 256
 415 475 563 175 563 54 c 256
 563 24 536 3 508 3 c 256
 424 3 379 353 362 433 c 257
 342 320 344 203 310 93 c 257
 311 86 311 78 311 69 c 256
 311 33 300 -7 258 -7 c 256
 231 -7 196 8 196 40 c 256
 196 253 312 447 312 660 c 256
 312 733 218 1172 185 1219 c 257
 185 1241 l 257
 172 1254 166 1274 166 1292 c 256
 166 1322 203 1334 227 1334 c 256
 301 1334 347 979 365 894 c 257
EndSplineSet
EndChar

StartChar: y
Encoding: 89 121 395
Width: 774
VWidth: 0
Flags: W
PickledData: "(dp1
S'lstem'
p2
I0
sS'com.fontlab.hintData'
p3
(dp4
S'vhints'
p5
((dp6
S'position'
p7
I366
sS'width'
p8
I125
s(dp9
g7
I390
sg8
I101
stp10
sS'hhints'
p11
((dp12
g7
I-28
sg8
I21
s(dp13
g7
I1342
sg8
I20
s(dp14
g7
I1342
sg8
I20
stp15
ss."
HStem: -28 21<410.5 455> 1342 20<515 572> 1342 20<515 572>
VStem: 366 125<664 717 717 717> 390 101<332 414>
LayerCount: 2
Fore
SplineSet
491 109 m 258
 491 53 486 -28 424 -28 c 256
 397 -28 377 -6 367 17 c 257
 390 62 390 300 390 364 c 256
 390 464 370 564 366 664 c 257
 366 717 l 257
 326 825 166 1202 166 1288 c 258
 166 1299 l 257
 212 1333 l 257
 291 1331 374 951 400 877 c 257
 430 954 470 1362 560 1362 c 256
 584 1362 610 1346 610 1319 c 256
 610 1118 495 932 491 726 c 257
 491 109 l 258
EndSplineSet
EndChar

StartChar: z
Encoding: 90 122 400
Width: 738
VWidth: 0
Flags: W
PickledData: "(dp1
S'lstem'
p2
I0
sS'com.fontlab.hintData'
p3
(dp4
S'vhints'
p5
((dp6
S'position'
p7
I166
sS'width'
p8
I409
stp9
sS'hhints'
p10
((dp11
g7
I-4
sg8
I21
s(dp12
g7
I18
sg8
I87
s(dp13
g7
I1244
sg8
I115
stp14
ss."
HStem: -4 21<207.5 234.5> 18 87<282 314> 1244 115<287 493.5>
VStem: 166 409
LayerCount: 2
Fore
SplineSet
469 1256 m 257
 413 1254 358 1244 302 1244 c 256
 272 1244 249 1272 249 1301 c 256
 249 1356 409 1359 474 1359 c 256
 513 1359 575 1355 575 1302 c 256
 575 1172 498 1059 478 933 c 256
 433 653 314 264 282 105 c 257
 317 105 l 258
 346 105 374 111 403 111 c 257
 403 112 l 257
 438 112 486 109 486 62 c 256
 486 25 445 12 415 12 c 256
 375 12 334 18 294 18 c 256
 267 18 248 -4 221 -4 c 256
 194 -4 166 15 166 42 c 256
 166 339 373 878 469 1256 c 257
EndSplineSet
EndChar

StartChar: cedilla
Encoding: 119 184 402
Width: 774
VWidth: 0
Flags: HW
PickledData: "(dp1
S'lstem'
p2
I0
sS'com.fontlab.hintData'
p3
(dp4
S'vhints'
p5
((dp6
S'position'
p7
I-12
sS'width'
p8
I49
s(dp9
g7
I159
sg8
I87
stp10
sS'hhints'
p11
((dp12
g7
I-485
sg8
I81
s(dp13
g7
I-220
sg8
I128
stp14
ss."
HStem: -485 81 -220 128
VStem: -12 49 159 87
LayerCount: 2
Fore
SplineSet
367 -160 m 261
 349 -160 330 -167 312 -167 c 260
 285 -167 268 -146 256 -126 c 261
 272 -89 273 -50 273 -9 c 262
 273 14 l 261
 332 22 l 261
 326 -13 324 -48 324 -81 c 261
 441 -89 473 -187 473 -287 c 260
 473 -342 408 -449 318 -449 c 260
 287 -449 230 -433 230 -394 c 260
 230 -380 236 -373 252 -373 c 260
 277 -373 293 -394 318 -394 c 260
 369 -394 398 -318 398 -251 c 260
 398 -212 388 -176 367 -160 c 261
EndSplineSet
Refer: 155 184 N 1 0 0 1 -235 -1 2
EndChar

StartChar: zero
Encoding: 16 48 404
Width: 828
VWidth: 0
Flags: W
PickledData: "(dp1
S'lstem'
p2
I0
sS'com.fontlab.hintData'
p3
(dp4
S'vhints'
p5
((dp6
S'position'
p7
I176
sS'width'
p8
I98
s(dp9
g7
I549
sg8
I95
stp10
sS'hhints'
p11
((dp12
g7
I7
sg8
I93
s(dp13
g7
I1543
sg8
I20
stp14
ss."
HStem: 7 93<377 486.5 377 530> 1543 20<279.5 495>
VStem: 176 98<1222 1423> 549 95<532.5 659.5 447 708>
LayerCount: 2
Fore
SplineSet
549 568 m 256
 549 848 527 1490 327 1518 c 257
 282 1481 274 1451 274 1395 c 256
 274 1260 282 1125 282 990 c 256
 282 923 303 857 303 790 c 256
 303 685 311 100 443 100 c 256
 530 100 549 497 549 568 c 256
176 1222 m 258
 176 1408 209 1563 350 1563 c 256
 640 1563 644 798 644 521 c 256
 644 373 636 7 424 7 c 256
 185 7 176 841 176 1158 c 258
 176 1222 l 258
EndSplineSet
EndChar

StartChar: ae
Encoding: 165 230 414
Width: 918
VWidth: 0
Flags: W
PickledData: "(dp1
S'com.fontlab.hintData'
p2
(dp3
S'vhints'
p4
((dp5
S'position'
p6
I535
sS'width'
p7
I95
stp8
sS'hhints'
p9
((dp10
g6
I-43
sg7
I21
s(dp11
g6
I-12
sg7
I94
s(dp12
g6
I621
sg7
I114
s(dp13
g6
I621
sg7
I95
s(dp14
g6
I1450
sg7
I104
stp15
ss."
HStem: -43 21<567 567> -12 94 621 114<702 782 702 782> 621 95 1450 104<717.5 810>
VStem: 535 95<1091 1174.5>
LayerCount: 2
Fore
SplineSet
527 706 m 257
 529 855 535 1004 535 1153 c 256
 535 1196 535 1240 533 1283 c 257
 474 1087 416 889 374 688 c 257
 425 691 477 695 527 706 c 257
522 2 m 257
 524 3 l 257
 532 86 541 169 541 253 c 256
 541 380 531 506 531 633 c 257
 472 628 411 630 354 611 c 257
 253 226 l 258
 240 178 225 1 158 1 c 256
 135 1 118 27 118 48 c 256
 118 288 384 1103 470 1380 c 256
 487 1437 509 1544 586 1544 c 256
 639 1544 691 1554 744 1554 c 256
 781 1554 831 1546 831 1498 c 258
 831 1492 l 257
 810 1450 l 257
 745 1450 680 1447 616 1440 c 257
 618 1349 630 1258 630 1166 c 256
 630 1016 624 866 624 716 c 257
 674 720 722 735 772 735 c 258
 782 735 l 257
 824 687 l 257
 824 629 757 621 711 621 c 258
 702 621 l 257
 623 622 l 257
 624 442 629 262 629 82 c 257
 705 83 780 103 856 103 c 256
 885 103 924 87 924 53 c 256
 924 -8 760 -12 680 -12 c 258
 648 -12 l 258
 618 -12 596 -38 567 -43 c 257
 522 2 l 257
EndSplineSet
EndChar

StartChar: AE
Encoding: 133 198 415
Width: 1026
VWidth: 0
Flags: W
PickledData: "(dp1
S'com.fontlab.hintData'
p2
(dp3
S'vhints'
p4
((dp5
S'position'
p6
I535
sS'width'
p7
I95
stp8
sS'hhints'
p9
((dp10
g6
I-43
sg7
I21
s(dp11
g6
I-12
sg7
I94
s(dp12
g6
I621
sg7
I114
s(dp13
g6
I621
sg7
I95
s(dp14
g6
I1450
sg7
I104
stp15
ss."
HStem: -43 21<567 567> -12 94 621 114<702 782 702 782> 621 95 1450 104<717.5 810>
VStem: 535 95<1091 1174.5>
LayerCount: 2
Fore
SplineSet
527 706 m 257
 529 855 535 1004 535 1153 c 256
 535 1196 535 1240 533 1283 c 257
 474 1087 416 889 374 688 c 257
 425 691 477 695 527 706 c 257
522 2 m 257
 524 3 l 257
 532 86 541 169 541 253 c 256
 541 380 531 506 531 633 c 257
 472 628 411 630 354 611 c 257
 253 226 l 258
 240 178 225 1 158 1 c 256
 135 1 118 27 118 48 c 256
 118 288 384 1103 470 1380 c 256
 487 1437 509 1544 586 1544 c 256
 639 1544 691 1554 744 1554 c 256
 781 1554 831 1546 831 1498 c 258
 831 1492 l 257
 810 1450 l 257
 745 1450 680 1447 616 1440 c 257
 618 1349 630 1258 630 1166 c 256
 630 1016 624 866 624 716 c 257
 674 720 722 735 772 735 c 258
 782 735 l 257
 824 687 l 257
 824 629 757 621 711 621 c 258
 702 621 l 257
 623 622 l 257
 624 442 629 262 629 82 c 257
 705 83 780 103 856 103 c 256
 885 103 924 87 924 53 c 256
 924 -8 760 -12 680 -12 c 258
 648 -12 l 258
 618 -12 596 -38 567 -43 c 257
 522 2 l 257
EndSplineSet
EndChar

StartChar: Oslash
Encoding: 151 216 416
Width: 900
VWidth: 0
Flags: W
PickledData: "(dp1
S'com.fontlab.hintData'
p2
(dp3
S'vhints'
p4
((dp5
S'position'
p6
I174
sS'width'
p7
I95
s(dp8
g6
I609
sg7
I94
stp9
sS'hhints'
p10
((dp11
g6
I-57
sg7
I112
s(dp12
g6
I1477
sg7
I108
stp13
ss."
HStem: -57 112<451 535> 1477 108<337 417.5 296 421.5>
VStem: 174 95 609 94<607 855>
LayerCount: 2
Fore
SplineSet
403 1477 m 256
 271 1477 269 979 269 861 c 258
 269 852 l 258
 269 785 281 581 314 396 c 257
 496 1415 l 257
 471 1454 440 1477 403 1477 c 256
545 1299 m 257
 350 239 l 257
 381 132 423 55 479 55 c 256
 597 55 609 561 609 653 c 256
 609 749 607 1087 545 1299 c 257
324 47 m 257
 252 -280 l 257
 207 -224 l 257
 269 143 l 257
 188 355 177 676 177 799 c 256
 177 863 174 948 174 1039 c 256
 174 1291 199 1585 393 1585 c 256
 442 1585 484 1571 519 1545 c 257
 564 1799 l 257
 643 1799 l 257
 579 1481 l 257
 694 1313 703 976 703 734 c 256
 703 692 702 653 702 618 c 256
 702 531 685 446 684 359 c 257
 684 350 l 257
 674 306 671 261 671 215 c 256
 671 113 595 -57 475 -57 c 256
 407 -57 365 -18 324 47 c 257
EndSplineSet
EndChar

StartChar: oslash
Encoding: 183 248 417
Width: 882
VWidth: 0
Flags: W
PickledData: "(dp1
S'com.fontlab.hintData'
p2
(dp3
S'vhints'
p4
((dp5
S'position'
p6
I168
sS'width'
p7
I111
s(dp8
g6
I595
sg7
I106
stp9
sS'hhints'
p10
((dp11
g6
I-38
sg7
I85
s(dp12
g6
I1269
sg7
I109
s(dp13
g6
I1540
sg7
I20
stp14
ss."
HStem: -38 85<417 502.5 413 561> 1269 109<350 354.5 243.5 413.5> 1540 20<527 588 588 588>
VStem: 168 111<544.5 748.5> 595 106<509 783>
LayerCount: 2
Fore
SplineSet
257 -227 m 257
 295 32 l 257
 185 166 168 463 168 626 c 256
 168 658 170 677 170 704 c 256
 170 711 169 714 167 714 c 257
 167 751 l 258
 167 860 166 1378 321 1378 c 256
 388 1378 444 1364 491 1338 c 257
 527 1560 l 257
 588 1560 l 257
 548 1296 l 257
 659 1194 701 1008 701 798 c 258
 701 783 l 258
 701 706 705 628 705 551 c 256
 705 368 690 -38 432 -38 c 256
 402 -38 375 -31 351 -17 c 257
 307 -274 l 257
 257 -227 l 257
367 89 m 257
 383 63 402 47 424 47 c 256
 581 47 595 454 595 564 c 256
 595 723 569 882 568 1041 c 257
 568 1077 l 257
 567 1117 555 1158 533 1192 c 257
 367 89 l 257
323 215 m 257
 477 1247 l 257
 454 1261 428 1269 399 1269 c 256
 301 1269 287 1141 287 1027 c 256
 287 981 289 937 289 906 c 256
 289 843 279 780 279 717 c 256
 279 650 284 391 323 215 c 257
EndSplineSet
EndChar

StartChar: macron
Encoding: 110 175 418
Width: 900
VWidth: 0
Flags: W
PickledData: "(dp1
S'com.fontlab.hintData'
p2
(dp3
S'vhints'
p4
((dp5
S'position'
p6
I158
sS'width'
p7
I572
stp8
sS'hhints'
p9
((dp10
g6
I590
sg7
I111
stp11
ss."
HStem: 590 111<217.5 311.5>
VStem: 158 572<630 669>
LayerCount: 2
Fore
SplineSet
158 655 m 256
 158 683 176 701 204 701 c 258
 505 701 l 258
 547 701 589 708 631 708 c 256
 673 708 730 701 730 647 c 256
 730 613 702 600 672 600 c 256
 528 600 383 590 240 590 c 256
 195 590 158 604 158 655 c 256
EndSplineSet
EndChar

StartChar: registered
Encoding: 109 174 422
Width: 1350
VWidth: 0
Flags: W
PickledData: "(dp1
S'com.fontlab.hintData'
p2
(dp3
S'vhints'
p4
((dp5
S'position'
p6
I158
sS'width'
p7
I120
s(dp8
g6
I421
sg7
I114
s(dp9
g6
I446
sg7
I118
s(dp10
g6
I446
sg7
I97
s(dp11
g6
I480
sg7
I129
s(dp12
g6
I751
sg7
I122
s(dp13
g6
I1057
sg7
I113
stp14
sS'hhints'
p15
((dp16
g6
I-190
sg7
I106
s(dp17
g6
I1525
sg7
I110
s(dp18
g6
I1832
sg7
I106
stp19
ss."
HStem: -190 106<620 620 620 930.5> 1525 110<598 696> 1832 106<502 737.5>
VStem: 158 120<850.5 917 917 1097.5 850.5 1104.5> 421 114<1390.5 1441 1385.5 1528.5> 446 118<698 812 698 1075> 446 97<1075 1287.5> 480 129<192 216> 751 122<1272 1280 1280 1319.5> 1057 113<839 887.5 638.5 1001>
LayerCount: 2
Fore
SplineSet
692 -190 m 256
 191 -190 158 358 158 757 c 258
 158 917 l 258
 158 1292 192 1938 688 1938 c 256
 813 1938 927 1851 998 1755 c 257
 1122 1679 1170 968 1170 807 c 256
 1170 470 1169 -190 692 -190 c 256
930 1655 m 256
 900 1716 772 1832 703 1832 c 256
 301 1832 278 1241 278 954 c 256
 278 747 280 179 418 27 c 256
 454 -13 500 -31 541 -64 c 257
 601 -76 l 257
 620 -84 l 257
 1037 -79 1056 396 1056 706 c 256
 1056 759 1057 812 1057 866 c 256
 1057 1136 1047 1416 930 1655 c 256
951 199 m 256
 951 175 917 143 894 143 c 256
 772 143 670 797 624 914 c 257
 569 891 l 257
 567 859 564 828 564 796 c 256
 564 600 609 406 609 210 c 256
 609 174 593 143 553 143 c 256
 517 143 480 169 480 208 c 256
 480 224 481 240 481 256 c 256
 481 327 479 399 472 470 c 256
 465 539 446 606 446 676 c 258
 446 1075 l 258
 446 1202 421 1327 421 1454 c 256
 421 1603 503 1635 637 1635 c 256
 844 1635 873 1433 873 1270 c 256
 873 1023 743 1007 732 969 c 257
 735 888 880 425 914 314 c 257
 921 314 l 257
 921 271 951 239 951 199 c 256
643 1525 m 256
 553 1525 535 1475 535 1407 c 256
 535 1364 543 1312 543 1263 c 256
 543 1175 544 1086 566 1000 c 257
 687 1049 751 1142 751 1272 c 258
 751 1280 l 258
 751 1359 749 1525 643 1525 c 256
EndSplineSet
EndChar

StartChar: copyright
Encoding: 104 169 423
Width: 1296
VWidth: 0
Flags: W
PickledData: "(dp1
S'com.fontlab.hintData'
p2
(dp3
S'vhints'
p4
((dp5
S'position'
p6
I134
sS'width'
p7
I118
s(dp8
g6
I347
sg7
I120
s(dp9
g6
I1033
sg7
I114
stp10
sS'hhints'
p11
((dp12
g6
I-20
sg7
I101
s(dp13
g6
I225
sg7
I107
s(dp14
g6
I1387
sg7
I112
s(dp15
g6
I1713
sg7
I99
stp16
ss."
HStem: -20 101<447.5 726.5 447.5 844> 225 107<628.5 701> 1387 112<562.5 681 490 684> 1713 99<446 621.5>
VStem: 134 118<882.5 940 882.5 1066> 347 120<693.5 825 693.5 926.5> 1033 114<589 894 894 931 580 932.5>
LayerCount: 2
Fore
SplineSet
134 924 m 256
 134 1208 184 1812 575 1812 c 256
 1037 1812 1147 1105 1147 757 c 256
 1147 403 1064 -20 624 -20 c 256
 179 -20 166 311 146 660 c 256
 141 748 134 836 134 924 c 256
251 940 m 257
 252 940 l 257
 252 825 264 710 271 595 c 256
 285 366 297 81 598 81 c 256
 855 81 957 234 1012 464 c 257
 1010 470 1009 476 1009 483 c 256
 1009 516 1033 558 1033 589 c 258
 1033 894 l 258
 1033 971 1008 1046 994 1121 c 256
 955 1328 896 1528 717 1658 c 256
 683 1683 644 1713 599 1713 c 256
 293 1713 251 1160 251 940 c 257
477 911 m 257
 476 911 l 257
 468 878 467 844 467 809 c 258
 467 758 l 258
 467 629 480 332 654 332 c 256
 752 332 770 440 836 440 c 256
 873 440 890 404 890 372 c 256
 890 283 738 225 664 225 c 256
 593 225 536 265 472 291 c 257
 360 504 347 570 347 813 c 258
 347 825 l 258
 347 1028 350 1499 630 1499 c 256
 732 1499 871 1380 871 1275 c 256
 871 1247 850 1223 821 1223 c 256
 721 1223 729 1387 639 1387 c 256
 486 1387 485 1026 473 921 c 257
 477 911 l 257
EndSplineSet
EndChar

StartChar: ordfeminine
Encoding: 105 170 424
Width: 864
VWidth: 0
Flags: W
PickledData: "(dp1
S'com.fontlab.hintData'
p2
(dp3
S'vhints'
p4
((dp5
S'position'
p6
I598
sS'width'
p7
I125
stp8
sS'hhints'
p9
((dp10
g6
I66
sg7
I94
s(dp11
g6
I1353
sg7
I20
s(dp12
g6
I1353
sg7
I20
stp13
ss."
HStem: 66 94<175 260.5> 1353 20<400 469 469 535> 1353 20<400 469 469 535>
VStem: 598 125<297 309 309 311 297 362.5>
LayerCount: 2
Fore
SplineSet
674 160 m 258
 709 160 724 144 724 124 c 256
 724 103 702 78 668 78 c 256
 638 78 607 78 579 76 c 257
 452 76 324 66 197 66 c 256
 153 66 118 89 118 110 c 256
 118 138 140 160 168 160 c 258
 674 160 l 258
555 645 m 257
 533 755 517 967 484 1184 c 257
 445 1019 390 777 374 678 c 257
 409 655 511 648 555 645 c 257
723 311 m 258
 723 309 l 258
 723 285 712 260 689 251 c 257
 640 251 598 260 598 319 c 256
 598 406 568 572 568 572 c 257
 366 602 l 257
 322 444 341 259 251 259 c 256
 221 259 186 281 186 314 c 256
 186 554 321 859 356 1100 c 257
 365 1169 363 1317 400 1373 c 257
 469 1373 l 258
 601 1373 723 431 723 311 c 258
EndSplineSet
EndChar

StartChar: guillemotleft
Encoding: 106 171 425
Width: 936
VWidth: 0
Flags: W
PickledData: "(dp1
S'com.fontlab.hintData'
p2
(dp3
S'vhints'
p4
((dp5
S'position'
p6
I383
sS'width'
p7
I117
s(dp8
g6
I607
sg7
I151
stp9
sS'hhints'
p10
((dp11
g6
I-22
sg7
I21
stp12
ss."
HStem: -22 21<777 801.5>
VStem: 383 117 607 151
LayerCount: 2
Fore
SplineSet
837 49 m 257
 835 19 820 -22 783 -22 c 256
 771 -22 755 -22 743 -18 c 256
 711 -8 423 612 383 698 c 257
 386 798 569 1125 607 1255 c 256
 618 1293 645 1447 706 1447 c 256
 708 1447 710 1446 713 1446 c 257
 758 1411 l 257
 731 1193 500 869 500 702 c 256
 500 679 774 135 811 69 c 257
 837 49 l 257
523 1440 m 257
 416 1193 343 929 229 687 c 257
 262 526 586 65 586 -13 c 256
 586 -45 548 -59 522 -59 c 256
 477 -59 118 607 118 697 c 256
 118 749 341 1261 379 1361 c 257
 383 1398 415 1456 440 1483 c 257
 440 1485 l 257
 446 1486 453 1489 459 1489 c 256
 488 1489 521 1473 523 1440 c 257
EndSplineSet
EndChar

StartChar: logicalnot
Encoding: 107 172 426
Width: 1098
VWidth: 0
Flags: W
PickledData: "(dp1
S'com.fontlab.hintData'
p2
(dp3
S'vhints'
p4
((dp5
S'position'
p6
I809
sS'width'
p7
I93
stp8
sS'hhints'
p9
((dp10
g6
I711
sg7
I124
s(dp11
g6
I733
sg7
I115
stp12
ss."
HStem: 711 124<155 375.5> 733 115<636.5 870>
VStem: 809 93<564 720>
LayerCount: 2
Fore
SplineSet
169 711 m 256
 141 711 118 735 118 763 c 256
 118 822 229 835 336 835 c 256
 415 835 491 828 519 828 c 256
 631 828 742 848 854 848 c 256
 886 848 921 824 921 790 c 256
 921 766 914 741 902 720 c 257
 902 658 907 596 926 537 c 257
 922 509 904 475 872 475 c 256
 818 475 809 536 809 592 c 256
 809 618 811 643 811 659 c 256
 811 682 810 705 806 727 c 257
 781 728 755 733 730 733 c 256
 543 733 356 711 169 711 c 256
EndSplineSet
EndChar

StartChar: questiondown
Encoding: 126 191 427
Width: 702
VWidth: 0
Flags: W
PickledData: "(dp1
S'com.fontlab.hintData'
p2
(dp3
S'vhints'
p4
((dp5
S'position'
p6
I186
sS'width'
p7
I110
s(dp8
g6
I278
sg7
I155
s(dp9
g6
I311
sg7
I100
s(dp10
g6
I396
sg7
I105
stp11
sS'hhints'
p12
((dp13
g6
I-170
sg7
I100
s(dp14
g6
I1229
sg7
I156
stp15
ss."
HStem: -170 100<327.5 373.5 327.5 416> 1229 156<337 373>
VStem: 186 110<99.5 273.5 99.5 274.5> 278 155<1291 1327.5 1289.5 1334.5> 311 100<926.5 1028> 396 105<0.5 18 18 28.5>
LayerCount: 2
Fore
SplineSet
433 1309 m 256
 433 1270 393 1229 353 1229 c 256
 316 1229 278 1275 278 1307 c 256
 278 1362 313 1385 361 1385 c 256
 401 1385 433 1346 433 1309 c 256
501 18 m 258
 501 -69 471 -170 361 -170 c 256
 201 -170 186 -11 186 117 c 256
 186 432 311 554 311 1011 c 256
 311 1045 311 1110 310 1148 c 257
 371 1148 342 1154 361 1154 c 256
 382 1154 401 1145 411 1108 c 257
 411 745 296 428 296 119 c 256
 296 80 298 -70 357 -70 c 256
 390 -70 396 -20 396 21 c 256
 396 36 390 78 382 132 c 256
 382 136 419 174 443 174 c 256
 498 174 501 91 501 37 c 258
 501 18 l 258
EndSplineSet
EndChar

StartChar: exclamdown
Encoding: 96 161 428
Width: 594
VWidth: 0
Flags: W
PickledData: "(dp1
S'com.fontlab.hintData'
p2
(dp3
S'vhints'
p4
((dp5
S'position'
p6
I198
sS'width'
p7
I137
s(dp8
g6
I213
sg7
I169
s(dp9
g6
I241
sg7
I84
stp10
sS'hhints'
p11
((dp12
g6
I1211
sg7
I171
stp13
ss."
HStem: 1211 171<286 321>
VStem: 198 137<-179 -45 -179 -22.5> 213 169<1284.5 1329.5 1280.5 1336.5> 241 84<403 809>
LayerCount: 2
Fore
SplineSet
213 1310 m 256
 213 1363 258 1382 314 1382 c 256
 339 1382 382 1356 382 1303 c 256
 382 1258 345 1211 297 1211 c 256
 242 1211 213 1259 213 1310 c 256
239 890 m 256
 239 988 257 1030 277 1030 c 256
 303 1030 333 961 333 854 c 256
 333 740 325 623 325 515 c 256
 325 291 335 67 335 -157 c 256
 335 -201 290 -236 248 -236 c 256
 220 -236 198 -214 198 -186 c 256
 198 141 241 466 241 793 c 256
 241 825 239 858 239 890 c 256
EndSplineSet
EndChar

StartChar: cent
Encoding: 97 162 429
Width: 846
VWidth: 0
Flags: W
PickledData: "(dp1
S'com.fontlab.hintData'
p2
(dp3
S'vhints'
p4
((dp5
S'position'
p6
I174
sS'width'
p7
I99
s(dp8
g6
I326
sg7
I84
s(dp9
g6
I408
sg7
I95
stp10
sS'hhints'
p11
((dp12
g6
I-20
sg7
I21
stp13
ss."
HStem: -20 21<446 455 446 446>
VStem: 174 99<744.5 836 744.5 860> 326 84<1351.5 1382 1351.5 1385.5> 408 95<15 60.5>
LayerCount: 2
Fore
SplineSet
338 1125 m 257
 286 1049 273 882 273 790 c 256
 273 699 277 444 396 424 c 257
 395 656 383 897 338 1125 c 257
404 203 m 257
 401 202 l 257
 401 239 409 276 409 313 c 257
 177 402 174 560 174 777 c 256
 174 943 179 1156 337 1254 c 257
 333 1292 326 1330 326 1368 c 256
 326 1403 332 1456 378 1456 c 258
 385 1456 l 257
 415 1436 l 257
 412 1414 410 1393 410 1371 c 256
 410 1332 415 1293 420 1254 c 257
 479 1236 597 1218 604 1140 c 257
 602 1140 l 257
 602 1135 l 258
 602 1114 584 1084 560 1084 c 256
 528 1084 503 1112 492 1140 c 257
 434 1169 l 257
 429 1169 l 257
 434 921 490 676 490 428 c 256
 490 420 488 411 488 403 c 256
 488 399 489 395 490 391 c 257
 568 395 603 452 642 511 c 257
 683 511 701 492 701 451 c 256
 701 373 563 307 497 301 c 257
 493 275 489 249 489 222 c 256
 489 157 503 93 503 28 c 256
 503 2 481 -20 455 -20 c 258
 446 -20 l 257
 408 15 l 257
 411 32 412 49 412 65 c 256
 412 111 404 157 404 203 c 257
EndSplineSet
EndChar

StartChar: uni00B9
Encoding: 120 185 430
Width: 774
VWidth: 0
Flags: W
PickledData: "(dp1
S'com.fontlab.hintData'
p2
(dp3
S'vhints'
p4
((dp5
S'position'
p6
I275
sS'width'
p7
I85
s(dp8
g6
I292
sg7
I98
stp9
sS'hhints'
p10
((dp11
g6
I534
sg7
I95
s(dp12
g6
I535
sg7
I104
s(dp13
g6
I1479
sg7
I96
stp14
ss."
HStem: 534 95<237.5 259 223 269.5> 535 104<304 390> 1479 96<200.5 283.5>
VStem: 275 85<1203.5 1469.5> 292 98<649.5 652 639 771.5>
LayerCount: 2
Fore
SplineSet
275 1308 m 256
 275 1329 278 1356 278 1383 c 256
 278 1432 267 1479 207 1479 c 256
 194 1479 177 1477 160 1477 c 256
 130 1477 102 1483 102 1521 c 256
 102 1574 224 1575 267 1575 c 256
 300 1575 354 1574 372 1541 c 257
 366 1513 360 1484 360 1455 c 256
 360 1289 384 1127 384 961 c 256
 384 858 390 755 390 652 c 258
 390 639 l 257
 415 641 440 645 465 645 c 257
 465 646 l 257
 501 646 552 642 552 595 c 256
 552 539 390 535 319 535 c 256
 289 535 281 534 258 534 c 256
 217 534 194 540 194 590 c 256
 194 618 199 629 247 629 c 256
 271 629 292 636 292 663 c 256
 292 880 275 1099 275 1308 c 256
EndSplineSet
EndChar

StartChar: ordmasculine
Encoding: 121 186 431
Width: 900
VWidth: 0
Flags: W
PickledData: "(dp1
S'com.fontlab.hintData'
p2
(dp3
S'vhints'
p4
((dp5
S'position'
p6
I177
sS'width'
p7
I113
s(dp8
g6
I607
sg7
I105
stp9
sS'hhints'
p10
((dp11
g6
I66
sg7
I94
s(dp12
g6
I269
sg7
I115
s(dp13
g6
I1269
sg7
I109
stp14
ss."
HStem: 66 94<199 284.5> 269 115<368 513.5 368 572> 1269 109<361 475 263 500>
VStem: 177 113<848.5 858.5 792.5 979> 607 105<854.5 893 893 908 854.5 911.5>
LayerCount: 2
Fore
SplineSet
712 908 m 258
 712 893 l 258
 712 816 716 738 716 661 c 256
 716 539 701 269 443 269 c 256
 210 269 179 584 179 736 c 256
 179 765 177 817 177 880 c 256
 177 1078 194 1378 332 1378 c 256
 618 1378 712 1164 712 908 c 258
410 1269 m 256
 312 1269 298 1157 298 1057 c 256
 298 1042 300 1027 300 1016 c 256
 300 953 290 890 290 827 c 256
 290 758 301 384 435 384 c 256
 592 384 606 612 606 674 c 256
 606 713 607 759 607 808 c 256
 607 1015 590 1269 410 1269 c 256
698 160 m 258
 733 160 748 144 748 124 c 256
 748 103 726 78 692 78 c 256
 662 78 631 76 603 76 c 256
 476 76 348 66 221 66 c 256
 177 66 142 89 142 110 c 256
 142 138 164 160 192 160 c 258
 698 160 l 258
EndSplineSet
EndChar

StartChar: guillemotright
Encoding: 122 187 432
Width: 954
VWidth: 0
Flags: W
PickledData: "(dp1
S'com.fontlab.hintData'
p2
(dp3
S'vhints'
p4
((dp5
S'position'
p6
I180
sS'width'
p7
I151
s(dp8
g6
I437
sg7
I118
stp9
sS'hhints'
p10
((dp11
g6
I-23
sg7
I21
stp12
ss."
HStem: -23 21<137.5 162.5>
VStem: 180 151 437 118<698 698 698 805>
LayerCount: 2
Fore
SplineSet
198 -19 m 257
 194 -19 l 258
 181 -19 169 -23 156 -23 c 256
 119 -23 103 19 102 49 c 257
 127 69 l 257
 163 136 437 680 437 702 c 256
 437 908 182 1202 180 1411 c 257
 225 1446 l 257
 235 1444 l 257
 309 1410 311 1324 331 1255 c 256
 369 1123 552 803 555 698 c 257
 198 -19 l 257
481 1490 m 256
 485 1490 492 1487 496 1486 c 257
 499 1486 l 257
 499 1484 l 257
 500 1485 l 257
 528 1457 557 1402 562 1363 c 257
 600 1264 822 751 822 700 c 256
 822 610 463 -56 419 -56 c 256
 393 -56 354 -43 354 -10 c 256
 354 68 678 528 712 689 c 257
 597 928 565 1211 416 1433 c 257
 419 1467 447 1490 481 1490 c 256
EndSplineSet
EndChar

StartChar: paragraph
Encoding: 117 182 433
Width: 1080
VWidth: 0
Flags: W
PickledData: "(dp1
S'com.fontlab.hintData'
p2
(dp3
S'vhints'
p4
((dp5
S'position'
p6
I126
sS'width'
p7
I112
s(dp8
g6
I555
sg7
I121
s(dp9
g6
I576
sg7
I111
s(dp10
g6
I598
sg7
I116
s(dp11
g6
I770
sg7
I114
stp12
sS'hhints'
p13
((dp14
g6
I-8
sg7
I9
s(dp15
g6
I1098
sg7
I98
s(dp16
g6
I1738
sg7
I116
s(dp17
g6
I1769
sg7
I107
stp18
ss."
HStem: -8 9 1098 98<508.5 583 483.5 594> 1738 116<827 907.5> 1769 107<692.5 696.5 671.5 722>
VStem: 126 112<1384 1455 1339.5 1565.5> 555 121<42.5 207.5> 576 111<1614 1694.5 1570.5 1697> 598 116<827 986.5> 770 114<998 1241.5>
LayerCount: 2
Fore
SplineSet
239 1454 m 257
 238 1455 l 257
 238 1224 386 1196 581 1196 c 256
 585 1196 592 1199 596 1200 c 257
 596 1366 576 1531 576 1697 c 257
 578 1740 l 257
 551 1748 524 1748 496 1748 c 256
 349 1748 239 1591 239 1454 c 257
870 1739 m 257
 871 1540 884 1341 884 1142 c 256
 884 850 872 557 872 265 c 256
 872 188 884 113 884 36 c 256
 884 4 857 -20 826 -20 c 256
 759 -20 751 52 751 103 c 256
 751 461 770 819 770 1177 c 256
 770 1326 755 1474 755 1623 c 256
 755 1642 758 1666 758 1689 c 256
 758 1731 748 1769 696 1769 c 256
 689 1769 687 1700 687 1689 c 256
 687 1452 714 1217 714 980 c 256
 714 674 676 370 676 64 c 256
 676 21 666 -8 617 -8 c 256
 581 -8 555 21 555 56 c 256
 555 359 598 661 598 964 c 256
 598 1009 595 1053 594 1098 c 257
 423 1098 185 1118 139 1321 c 256
 134 1342 135 1364 126 1384 c 257
 126 1747 291 1823 621 1854 c 257
 638 1871 660 1876 683 1876 c 256
 710 1876 737 1864 763 1859 c 257
 762 1858 l 257
 818 1865 l 257
 827 1854 l 257
 862 1852 950 1838 950 1790 c 256
 950 1759 922 1738 893 1738 c 256
 885 1738 878 1739 870 1739 c 257
EndSplineSet
EndChar

StartChar: plusminus
Encoding: 112 177 434
Width: 900
VWidth: 0
Flags: W
PickledData: "(dp1
S'com.fontlab.hintData'
p2
(dp3
S'vhints'
p4
((dp5
S'position'
p6
I360
sS'width'
p7
I126
s(dp8
g6
I372
sg7
I134
s(dp9
g6
I378
sg7
I108
stp10
sS'hhints'
p11
((dp12
g6
I135
sg7
I111
s(dp13
g6
I602
sg7
I99
stp14
ss."
HStem: 135 111<217.5 311.5> 602 99
VStem: 360 126<525.5 599> 372 134<371 416.5> 378 108<551 573 525.5 584>
LayerCount: 2
Fore
SplineSet
158 200 m 256
 158 228 176 246 204 246 c 258
 506 246 l 258
 548 246 590 253 632 253 c 256
 674 253 730 246 730 192 c 256
 730 158 702 145 672 145 c 256
 528 145 383 135 240 135 c 256
 195 135 158 149 158 200 c 256
372 385 m 256
 372 451 378 518 378 584 c 257
 360 599 l 257
 332 599 286 590 246 590 c 256
 199 590 158 602 158 655 c 256
 158 682 175 708 204 708 c 256
 244 708 286 701 326 701 c 256
 342 701 356 702 372 705 c 257
 370 755 360 805 360 855 c 256
 360 900 367 968 426 968 c 256
 458 968 486 942 486 909 c 258
 486 904 l 257
 478 884 l 257
 479 853 479 701 506 701 c 256
 531 701 578 709 624 709 c 256
 679 709 730 697 730 647 c 256
 730 615 704 591 672 591 c 256
 631 591 593 602 552 602 c 256
 518 602 486 593 486 553 c 256
 486 498 506 444 506 389 c 256
 506 353 470 333 438 333 c 256
 409 333 372 352 372 385 c 256
EndSplineSet
EndChar

StartChar: yen
Encoding: 100 165 435
Width: 990
VWidth: 0
Flags: W
PickledData: "(dp1
S'com.fontlab.hintData'
p2
(dp3
S'vhints'
p4
((dp5
S'position'
p6
I457
sS'width'
p7
I117
stp8
sS'hhints'
p9
((dp10
g6
I-8
sg7
I21
s(dp11
g6
I762
sg7
I113
s(dp12
g6
I776
sg7
I119
s(dp13
g6
I948
sg7
I108
stp14
ss."
HStem: -8 21<456 500.5> 762 113<168 251 168 237> 776 119<691 735> 948 108<198 335.5>
VStem: 457 117
LayerCount: 2
Fore
SplineSet
53 1764 m 257
 56 1759 l 257
 72 1766 89 1774 106 1774 c 256
 205 1774 450 1293 507 1207 c 257
 544 1302 663 1832 760 1832 c 256
 790 1832 818 1809 818 1778 c 257
 816 1768 l 257
 755 1589 691 1422 644 1238 c 256
 628 1176 595 1121 580 1059 c 257
 605 1056 l 257
 633 1056 699 1066 760 1066 c 256
 827 1066 887 1054 887 1005 c 256
 887 955 815 948 774 948 c 258
 765 948 l 257
 574 950 l 257
 574 887 l 257
 599 887 660 895 722 895 c 256
 802 895 882 881 882 820 c 256
 882 789 851 766 822 766 c 258
 714 766 l 257
 735 776 l 257
 569 776 l 257
 568 564 538 354 538 142 c 256
 538 128 539 111 539 94 c 256
 539 45 531 -8 470 -8 c 256
 442 -8 405 6 405 40 c 258
 405 45 l 257
 432 112 448 663 448 773 c 257
 441 773 l 258
 378 773 314 762 251 762 c 258
 237 762 l 257
 206 763 l 257
 182 776 163 798 152 823 c 257
 168 875 l 257
 264 875 361 878 457 883 c 257
 459 907 459 930 459 954 c 257
 458 958 l 257
 431 957 366 948 305 948 c 256
 236 948 173 960 173 1010 c 258
 173 1017 l 257
 198 1056 l 257
 251 1056 303 1052 356 1052 c 256
 390 1052 424 1054 458 1059 c 257
 458 1071 l 257
 278 1251 246 1535 53 1705 c 257
 53 1764 l 257
EndSplineSet
EndChar

StartChar: eth
Encoding: 175 240 439
Width: 756
VWidth: 0
Flags: W
PickledData: "(dp1
S'com.fontlab.hintData'
p2
(dp3
S'vhints'
p4
((dp5
S'position'
p6
I182
sS'width'
p7
I101
s(dp8
g6
I442
sg7
I95
stp9
sS'hhints'
p10
((dp11
g6
I-15
sg7
I87
s(dp12
g6
I1335
sg7
I20
s(dp13
g6
I1473
sg7
I109
stp14
ss."
HStem: -15 87<320.5 388.5 320.5 438.5> 1335 20<554.5 579.5> 1473 109
VStem: 182 101<276.5 490.5> 442 95<599.5 721>
LayerCount: 2
Fore
SplineSet
351 72 m 256
 426 72 417 160 421 211 c 256
 433 370 442 518 442 681 c 256
 442 761 435 853 383 885 c 257
 284 859 284 472 284 390 c 256
 284 378 283 354 283 325 c 256
 283 228 290 72 351 72 c 256
590 1326 m 256
 590 1289 511 1272 485 1267 c 257
 529 1062 537 850 537 641 c 256
 537 522 528 402 528 283 c 256
 528 159 521 -15 356 -15 c 256
 195 -15 185 173 185 305 c 257
 185 305 182 340 182 400 c 256
 182 581 206 956 396 956 c 256
 404 956 413 955 422 954 c 257
 409 1053 395 1153 374 1251 c 257
 318 1245 261 1242 205 1242 c 256
 192 1242 188 1265 188 1272 c 256
 188 1319 322 1336 354 1340 c 257
 345 1374 326 1450 298 1473 c 257
 265 1478 216 1499 216 1539 c 256
 216 1565 246 1582 269 1582 c 256
 382 1582 437 1441 463 1351 c 257
 500 1353 536 1355 573 1355 c 256
 586 1355 590 1333 590 1326 c 256
EndSplineSet
EndChar

StartChar: thorn
Encoding: 189 254 440
Width: 756
VWidth: 0
Flags: W
PickledData: "(dp1
S'com.fontlab.hintData'
p2
(dp3
S'vhints'
p4
((dp5
S'position'
p6
I184
sS'width'
p7
I117
s(dp8
g6
I206
sg7
I117
s(dp9
g6
I457
sg7
I106
stp10
sS'hhints'
p11
((dp12
g6
I-11
sg7
I21
s(dp13
g6
I1528
sg7
I20
stp14
ss."
HStem: -11 21<237 280.5> 1528 20<213.5 264>
VStem: 184 117<991.5 1245.5> 206 117<51.5 140.5 51.5 245> 457 106<769 913>
LayerCount: 2
Fore
SplineSet
457 828 m 256
 457 998 433 1027 304 1129 c 257
 298 1129 l 257
 298 943 302 757 302 571 c 257
 396 635 457 710 457 828 c 256
184 1178 m 257
 182 1487 l 258
 182 1522 194 1548 233 1548 c 256
 295 1548 308 1463 308 1380 c 256
 308 1318 301 1258 301 1233 c 257
 482 1207 563 1008 563 845 c 256
 563 670 465 540 307 472 c 257
 308 339 323 207 323 74 c 256
 323 29 306 -11 255 -11 c 256
 219 -11 206 28 206 58 c 256
 206 432 184 805 184 1178 c 257
EndSplineSet
EndChar

StartChar: Eth
Encoding: 143 208 441
Width: 900
VWidth: 0
Flags: W
PickledData: "(dp1
S'com.fontlab.hintData'
p2
(dp3
S'vhints'
p4
((dp5
S'position'
p6
I174
sS'width'
p7
I126
s(dp8
g6
I251
sg7
I98
s(dp9
g6
I626
sg7
I105
stp10
sS'hhints'
p11
((dp12
g6
I-5
sg7
I21
s(dp13
g6
I795
sg7
I119
s(dp14
g6
I819
sg7
I121
s(dp15
g6
I1429
sg7
I123
stp16
ss."
HStem: -5 21<285 431.5> 795 119<129.5 214> 819 121<486.5 506 457.5 518> 1429 123<331 362 362 441>
VStem: 174 126<1343 1514.5> 251 98<275 310 114 389> 626 105<734.5 773 773 868>
LayerCount: 2
Fore
SplineSet
306 -5 m 256
 264 -5 206 14 206 65 c 257
 251 112 251 244 251 306 c 256
 251 472 231 637 220 802 c 257
 196 798 171 795 146 795 c 256
 113 795 94 824 94 854 c 256
 94 906 172 914 214 914 c 257
 213 937 213 959 213 982 c 256
 213 1055 219 1131 219 1206 c 256
 219 1308 174 1400 174 1481 c 256
 174 1548 273 1552 331 1552 c 258
 362 1552 l 258
 725 1552 731 1023 731 868 c 258
 731 773 l 257
 720 754 731 733 731 711 c 256
 731 503 557 -5 306 -5 c 256
328 814 m 257
 339 646 349 478 349 310 c 258
 349 114 l 257
 566 254 626 615 626 854 c 256
 626 1061 582 1429 300 1429 c 257
 300 1427 l 258
 300 1259 310 1091 321 924 c 257
 376 931 430 940 485 940 c 256
 527 940 550 896 552 860 c 257
 518 819 l 257
 455 819 391 818 328 814 c 257
EndSplineSet
EndChar

StartChar: Thorn
Encoding: 157 222 442
Width: 756
VWidth: 0
Flags: W
PickledData: "(dp1
S'com.fontlab.hintData'
p2
(dp3
S'vhints'
p4
((dp5
S'position'
p6
I182
sS'width'
p7
I121
s(dp8
g6
I206
sg7
I117
s(dp9
g6
I457
sg7
I106
stp10
sS'hhints'
p11
((dp12
g6
I-11
sg7
I21
s(dp13
g6
I1528
sg7
I20
stp14
ss."
HStem: -11 21<237 280.5> 1528 20<213.5 263>
VStem: 182 121<1410 1504.5> 206 117<51.5 145.5 51.5 264.5> 457 106<876 1032.5>
LayerCount: 2
Fore
SplineSet
457 948 m 256
 457 1117 433 1147 304 1249 c 257
 298 1249 l 257
 298 1033 302 817 302 601 c 257
 406 699 457 804 457 948 c 256
184 1297 m 257
 182 1487 l 258
 182 1522 194 1548 233 1548 c 256
 293 1548 303 1483 303 1424 c 256
 303 1396 301 1370 301 1353 c 257
 482 1327 563 1128 563 965 c 256
 563 773 481 595 307 502 c 257
 308 359 323 217 323 74 c 256
 323 29 306 -11 255 -11 c 256
 219 -11 206 29 206 58 c 256
 206 471 184 884 184 1297 c 257
EndSplineSet
EndChar

StartChar: Euro
Encoding: 461 8364 443
Width: 918
VWidth: 0
Flags: W
PickledData: "(dp1
S'com.fontlab.hintData'
p2
(dp3
S'vhints'
p4
((dp5
S'position'
p6
I190
sS'width'
p7
I117
stp8
sS'hhints'
p9
((dp10
g6
I-33
sg7
I126
s(dp11
g6
I654
sg7
I70
s(dp12
g6
I808
sg7
I69
s(dp13
g6
I1448
sg7
I117
stp14
ss."
HStem: -33 126<501.5 555 501.5 556> 654 70<181 201> 808 69<147 192 147 193 121 192> 1448 117<435 522>
VStem: 190 117<1011 1217>
LayerCount: 2
Fore
SplineSet
505 700 m 256
 505 657 408 652 347 652 c 256
 330 652 315 653 307 653 c 257
 313 578 342 209 376 160 c 256
 410 111 473 93 530 93 c 256
 580 93 629 113 662 152 c 257
 684 152 706 155 727 162 c 257
 754 135 l 257
 754 4 609 -33 503 -33 c 256
 193 -33 213 450 201 654 c 257
 122 657 l 257
 114 664 109 677 109 687 c 256
 109 721 151 724 181 724 c 258
 197 724 l 257
 193 808 l 257
 121 808 l 257
 107 813 102 833 102 845 c 256
 102 876 121 877 147 877 c 258
 192 877 l 257
 192 930 190 984 190 1038 c 256
 190 1101 193 1164 204 1226 c 257
 200 1248 198 1269 198 1289 c 256
 198 1462 346 1565 524 1565 c 256
 580 1565 667 1531 667 1465 c 256
 667 1434 638 1419 610 1419 c 256
 573 1419 535 1448 509 1448 c 256
 312 1448 307 1294 307 1140 c 256
 307 1047 306 972 296 879 c 257
 305 879 331 880 361 880 c 256
 420 880 498 876 498 852 c 256
 498 841 492 828 484 821 c 257
 422 814 359 813 296 811 c 257
 301 725 l 257
 364 726 428 726 491 731 c 257
 499 724 505 711 505 700 c 256
EndSplineSet
EndChar

StartChar: OE
Encoding: 273 338 444
Width: 1260
VWidth: 0
Flags: W
PickledData: "(dp1
S'com.fontlab.hintData'
p2
(dp3
S'vhints'
p4
((dp5
S'position'
p6
I174
sS'width'
p7
I94
s(dp8
g6
I770
sg7
I96
s(dp9
g6
I811
sg7
I100
stp10
sS'hhints'
p11
((dp12
g6
I-16
sg7
I101
s(dp13
g6
I9
sg7
I103
s(dp14
g6
I758
sg7
I96
s(dp15
g6
I1433
sg7
I92
s(dp16
g6
I1449
sg7
I102
stp17
ss."
HStem: -16 101<1048 1190> 9 103<582.5 647.5 582.5 703> 758 96<920.5 966> 1433 92 1449 102<411 541.5 335.5 568>
VStem: 174 94<623.5 1042> 770 96 811 100
LayerCount: 2
Fore
SplineSet
1044 87 m 257
 1048 85 l 257
 1077 85 l 258
 1131 85 1213 80 1213 25 c 258
 1213 18 l 257
 1190 -16 l 257
 1082 -16 974 -22 866 -22 c 256
 840 -22 792 -6 792 26 c 257
 793 33 l 257
 758 22 722 9 684 9 c 256
 206 9 174 438 174 809 c 256
 174 1032 176 1551 495 1551 c 256
 588 1551 691 1546 772 1494 c 257
 802 1537 l 257
 833 1537 863 1525 894 1525 c 258
 1046 1525 l 258
 1063 1525 1080 1528 1097 1529 c 257
 1119 1517 1144 1498 1144 1470 c 256
 1144 1439 1110 1426 1084 1426 c 256
 1011 1426 939 1432 866 1433 c 257
 866 1294 894 1157 894 1018 c 256
 894 983 890 948 890 913 c 256
 890 894 891 875 895 856 c 257
 957 854 l 257
 966 854 l 258
 983 854 998 855 1011 855 c 256
 1036 855 1056 850 1081 818 c 257
 1081 780 1067 754 1025 754 c 256
 991 754 959 758 925 758 c 256
 916 758 906 758 897 757 c 257
 897 531 910 306 911 80 c 257
 955 83 1000 87 1044 87 c 257
268 751 m 257
 300 689 280 241 380 232 c 257
 442 158 534 112 631 112 c 256
 664 112 811 122 811 168 c 256
 811 569 776 970 770 1371 c 257
 712 1436 609 1449 527 1449 c 256
 295 1449 268 1127 268 957 c 256
 268 911 269 865 269 820 c 256
 269 797 269 774 268 751 c 257
EndSplineSet
EndChar

StartChar: oe
Encoding: 274 339 445
Width: 1008
VWidth: 0
Flags: W
PickledData: "(dp1
S'com.fontlab.hintData'
p2
(dp3
S'vhints'
p4
((dp5
S'position'
p6
I166
sS'width'
p7
I109
s(dp8
g6
I567
sg7
I140
s(dp9
g6
I610
sg7
I97
stp10
sS'hhints'
p11
((dp12
g6
I-38
sg7
I85
s(dp13
g6
I-27
sg7
I91
s(dp14
g6
I718
sg7
I79
s(dp15
g6
I1214
sg7
I138
s(dp16
g6
I1269
sg7
I79
stp17
ss."
HStem: -38 85<356 468> -27 91<652 719 701.5 719 701.5 843> 718 79<704 715.5 704 831 701 715.5> 1214 138 1269 79<344.5 449>
VStem: 166 109<751 993.5> 567 140 610 97<1178 1255>
LayerCount: 2
Fore
SplineSet
707 1256 m 257
 707 1148 l 258
 707 1145 698 961 698 867 c 256
 698 840 701 818 704 797 c 257
 727 797 771 801 798 801 c 256
 839 801 876 792 876 769 c 256
 876 744 859 718 831 718 c 258
 701 718 l 257
 705 666 707 615 707 563 c 256
 707 440 698 315 698 192 c 256
 698 133 701 64 702 64 c 256
 736 64 795 69 853 69 c 256
 886 69 918 60 918 19 c 256
 918 -16 875 -27 843 -27 c 258
 670 -27 l 258
 634 -27 600 1 598 36 c 257
 598 127 l 257
 575 16 505 -38 431 -38 c 256
 198 -38 167 410 167 626 c 256
 167 658 169 677 169 704 c 256
 169 711 168 714 166 714 c 257
 166 751 l 258
 166 887 174 1348 405 1348 c 256
 500 1348 577 1269 610 1178 c 257
 610 1332 628 1352 674 1352 c 256
 716 1352 919 1323 919 1261 c 256
 919 1242 907 1214 879 1214 c 256
 823 1214 763 1250 707 1256 c 257
398 1269 m 256
 291 1269 275 1078 275 909 c 256
 275 835 278 765 278 717 c 256
 278 613 289 47 423 47 c 256
 580 47 594 454 594 564 c 256
 594 723 568 882 567 1041 c 257
 567 1077 l 257
 564 1171 500 1269 398 1269 c 256
EndSplineSet
EndChar

StartChar: perthousand
Encoding: 456 8240 446
Width: 1778
VWidth: 0
Flags: W
PickledData: "(dp1
S'com.fontlab.hintData'
p2
(dp3
S'vhints'
p4
((dp5
S'position'
p6
I158
sS'width'
p7
I99
s(dp8
g6
I462
sg7
I94
s(dp9
g6
I756
sg7
I98
s(dp10
g6
I770
sg7
I111
s(dp11
g6
I1053
sg7
I100
s(dp12
g6
I1237
sg7
I98
s(dp13
g6
I1534
sg7
I100
stp14
sS'hhints'
p15
((dp16
g6
I2
sg7
I114
s(dp17
g6
I700
sg7
I100
s(dp18
g6
I733
sg7
I105
s(dp19
g6
I1449
sg7
I104
stp20
ss."
HStem: 2 114<909 988.5 909 1020 1390 1469.5> 700 100<307 404 307 485.5> 733 105<903 993 1384 1474> 1449 104<315 398>
VStem: 158 99<1133.5 1187.5 1133.5 1209> 462 94<1054.5 1140> 756 98<347.5 397 347.5 437> 770 111<1437 1437> 1053 100<386 467 467 478> 1237 98<347.5 397 347.5 437> 1534 100<386 467 467 478>
LayerCount: 2
Fore
SplineSet
1053 467 m 258
 1053 535 1041 733 945 733 c 256
 861 733 854 428 854 366 c 256
 854 329 889 116 929 116 c 256
 1048 116 1053 303 1053 386 c 258
 1053 467 l 258
924 2 m 256
 788 2 756 270 756 370 c 256
 756 504 757 838 951 838 c 256
 1130 838 1153 612 1153 478 c 258
 1153 378 l 258
 1153 229 1116 2 924 2 c 256
1534 467 m 258
 1534 535 1522 733 1426 733 c 256
 1342 733 1335 428 1335 366 c 256
 1335 329 1370 116 1410 116 c 256
 1529 116 1534 303 1534 386 c 258
 1534 467 l 258
334 1449 m 256
 296 1449 257 1210 257 1165 c 256
 257 1102 264 800 350 800 c 256
 458 800 462 1017 462 1092 c 256
 462 1179 462 1449 334 1449 c 256
769 1438 m 257
 770 1437 l 257
 771 1467 786 1536 827 1536 c 256
 855 1536 881 1517 881 1487 c 256
 881 1294 664 558 609 308 c 256
 594 241 566 -4 479 -8 c 257
 458 4 440 27 440 52 c 256
 440 272 696 1167 769 1438 c 257
1405 2 m 256
 1269 2 1237 270 1237 370 c 256
 1237 504 1238 838 1432 838 c 256
 1611 838 1634 612 1634 478 c 258
 1634 378 l 258
 1634 229 1597 2 1405 2 c 256
556 1140 m 257
 555 1141 l 257
 503 999 618 700 353 700 c 256
 159 700 158 1025 158 1163 c 256
 158 1255 191 1553 327 1553 c 256
 532 1553 556 1300 556 1147 c 258
 556 1140 l 257
EndSplineSet
EndChar

StartChar: uni02C9
Encoding: 400 713 487
Width: 600
VWidth: 0
Flags: HW
LayerCount: 2
Fore
SplineSet
550 1120 m 256
 548 1106 491 1103 419 1103 c 258
 304 1103 l 258
 222 1103 155 1103 155 1136 c 256
 157 1150 214 1153 286 1153 c 258
 402 1153 l 258
 486 1153 550 1153 550 1120 c 256
EndSplineSet
EndChar

StartChar: uni0358
Encoding: 412 856 489
Width: 600
VWidth: 0
Flags: HW
LayerCount: 2
Fore
SplineSet
203 1202 m 256
 203 1229 229 1257 256 1257 c 256
 281 1257 305 1227 305 1204 c 256
 305 1167 281 1153 248 1153 c 256
 223 1153 203 1179 203 1202 c 256
EndSplineSet
EndChar

StartChar: uni0394
Encoding: 413 916 490
Width: 758
VWidth: 0
Flags: HW
LayerCount: 2
Fore
SplineSet
573 0 m 258
 522 0 234 5 195 5 c 258
 165 5 l 258
 146 5 123 20 123 39 c 256
 123 41 124 43 124 45 c 256
 134 84 200 383 220 471 c 256
 281 737 313 1008 372 1274 c 256
 380 1313 431 1536 468 1536 c 256
 488 1536 503 1532 515 1516 c 256
 535 1485 579 1010 585 940 c 258
 613 600 l 257
 613 422 636 244 636 66 c 258
 636 57 l 258
 636 24 634 0 591 0 c 258
 573 0 l 258
213 105 m 257
 239 96 442 94 505 94 c 256
 512 94 522 93 531 93 c 256
 551 93 571 96 571 113 c 256
 571 420 494 1272 481 1389 c 256
 479 1405 473 1420 473 1436 c 257
 454 1382 438 1298 429 1253 c 256
 416 1178 370 859 325 664 c 256
 309 590 213 144 213 117 c 258
 213 105 l 257
EndSplineSet
EndChar

StartChar: Sigma
Encoding: 414 931 491
Width: 807
VWidth: 0
Flags: HW
LayerCount: 2
Fore
SplineSet
711 1475 m 256
 711 1460 671 1457 657 1457 c 258
 605 1457 l 258
 574 1457 544 1459 514 1459 c 0
 484 1459 454 1457 424 1450 c 256
 404 1445 382 1441 359 1441 c 256
 327 1441 293 1432 259 1432 c 256
 249 1432 234 1432 224 1422 c 257
 225 1422 l 257
 238 1369 529 894 562 851 c 256
 578 831 625 803 625 773 c 256
 625 748 582 641 568 630 c 256
 529 598 165 110 137 45 c 257
 278 25 450 -3 589 -3 c 256
 600 -3 610 -3 620 -1 c 257
 623 -1 l 257
 632 -10 635 -16 635 -39 c 256
 635 -49 629 -66 621 -66 c 0
 620 -66 l 256
 451 -41 330 -43 160 -18 c 256
 153 -17 121 7 119 7 c 256
 105 7 93 30 93 52 c 256
 93 79 120 104 130 117 c 257
 182 174 228 268 271 314 c 256
 300 345 320 386 406 496 c 257
 404 496 l 257
 426 531 l 257
 427 531 l 257
 523 666 563 706 563 739 c 0
 563 749 559 759 552 771 c 257
 530 816 289 1209 246 1275 c 256
 235 1291 193 1361 161 1425 c 256
 156 1435 152 1448 152 1461 c 0
 152 1476 158 1489 178 1489 c 256
 224 1489 415 1489 506 1507 c 257
 507 1507 l 258
 536 1507 564 1502 591 1502 c 256
 617 1502 642 1505 667 1522 c 256
 669 1523 675 1532 682 1532 c 256
 695 1532 711 1513 711 1475 c 256
220 1422 m 257
 220 1419 l 257
 217 1435 l 257
 215 1422 l 257
 220 1422 l 257
EndSplineSet
EndChar

StartChar: uni03A9
Encoding: 415 937 492
Width: 840
VWidth: 0
Flags: HW
LayerCount: 2
Fore
SplineSet
543 73 m 257
 614 220 664 491 664 682 c 258
 664 688 l 258
 664 1005 663 1501 371 1501 c 256
 192 1501 169 1202 169 955 c 258
 169 872 l 258
 169 666 215 290 302 67 c 257
 203 69 l 257
 125 69 75 65 75 48 c 256
 75 25 100 13 118 13 c 256
 158 13 260 11 329 11 c 256
 362 11 379 19 379 34 c 256
 379 37 378 41 376 45 c 256
 284 239 230 654 230 761 c 258
 230 861 l 258
 230 989 234 1448 381 1448 c 256
 602 1448 604 904 604 732 c 258
 604 723 l 258
 604 621 549 241 487 41 c 256
 486 38 485 35 485 33 c 256
 485 17 513 13 549 13 c 256
 573 13 601 15 627 15 c 256
 665 15 748 19 748 36 c 256
 748 56 721 71 703 71 c 256
 644 71 598 72 543 73 c 257
EndSplineSet
EndChar

StartChar: pi
Encoding: 417 960 493
Width: 731
VWidth: 0
Flags: HW
LayerCount: 2
Fore
SplineSet
644 -33 m 256
 657 -33 667 -24 667 -13 c 256
 667 -2 661 11 656 21 c 256
 620 86 586 162 586 236 c 258
 578 1294 l 257
 601 1292 624 1289 646 1289 c 256
 664 1289 691 1296 691 1316 c 256
 691 1339 672 1342 654 1342 c 258
 546 1340 l 257
 220 1348 l 257
 205 1348 l 258
 131 1348 88 1344 28 1306 c 256
 20 1301 12 1291 12 1281 c 256
 12 1273 22 1257 38 1257 c 256
 63 1257 105 1291 153 1291 c 258
 181 1291 l 257
 188 598 l 258
 189 492 201 51 201 18 c 256
 201 0 215 -8 232 -8 c 256
 252 -8 254 7 254 23 c 258
 254 62 l 258
 254 322 239 983 239 1245 c 258
 239 1294 l 257
 384 1293 l 258
 409 1293 484 1294 509 1294 c 258
 522 1294 l 257
 522 1061 520 851 520 673 c 256
 520 383 526 179 549 98 c 256
 562 51 603 -33 644 -33 c 256
EndSplineSet
EndChar

StartChar: Omega
Encoding: 464 8486 499
Width: 840
VWidth: 0
Flags: HW
LayerCount: 2
Fore
SplineSet
543 73 m 257
 614 220 664 491 664 682 c 258
 664 688 l 258
 664 1005 663 1501 371 1501 c 256
 192 1501 169 1202 169 955 c 258
 169 872 l 258
 169 666 215 290 302 67 c 257
 203 69 l 257
 125 69 75 65 75 48 c 256
 75 25 100 13 118 13 c 256
 158 13 260 11 329 11 c 256
 362 11 379 19 379 34 c 256
 379 37 378 41 376 45 c 256
 284 239 230 654 230 761 c 258
 230 861 l 258
 230 989 234 1448 381 1448 c 256
 602 1448 604 904 604 732 c 258
 604 723 l 258
 604 621 549 241 487 41 c 256
 486 38 485 35 485 33 c 256
 485 17 513 13 549 13 c 256
 573 13 601 15 627 15 c 256
 665 15 748 19 748 36 c 256
 748 56 721 71 703 71 c 256
 644 71 598 72 543 73 c 257
EndSplineSet
EndChar

StartChar: estimated
Encoding: 465 8494 500
Width: 914
VWidth: 0
Flags: W
HStem: -33 68<394 394 394 462> 1303 61<407 415 415 489 407 501>
VStem: 96 70
LayerCount: 2
Fore
SplineSet
760 991 m 0
 760 972.387695312 760.134765625 953.100585938 760.134765625 933.396484375 c 0
 760.134765625 735.1015625 679.16015625 609 503 609 c 2
 223.813105549 609 l 1
 222.278392308 553.850747152 221 498.765574538 221 444 c 0
 221 212.663085938 302.05859375 46.580078125 464.5390625 46.580078125 c 0
 529.62109375 46.580078125 607.767578125 73.2265625 699 133 c 1
 713 133 742.490234375 120.999023438 730 111 c 0
 622.774414062 25.1611328125 528.680664062 -12.0126953125 449.227539062 -12.0126953125 c 0
 257.477539062 -12.0126953125 151 204.499023438 151 476 c 2
 151 710 l 2
 151 745.938274261 150.680415613 782.596353165 150.680415613 819.37282695 c 0
 150.680415613 1066.16232208 165.071672355 1318.28327645 387 1394 c 1
 418.22002923 1398.62101516 447.140811359 1400.91458598 473.884043294 1400.91458598 c 0
 684.420385681 1400.91458598 760 1258.76731691 760 991 c 0
225.563557452 670 m 1
 509.66796875 670 l 2
 606.921875 670 690 678.15625 690 1027 c 0
 690 1239.97363281 634 1333 446 1333 c 0
 278.50671684 1333 228.868201025 959.700257946 228.868201025 864.76480333 c 0
 228.868201025 861.920899713 228.912745277 859.326792623 229 857 c 0
 229 794.953036879 227.359070539 732.495841393 225.563557452 670 c 1
EndSplineSet
EndChar

